<svg width="527" height="236" viewBox="0 0 527 236" fill="none" xmlns="http://www.w3.org/2000/svg">
<path d="M235.802 117.901C235.802 183.021 183.011 235.802 117.901 235.802C52.7911 235.802 0 183.021 0 117.901C0 52.7811 52.7911 0 117.901 0C183.011 0 235.802 52.7911 235.802 117.901Z" fill="#00BD70"/>
<path d="M123.38 83.6485C121.917 86.6531 120.195 89.6777 118.282 92.6323L117.901 93.2132L117.521 92.6323C115.608 89.6878 113.895 86.6631 112.423 83.6485L112.323 83.4382L112.443 83.2378C114.426 79.7124 116.118 76.0568 117.48 72.3711L117.901 71.2294L118.322 72.3711C119.684 76.0568 121.376 79.7124 123.359 83.2378L123.47 83.4382L123.37 83.6485H123.38ZM189.341 132.023C180.718 131.983 172.175 130.661 163.952 128.067L162.77 127.696L163.912 127.225C171.794 123.96 180.137 122.248 188.74 122.138C188.9 122.138 189.04 122.138 189.181 122.148C189.231 122.148 189.291 122.148 189.341 122.148V113.665C189.281 113.665 189.231 113.665 189.181 113.665C189.04 113.665 188.89 113.665 188.75 113.675C180.137 113.554 171.784 111.842 163.912 108.577L162.77 108.106L163.952 107.736C172.175 105.152 180.718 103.819 189.341 103.789V95.3364C162.47 95.1462 140.656 73.3226 140.466 46.4713H132.013C131.983 55.1046 130.651 63.6477 128.057 71.8704L127.686 73.0522L127.215 71.9104C123.95 64.0183 122.228 55.6454 122.118 47.0122V46.6015C122.118 46.6015 122.128 46.5114 122.138 46.4713H113.655C113.655 46.4713 113.655 46.5214 113.655 46.5414C113.655 46.7317 113.665 46.8619 113.665 47.0021C113.554 55.6454 111.842 64.0283 108.567 71.9204L108.096 73.0622L107.725 71.8804C105.141 63.6577 103.809 55.1146 103.779 46.4813H95.3264C95.1461 73.3326 73.3126 95.1662 46.4513 95.3465V103.799C55.1847 103.829 63.838 105.192 72.1508 107.846C76.0668 109.098 79.9127 110.63 83.5884 112.423C86.613 113.895 89.6577 115.618 92.6223 117.541L93.2132 117.921L92.6223 118.302C89.6677 120.215 86.6431 121.927 83.6384 123.4L83.4281 123.5L83.2278 123.38C79.6924 121.397 76.0368 119.704 72.3611 118.342L71.2194 117.921L72.3611 117.501C74.4643 116.719 76.6377 115.798 78.821 114.746C76.227 113.615 73.563 112.603 70.9089 111.762L66.8326 110.46C60.4228 112.523 53.7725 113.615 47.0622 113.705H46.7417C46.6316 113.715 46.5414 113.725 46.4613 113.725V122.138C46.5314 122.138 46.5915 122.138 46.6616 122.138H47.0622C55.6755 122.268 64.0383 123.98 71.9004 127.245L73.0422 127.716L71.8603 128.087C63.6377 130.681 55.0946 132.003 46.4513 132.043V140.496C73.2825 140.666 95.1361 162.51 95.3164 189.361H103.769C103.799 182.541 104.651 175.73 106.293 169.08L104.671 165.214C103.619 162.71 102.357 160.196 100.915 157.742C100.114 159.966 99.4027 162.199 98.7917 164.393L98.4712 165.534L97.9504 164.473C92.3218 152.945 82.8673 143.5 71.3395 137.862L70.2779 137.341L71.4197 137.021C75.3557 135.919 79.1515 134.607 82.697 133.104L83.2679 132.854C83.999 132.544 84.7201 132.213 85.3811 131.903L85.8118 131.702L87.274 131.001C87.5444 130.871 87.7948 130.751 88.0352 130.631L88.4158 130.43C88.6161 130.33 88.8064 130.23 88.9967 130.13L89.4073 129.92L89.7178 129.759C90.479 129.359 91.15 128.998 91.7709 128.658L92.1415 128.447C94.8557 126.925 97.5498 125.232 100.154 123.4L100.434 123.199L100.695 123.42C104.941 126.925 108.867 130.851 112.373 135.098L112.593 135.358L112.393 135.638C110.57 138.242 108.877 140.937 107.345 143.651L107.014 144.252L106.604 143.711C103.219 139.264 99.3125 135.168 95.0059 131.542L93.9944 132.103C91.6307 133.425 89.207 134.657 86.7632 135.779C93.0229 140.516 98.3711 146.225 102.658 152.755C104.36 155.369 105.883 158.063 107.185 160.797C107.635 161.739 108.056 162.69 108.447 163.611C111.782 171.554 113.534 180.007 113.655 188.72C113.655 188.88 113.655 189.02 113.645 189.171C113.645 189.231 113.645 189.281 113.645 189.341H122.128C122.128 189.281 122.128 189.221 122.128 189.161V188.73C122.238 180.007 123.99 171.554 127.326 163.611C128.888 159.896 130.831 156.25 133.104 152.775C137.401 146.215 142.749 140.506 149.019 135.769C146.585 134.657 144.151 133.415 141.788 132.093L140.786 131.532C136.44 135.198 132.564 139.274 129.188 143.701L128.778 144.242L128.447 143.641C127.626 142.168 126.705 140.656 125.583 138.913C124.041 140.917 122.558 143.03 121.176 145.213L120.345 146.515C121.507 148.498 122.498 150.321 123.38 152.144L123.48 152.354L123.359 152.564C121.376 156.09 119.684 159.745 118.322 163.431L117.901 164.573L117.48 163.431C116.118 159.745 114.426 156.09 112.443 152.564L112.323 152.354L112.423 152.144C115.347 146.014 121.837 136.309 126.404 131.552C134.467 123.139 142.619 117.511 148.088 114.556C145.714 113.114 143.44 111.571 141.347 109.979L140.426 109.278C138.563 110.42 137.051 111.411 135.628 112.403L135.348 112.603L135.088 112.383C131.873 109.729 128.788 106.784 125.933 103.609C124.231 105.963 122.488 108.186 120.745 110.209L120.645 110.319C123.019 112.863 125.543 115.297 128.147 117.541L128.547 117.881L128.147 118.222C124.611 121.266 121.276 124.601 118.232 128.137L117.891 128.527L117.551 128.137C114.486 124.581 111.111 121.216 107.535 118.141L107.465 118.081C105.192 116.128 102.798 114.256 100.334 112.523L100.224 112.443C97.5999 110.6 94.8757 108.887 92.1515 107.355L91.3403 107.084L92.0914 106.604C96.5383 103.219 100.635 99.3126 104.26 95.0059L103.699 93.9944C102.377 91.6207 101.135 89.187 100.024 86.7533C95.2964 93.0129 89.5876 98.3511 83.0676 102.638L82.8673 102.768L82.6469 102.678C79.1015 101.185 75.3257 99.8734 71.4297 98.7918L70.2879 98.4713L71.3496 97.9505C82.8773 92.3218 92.3318 82.8673 97.9605 71.3295L98.4813 70.2679L98.8018 71.4097C99.8934 75.3457 101.215 79.1415 102.718 82.687C104.02 85.7617 105.552 88.8865 107.285 91.9813C108.847 94.7756 110.57 97.4998 112.413 100.134L112.613 100.414L112.393 100.675C109.749 103.88 106.794 106.964 103.619 109.829C105.973 111.531 108.196 113.274 110.219 115.017L110.329 115.117C112.903 112.723 115.367 110.159 117.641 107.515L117.701 107.435C119.654 105.162 121.517 102.768 123.249 100.314L123.339 100.194C125.242 97.4797 126.965 94.7355 128.517 91.9713C130.22 88.9366 131.722 85.8819 133.004 82.8673L133.074 82.697C134.597 79.0815 135.909 75.3057 137 71.3997L137.321 70.2579L137.842 71.3195C143.47 82.8472 152.925 92.3018 164.453 97.9304L165.514 98.4512L164.373 98.7717C160.467 99.8634 156.691 101.165 153.155 102.658L152.935 102.748L152.735 102.618C146.205 98.331 140.506 92.9928 135.769 86.7332C134.647 89.177 133.415 91.6107 132.093 93.9744L131.532 94.9859C135.248 99.3827 139.364 103.299 143.831 106.694C146.545 108.757 149.47 110.67 152.514 112.383C156.06 114.376 159.735 116.078 163.431 117.45L164.573 117.871L163.431 118.292C159.745 119.654 156.09 121.346 152.564 123.329L152.354 123.45L152.144 123.35C150.271 122.438 148.398 121.427 146.425 120.265L145.243 121.036C143.05 122.458 140.937 123.98 138.933 125.563C140.736 126.725 142.289 127.666 143.781 128.497C146.816 130.19 149.88 131.702 152.885 132.984L153.005 133.034L153.135 133.084C156.681 134.577 160.457 135.889 164.363 136.97L165.504 137.291L164.443 137.812C152.915 143.44 143.47 152.895 137.832 164.423L137.311 165.484L136.99 164.343C136.38 162.159 135.668 159.926 134.867 157.692C133.425 160.146 132.163 162.66 131.111 165.164L129.489 169.03C131.141 175.7 131.983 182.51 132.013 189.311H140.466C140.656 162.47 162.49 140.636 189.341 140.446V131.993V132.023Z" fill="white"/>
<path d="M527 117.901C527 183.021 474.209 235.802 409.099 235.802C343.989 235.802 291.198 183.011 291.198 117.901C291.198 52.7911 343.979 0 409.099 0C474.219 0 527 52.7911 527 117.901Z" fill="#6126FF"/>
<path d="M424.693 87.4946V116.079L433.336 116.069V87.4946H424.693Z" fill="white"/>
<path d="M442.2 87.2241C440.277 86.503 438.274 86.9136 436.792 88.1756C434.578 90.0585 434.318 93.3535 436.181 95.5369C438.334 98.0608 442.13 98.1209 444.353 95.607C445.445 94.3751 445.825 92.8528 445.565 91.2303C445.265 89.3574 443.842 87.825 442.2 87.2241Z" fill="white"/>
<path d="M408.468 108.727C406.705 109.478 404.752 109.478 403.019 108.837C400.015 107.716 398.252 104.821 398.292 101.666C398.322 99.3829 399.274 97.3297 400.926 95.9576C402.739 94.4553 405.093 93.9445 407.386 94.4853C410.661 95.2665 412.835 98.2211 412.915 101.556C412.985 104.631 411.382 107.485 408.478 108.727M405.353 86.8236C396.59 86.9738 389.619 93.9846 390.24 102.898C390.53 107.005 392.503 110.73 395.708 113.304C403.04 119.193 414.387 117.381 419.114 109.008C420.296 106.924 420.877 104.711 420.967 102.317C421.298 93.5038 414.056 86.6834 405.343 86.8236" fill="white"/>
<path d="M357.029 109.288C353.974 109.438 351.22 107.776 349.998 104.951C348.306 101.045 349.958 96.2981 353.964 94.7757C355.867 94.0546 358 94.0847 359.823 94.966C362.367 96.1979 363.879 98.7118 363.96 101.496C364.07 105.592 361.255 109.088 357.039 109.288M363.749 87.5046L363.699 90.8597C362.297 89.067 359.823 87.6448 357.67 87.154C353.333 86.1725 348.876 87.4244 345.591 90.419C341.565 94.1047 340.103 99.3528 340.984 104.711C341.485 107.776 342.937 110.52 345.111 112.703C347.624 115.217 350.889 116.649 354.445 116.76C358.04 116.87 361.336 115.437 363.699 112.733L363.749 116.078H372.383V87.4945H363.759L363.749 87.5046Z" fill="white"/>
<path d="M377.911 70.198V116.079L386.564 116.058V70.198H377.911Z" fill="white"/>
<path d="M342.006 87.4645H333.362L325.51 110.72L317.668 87.4645H309.025L318.66 116.048L325.51 116.038L332.361 116.048L342.006 87.4645Z" fill="white"/>
<path d="M488.441 133.976C489.012 132.073 490.334 130.511 492.117 129.67C493.268 129.189 494.42 128.998 495.662 129.129C498.296 129.309 500.499 131.212 500.93 133.976H488.431H488.441ZM506.639 128.337C504.936 125.603 502.392 123.57 499.278 122.689C496.954 122.028 494.53 121.908 492.167 122.338C485.506 123.56 480.599 129.269 480.138 135.949C479.657 142.84 483.764 149.109 490.364 151.263C493.989 152.445 498.056 152.234 501.571 150.672C504.275 149.47 506.459 147.547 508.041 145.013L501.942 140.817C501.391 141.588 500.92 142.279 500.279 142.86C497.685 145.674 492.627 145.654 489.983 142.86C489.052 141.878 488.431 140.676 488.14 139.364H509.093C509.353 135.549 508.642 131.582 506.619 128.327" fill="white"/>
<path d="M382.488 143.911C380.625 144.773 378.482 144.753 376.629 144.001C373.815 142.86 372.152 140.105 372.122 137.111C372.082 134.006 373.795 131.212 376.699 130.06C378.512 129.339 380.565 129.349 382.358 130.12C385.022 131.262 386.634 133.846 386.745 136.73C386.855 139.755 385.322 142.609 382.498 143.921M389.769 125.052C387.366 123.129 384.451 122.088 381.356 122.098C379.273 122.048 377.34 122.558 375.527 123.55C374.306 124.201 373.314 125.072 372.423 126.124L372.383 122.769H363.759V165.615H372.403V147.968C377.45 153.897 386.604 153.005 391.482 147.417C394.116 144.542 395.358 140.817 395.338 136.921C395.318 132.283 393.385 127.957 389.769 125.052Z" fill="white"/>
<path d="M469.602 122.538C464.594 121.266 460.408 122.729 456.822 126.384C454.338 122.598 450.142 121.467 445.845 122.398C443.662 122.989 441.769 124.251 440.397 126.024L440.377 122.759H431.744V151.333H440.387V135.498C440.397 132.484 442.03 129.8 445.255 129.82C448.239 129.84 449.621 131.793 449.832 134.637V151.333H458.475V135.338C458.555 132.454 460.097 129.94 463.112 129.83C466.227 129.719 467.779 131.763 467.929 134.707V151.333H476.583V132.253C476.513 127.606 474.109 123.89 469.612 122.538" fill="white"/>
<path d="M412.114 145.994L404.271 122.759H395.628L405.263 151.333H410.311L405.523 165.525L414.167 165.535L428.599 122.759H419.956L412.114 145.994Z" fill="white"/>
</svg>
