<svg width="143" height="143" viewBox="0 0 143 143" fill="none" xmlns="http://www.w3.org/2000/svg">
<path d="M143 71.5C143 110.987 110.987 143 71.5 143C32.0129 143 0 110.993 0 71.5C0 32.0066 32.0129 0 71.5 0C110.987 0 143 32.0129 143 71.5Z" fill="#FF005B"/>
<path d="M43.1794 125.313V130.467C44.673 131.192 46.211 131.84 47.7681 132.45V38.5276H43.1794V125.313Z" fill="#EDDECC"/>
<path d="M57.6325 94.4305H82.381C94.9841 94.405 105.229 84.1726 105.293 71.5822H105.299C105.299 71.5822 105.299 71.5441 105.299 71.525C105.299 71.506 105.299 71.4869 105.299 71.4678H105.293C105.229 58.8711 94.9841 48.645 82.381 48.6196H57.6325V43.1284H82.3365C98.0093 43.1284 110.759 55.865 110.784 71.5314C110.759 87.1978 98.0093 99.928 82.3365 99.928H57.6325V94.4368V94.4305ZM57.6325 84.3569H82.381C89.4293 84.3315 95.162 78.6178 95.2129 71.5695C95.2129 71.5695 95.2129 71.5377 95.2129 71.525C95.2129 71.5123 95.2129 71.4933 95.2129 71.4742C95.162 64.4322 89.4357 58.7186 82.381 58.6932H57.6325V53.2083H82.3365C92.4482 53.2083 100.679 61.4197 100.71 71.525C100.679 81.6304 92.4546 89.8417 82.3365 89.8417H57.6325V84.3569ZM57.6325 63.2819H82.3365C86.8935 63.2819 90.5987 66.9745 90.6242 71.525C90.5987 76.0756 86.8935 79.7682 82.3365 79.7682H57.6325V63.2819ZM71.5003 6.0819C35.4262 6.0819 6.07625 35.4255 6.07625 71.4996C6.07625 93.3246 16.8362 112.677 33.3098 124.568C34.797 125.643 36.3223 126.659 37.8985 127.606V38.527H33.3098V118.804C19.5119 107.644 10.665 90.5853 10.665 71.4996C10.665 37.955 37.9557 10.6706 71.494 10.6706C105.032 10.6706 132.323 37.9614 132.323 71.4996C132.323 105.038 105.032 132.329 71.494 132.329C66.7209 132.329 62.0814 131.757 57.6198 130.714V104.51H82.3683C100.532 104.485 115.303 89.7273 115.36 71.5695C115.36 71.5695 115.36 71.5377 115.36 71.5187C115.36 71.4996 115.36 71.4869 115.36 71.4678C115.309 53.31 100.532 38.5524 82.3683 38.527H57.6198H53.0311V134.248C54.5373 134.693 56.069 135.087 57.6198 135.424C62.0941 136.396 66.7336 136.917 71.494 136.917C107.568 136.917 136.918 107.567 136.918 71.4996C136.918 35.4318 107.574 6.0819 71.5003 6.0819Z" fill="#EDDECC"/>
</svg>
