<svg width="94" height="131" viewBox="0 0 94 131" fill="none" xmlns="http://www.w3.org/2000/svg">
<path d="M39.1717 119.327H37.2496V130.579H39.1717V119.327Z" fill="white"/>
<path d="M42.5955 125.774C42.6655 125.874 42.7957 125.904 42.9759 125.904H46.0491C46.1793 125.904 46.3194 125.844 46.3795 125.764C46.4396 125.694 46.4496 125.574 46.4195 125.413C46.2994 124.763 45.6587 124.082 44.5575 124.082C43.5765 124.082 42.7957 124.633 42.5854 125.413C42.5454 125.554 42.5454 125.684 42.5955 125.774ZM40.4031 126.745C40.4031 124.262 42.0949 122.53 44.5475 122.53C46.85 122.53 48.5318 124.102 48.5318 126.645V127.145H43.126C42.8858 127.145 42.7356 127.185 42.6255 127.305C42.5154 127.426 42.4553 127.626 42.5054 127.886C42.6756 128.797 43.4464 129.358 44.5275 129.358C45.5386 129.358 46.1893 128.867 46.4295 128.026H48.4717C48.0212 129.748 46.6598 130.839 44.5876 130.839C42.0449 130.839 40.4031 129.238 40.4031 126.745Z" fill="white"/>
<path d="M51.575 130.579H49.653V122.791H51.495V123.121C51.495 123.321 51.585 123.421 51.7152 123.451C51.8753 123.491 52.0455 123.391 52.2257 123.261C52.7062 122.911 53.367 122.53 54.318 122.53C56.1599 122.53 57.201 123.702 57.201 125.514V130.579H55.279V126.054C55.279 125.083 54.8585 124.292 53.6673 124.292C52.3859 124.292 51.575 125.263 51.575 126.805V130.589V130.579Z" fill="white"/>
<path d="M59.1429 124.373H57.7715V122.791H59.1429C59.4433 122.791 59.6435 122.591 59.6435 122.28V120.478H61.5656V122.28C61.5656 122.581 61.7658 122.791 62.0661 122.791H63.6477V124.373H62.0661C61.7658 124.373 61.5656 124.573 61.5656 124.883V127.866C61.5656 128.477 61.7958 128.817 62.5566 128.817H63.8379V130.579H62.0761C60.5144 130.579 59.6435 129.768 59.6435 128.247V124.883C59.6435 124.583 59.4433 124.373 59.1429 124.373Z" fill="white"/>
<path d="M70.8455 126.685C70.8455 125.183 69.9245 124.262 68.6532 124.262C67.3818 124.262 66.4608 125.183 66.4608 126.685C66.4608 128.186 67.3818 129.107 68.6532 129.107C69.9245 129.107 70.8455 128.186 70.8455 126.685ZM72.8677 126.685C72.8677 129.137 71.1058 130.839 68.6532 130.839C66.2006 130.839 64.4387 129.137 64.4387 126.685C64.4387 124.232 66.2006 122.53 68.6532 122.53C71.1058 122.53 72.8677 124.232 72.8677 126.685Z" fill="white"/>
<path d="M31.5135 129.468C32.3043 129.468 33.0551 129.148 33.4155 128.557C33.6157 128.237 33.8059 127.476 33.5357 127.246C33.4155 127.146 33.2454 127.136 32.9851 127.146L31.5836 127.246C30.7027 127.306 30.1721 127.696 30.1721 128.387C30.1721 129.078 30.7527 129.468 31.5135 129.468ZM33.6958 129.959C33.5657 129.918 33.4656 129.979 33.2954 130.109C32.7748 130.529 32.0441 130.839 31.063 130.839C29.5614 130.839 28.24 130.089 28.24 128.487C28.24 126.885 29.5214 126.034 31.1832 125.934L32.4645 125.874C33.1052 125.834 33.5557 125.614 33.6358 125.223C33.7859 124.563 33.2954 124.002 32.0741 124.002C31.0931 124.002 30.3723 124.433 30.2722 125.464H28.4402C28.6104 123.362 30.2322 122.531 32.0841 122.531C34.0462 122.531 35.5478 123.412 35.5478 125.474V130.579H33.8159V130.259C33.8159 130.119 33.7959 129.999 33.6958 129.959Z" fill="white"/>
<path d="M29.6516 121.099H26.9287C26.5783 121.099 26.338 121.389 26.338 121.72V130.579H24.3459V121.72C24.3459 121.369 24.0857 121.099 23.7553 121.099H21.0324V119.327H29.6516V121.099Z" fill="white"/>
<path d="M49.773 28.5204C48.6718 30.4524 47.7408 32.4746 46.99 34.5968C46.2392 32.4746 45.2982 30.4524 44.2071 28.5204C45.028 26.8286 45.9589 25.2068 46.99 23.6552C48.0211 25.2068 48.9521 26.8286 49.773 28.5204ZM82.8883 4.28456H93.9801V0H82.8883C68.533 0 55.6693 6.43686 46.99 16.5576C38.3108 6.43686 25.4371 0 11.0918 0H0V4.28456H11.0918C24.4561 4.28456 36.4088 10.4111 44.2972 20.0013C43.2961 21.4228 42.3651 22.8944 41.5142 24.416C34.5568 15.1862 23.5151 9.20981 11.0918 9.20981H0V13.4944H11.0918C22.9044 13.4944 33.3255 19.6009 39.3619 28.8107C38.511 30.8228 37.7903 32.905 37.2197 35.0373C32.6047 25.2269 22.6341 18.4196 11.0918 18.4196H0V22.7042H11.0918C24.2058 22.7042 34.9572 33.0352 35.638 45.989C35.6279 46.4194 35.6079 46.8499 35.6079 47.2904H35.678V90.7366H39.9626V47.2904C39.9626 46.8399 39.9526 46.3994 39.9325 45.9589C40.0627 41.7244 40.8034 37.6501 42.0748 33.806C43.6965 37.5099 44.6676 41.5543 44.8578 45.7988C44.8377 46.2993 44.8177 46.7898 44.8177 47.2904H44.8978V90.7366H49.1824V47.2904C49.1824 46.7898 49.1623 46.2993 49.1423 45.7988C49.3225 41.5543 50.3036 37.5099 51.9253 33.806C53.1967 37.6501 53.9375 41.7244 54.0676 45.9589C54.0476 46.3994 54.0376 46.8499 54.0376 47.2904H54.1076V90.7366H58.3922V47.2904C58.3922 46.8599 58.3722 46.4294 58.3622 45.989C59.0429 33.0352 69.7843 22.7042 82.9083 22.7042H94.0001V18.4196H82.9083C71.366 18.4196 61.3954 25.2269 56.7805 35.0373C56.2099 32.895 55.4891 30.8128 54.6382 28.8107C60.6846 19.6009 71.0957 13.4944 82.9083 13.4944H94.0001V9.20981H82.9083C70.4851 9.20981 59.4333 15.1862 52.4859 24.416C51.635 22.8944 50.704 21.4228 49.703 20.0013C57.5914 10.4111 69.5541 4.28456 82.9183 4.28456" fill="white"/>
</svg>
