<svg width="143" height="143" viewBox="0 0 143 143" fill="none" xmlns="http://www.w3.org/2000/svg">
<path d="M143 71.5C143 110.987 110.987 143 71.4999 143C32.0129 143 0 110.987 0 71.5C0 32.0129 32.0129 0 71.4999 0C110.987 0 143 32.0129 143 71.5Z" fill="#6126FF"/>
<path d="M125.097 74.2134C125.072 56.0493 110.314 41.279 92.1561 41.2218C92.1561 41.2218 92.1243 41.2218 92.1052 41.2218C92.0862 41.2218 92.0735 41.2218 92.0608 41.2218C84.2816 41.2472 77.1379 43.9737 71.5005 48.5052C65.8631 43.9737 58.7132 41.2472 50.9403 41.2281C50.9403 41.2281 50.9086 41.2281 50.8895 41.2281C50.8704 41.2281 50.8577 41.2281 50.8386 41.2281C32.6808 41.2853 17.9232 56.0556 17.8978 74.2198V100.239C13.2837 91.6785 10.6652 81.8909 10.6652 71.4996C10.6652 37.955 37.9559 10.6706 71.4942 10.6706C105.032 10.6706 132.323 37.9614 132.323 71.4996C132.323 81.8909 129.698 91.6721 125.091 100.239V74.2198L125.097 74.2134ZM74.9262 59.1444C73.5597 60.6952 72.4094 62.4366 71.5005 64.3178C70.5917 62.4366 69.4413 60.7015 68.0749 59.1508C69.0727 57.5682 70.2167 56.0937 71.5005 54.74C72.778 56.0937 73.9283 57.5682 74.9262 59.1508M92.1116 65.9766C96.6622 66.002 100.355 69.7073 100.355 74.2643V125.045C95.2576 127.803 89.7219 129.856 83.8812 131.064V74.2198C83.8812 74.1689 83.8812 74.1181 83.8812 74.0736C83.9892 69.6056 87.6309 66.0084 92.1116 65.983M42.6527 125.039V74.2579C42.6527 69.701 46.3453 65.9957 50.8959 65.9703C55.3829 65.9957 59.0309 69.6056 59.1263 74.0736C59.1263 74.1181 59.1263 74.1626 59.1263 74.2071V131.051C53.2855 129.837 47.7562 127.791 42.6527 125.032M71.5005 6.0819C35.4264 6.0819 6.0765 35.4318 6.0765 71.506C6.0765 85.4246 10.4618 98.3327 17.8978 108.947C19.3215 110.974 20.8532 112.919 22.4865 114.768V74.2643C22.4865 58.5915 35.2231 45.8422 50.8831 45.8168C57.3467 45.8295 63.3082 48.0095 68.0812 51.6639C66.8228 53.0049 65.6725 54.4413 64.6493 55.973C60.8296 53.0749 56.0883 51.3334 50.9403 51.308C50.9403 51.308 50.9022 51.308 50.8831 51.308C50.8641 51.308 50.845 51.308 50.826 51.308C38.2293 51.3779 28.0031 61.6231 27.9777 74.2261V120.304C29.4522 121.619 30.9775 122.872 32.5664 124.054V74.2706C32.5664 64.1589 40.7778 55.9285 50.8831 55.8967C55.2303 55.9094 59.2216 57.4411 62.3612 59.9833C61.5096 61.7565 60.8168 63.6187 60.2893 65.5444C57.9568 63.0149 54.6329 61.4133 50.934 61.3879C50.934 61.3879 50.9022 61.3879 50.8895 61.3879C50.8768 61.3879 50.8577 61.3879 50.845 61.3879C43.803 61.4451 38.0894 67.1715 38.064 74.2198V127.702C39.5575 128.592 41.0892 129.424 42.6527 130.199C47.8007 132.742 53.3237 134.617 59.1263 135.735C60.6452 136.028 62.1769 136.263 63.7277 136.447V74.2198C63.7277 74.1753 63.7213 74.1308 63.7213 74.0863C63.7467 70.3874 64.4776 66.8601 65.7932 63.6251C67.9287 66.6185 69.1998 70.2603 69.2189 74.2071V74.2198V136.866C69.9816 136.892 70.7442 136.924 71.5196 136.924C72.295 136.924 73.0513 136.892 73.8139 136.866V74.2198V74.2071C73.8267 70.2603 75.0978 66.6185 77.2332 63.6251C78.5425 66.8601 79.2797 70.3874 79.3051 74.0736C79.3051 74.1244 79.2988 74.1753 79.2988 74.2198V136.447C80.8495 136.263 82.3876 136.028 83.9002 135.735C89.6965 134.617 95.2258 132.742 100.374 130.199C101.937 129.424 103.469 128.598 104.963 127.702V74.2198C104.937 67.1715 99.2235 61.4451 92.1815 61.3943C92.1815 61.3943 92.1498 61.3943 92.137 61.3943C92.1243 61.3943 92.1052 61.3943 92.0925 61.3943C88.3936 61.426 85.0696 63.0213 82.7372 65.5508C82.2096 63.6251 81.5169 61.7629 80.6652 59.9897C83.8112 57.4475 87.7962 55.9158 92.1434 55.9031C102.249 55.9349 110.46 64.1589 110.46 74.277V124.06C112.049 122.878 113.574 121.626 115.049 120.31V74.2325C115.023 61.6294 104.797 51.3843 92.2006 51.3207C92.2006 51.3207 92.1625 51.3207 92.1434 51.3207C92.1243 51.3207 92.1052 51.3207 92.0862 51.3207C86.9382 51.3525 82.1969 53.0939 78.3709 55.9921C77.3477 54.4604 76.1973 53.024 74.9389 51.683C79.7183 48.0285 85.6798 45.8486 92.1434 45.8359C107.81 45.8613 120.546 58.6169 120.546 74.2833V114.787C122.18 112.938 123.711 110.993 125.135 108.966C132.571 98.3518 136.956 85.4437 136.956 71.525C136.956 35.4509 107.606 6.10097 71.5323 6.10097" fill="#EDDECC"/>
</svg>
