<svg width="101" height="135" viewBox="0 0 101 135" fill="none" xmlns="http://www.w3.org/2000/svg">
<path d="M2.57219 128.62H3.98891C5.34534 128.62 6.01852 127.977 6.01852 126.902C6.01852 125.827 5.36543 125.224 3.98891 125.224H2.57219C2.24062 125.224 2.00953 125.485 2.00953 125.806V128.067C2.00953 128.399 2.25067 128.63 2.57219 128.63M0.0100574 123.445H4.01905C6.33 123.445 8.16872 124.39 8.16872 126.871C8.16872 129.353 6.33 130.318 4.01905 130.318H2.64253C2.26072 130.318 1.99947 130.609 1.99947 130.961V134.739H0V123.445H0.0100574Z" fill="white"/>
<path d="M11.2836 134.739H9.3544V126.922H11.1931V127.394C11.1931 127.635 11.2835 127.745 11.4242 127.745C11.6151 127.745 11.6553 127.645 11.8462 127.424C12.2079 127.002 12.5998 126.821 13.3332 126.821H14.328V128.7H12.9916C11.6352 128.7 11.2735 129.695 11.2735 130.71V134.739H11.2836Z" fill="white"/>
<path d="M21.0297 130.83C21.0297 129.323 20.1053 128.399 18.8293 128.399C17.5532 128.399 16.6288 129.323 16.6288 130.83C16.6288 132.337 17.5532 133.262 18.8293 133.262C20.1053 133.262 21.0297 132.337 21.0297 130.83ZM23.0593 130.83C23.0593 133.292 21.2909 135 18.8293 135C16.3676 135 14.5992 133.292 14.5992 130.83C14.5992 128.369 16.3676 126.66 18.8293 126.66C21.2909 126.66 23.0593 128.369 23.0593 130.83Z" fill="white"/>
<path d="M28.2237 128.429C27.018 128.429 26.0836 129.343 26.0836 130.83C26.0836 132.317 27.028 133.232 28.2237 133.232C29.4194 133.232 30.4141 132.307 30.4141 130.83C30.4141 129.353 29.4897 128.429 28.2237 128.429ZM32.3834 134.739H30.4543V134.467C30.4543 134.267 30.384 134.146 30.2634 134.116C30.1529 134.086 30.0323 134.146 29.8414 134.287C29.3792 134.648 28.696 135 27.7314 135C25.7219 135 24.054 133.322 24.054 130.83C24.054 128.338 25.7218 126.66 27.7716 126.66C28.6557 126.66 29.349 126.982 29.7811 127.283C29.982 127.424 30.1428 127.515 30.2835 127.474C30.404 127.434 30.4442 127.344 30.4442 127.143V123.455H32.3734V134.749L32.3834 134.739Z" fill="white"/>
<path d="M39.4771 126.922H41.4062V134.739H39.5574V134.407C39.5574 134.206 39.467 134.106 39.3364 134.076C39.1756 134.035 39.0048 134.136 38.834 134.266C38.3517 134.608 37.6886 135 36.7341 135C34.8853 135 33.8403 133.824 33.8403 132.006V126.922H35.7695V131.463C35.7695 132.428 36.1915 133.232 37.3871 133.232C38.6732 133.232 39.4871 132.257 39.4871 130.71V126.922H39.4771Z" fill="white"/>
<path d="M42.5316 130.87C42.5316 128.379 44.2297 126.66 46.7617 126.66C48.7411 126.66 50.4793 127.715 50.6803 129.846H48.6507C48.4899 128.991 47.8268 128.399 46.7215 128.399C45.4656 128.399 44.5613 129.313 44.5613 130.84C44.5613 132.367 45.4555 133.262 46.7316 133.262C47.8067 133.262 48.51 132.759 48.6808 131.785H50.7104C50.4894 133.925 48.731 135 46.7416 135C44.2096 135 42.5116 133.382 42.5116 130.88" fill="white"/>
<path d="M52.3481 128.509H50.9716V126.922H52.3481C52.6495 126.922 52.8505 126.721 52.8505 126.409V124.601H54.7796V126.409C54.7796 126.711 54.9806 126.922 55.282 126.922H56.8796V128.509H55.282C54.9806 128.509 54.7796 128.71 54.7796 129.022V132.016C54.7796 132.629 55.0107 132.97 55.7743 132.97H57.0604V134.739H55.292C53.7246 134.739 52.8505 133.925 52.8505 132.398V129.022C52.8505 128.72 52.6495 128.509 52.3481 128.509Z" fill="white"/>
<path d="M60.2456 134.739H58.3164V126.922H60.2456V134.739ZM60.3058 125.616H58.2762V123.445H60.3058V125.616Z" fill="white"/>
<path d="M61.3006 126.922H63.4608L65.4301 132.167C65.4904 132.337 65.6009 132.438 65.7517 132.438C65.9024 132.438 65.9928 132.337 66.0531 132.167L68.0023 126.922H70.1123L66.8669 134.739H64.5359L61.2905 126.922H61.3006Z" fill="white"/>
<path d="M73.1367 134.739H71.2076V126.922H73.1367V134.739ZM73.187 125.616H71.1574V123.445H73.187V125.616Z" fill="white"/>
<path d="M78.5423 128.429C77.3366 128.429 76.4022 129.343 76.4022 130.83C76.4022 132.317 77.3467 133.232 78.5423 133.232C79.738 133.232 80.7327 132.307 80.7327 130.83C80.7327 129.353 79.8083 128.429 78.5423 128.429ZM82.702 134.739H80.7729V134.467C80.7729 134.267 80.7026 134.146 80.582 134.116C80.4614 134.086 80.3509 134.146 80.16 134.287C79.6978 134.648 79.0145 135 78.05 135C76.0405 135 74.3725 133.322 74.3725 130.83C74.3725 128.338 76.0405 126.66 78.0902 126.66C78.9744 126.66 79.6677 126.982 80.0997 127.283C80.3007 127.424 80.4614 127.515 80.6021 127.474C80.7227 127.434 80.7628 127.344 80.7628 127.143V123.455H82.692V134.749L82.702 134.739Z" fill="white"/>
<path d="M87.1329 133.623C87.9267 133.623 88.6803 133.302 89.042 132.709C89.2429 132.388 89.4338 131.624 89.1626 131.393C89.042 131.292 88.8712 131.282 88.6099 131.292L87.2033 131.393C86.3191 131.453 85.7866 131.845 85.7866 132.538C85.7866 133.232 86.3693 133.623 87.1329 133.623ZM89.3233 134.116C89.1927 134.076 89.0922 134.136 88.9214 134.266C88.3989 134.688 87.6655 135 86.6808 135C85.1736 135 83.8474 134.246 83.8474 132.639C83.8474 131.031 85.1335 130.177 86.8014 130.077L88.0875 130.016C88.7305 129.976 89.1827 129.755 89.263 129.363C89.4138 128.7 88.9214 128.137 87.6956 128.137C86.7109 128.137 85.9875 128.569 85.887 129.604H84.0483C84.2191 127.494 85.8469 126.66 87.7057 126.66C89.675 126.66 91.1821 127.545 91.1821 129.614V134.739H89.4439V134.417C89.4439 134.277 89.4339 134.156 89.3334 134.116" fill="white"/>
<path d="M96.4772 128.429C95.2714 128.429 94.337 129.343 94.337 130.83C94.337 132.317 95.2815 133.232 96.4772 133.232C97.6728 133.232 98.6676 132.307 98.6676 130.83C98.6676 129.353 97.7432 128.429 96.4772 128.429ZM100.627 134.739H98.6977V134.467C98.6977 134.267 98.6274 134.146 98.5068 134.116C98.3862 134.086 98.2757 134.146 98.0848 134.287C97.6226 134.648 96.9394 135 95.9748 135C93.9653 135 92.2973 133.322 92.2973 130.83C92.2973 128.338 93.9653 126.66 96.015 126.66C96.8992 126.66 97.5925 126.982 98.0245 127.283C98.2255 127.424 98.3862 127.515 98.5269 127.474C98.6475 127.434 98.6877 127.344 98.6877 127.143V123.455H100.617V134.749L100.627 134.739Z" fill="white"/>
<path d="M62.4461 57.5427H39.2863V52.3984H62.4863C74.3023 52.3783 83.9078 42.7828 83.958 30.9768C83.958 30.9768 83.958 30.9366 83.958 30.9266C83.958 30.9065 83.958 30.8864 83.958 30.8764C83.8978 19.0704 74.2922 9.48496 62.4863 9.46486H39.2863V4.32048H62.4461C77.1357 4.32048 89.0823 16.2571 89.1125 30.9366C89.0823 45.6162 77.1357 57.5528 62.4461 57.5528M70.2229 30.9266C70.2028 35.1868 66.7264 38.6532 62.4561 38.6532H39.2963V23.2H62.4561C66.7264 23.2 70.2028 26.6664 70.2229 30.9266ZM79.6677 30.9266C79.6376 40.4015 71.931 48.098 62.4461 48.098H39.2863V42.9536H62.4863C69.0976 42.9235 74.463 37.5681 74.5133 30.9668C74.5133 30.9668 74.5133 30.9366 74.5133 30.9266C74.5133 30.9065 74.5133 30.8964 74.5133 30.8864C74.463 24.2851 69.0976 18.9297 62.4863 18.8996H39.2863V13.7552H62.4461C71.921 13.7552 79.6376 21.4517 79.6677 30.9266ZM93.4129 30.8764C93.3626 13.8657 79.517 0.0301429 62.4963 0H39.2963H34.996V94.7391H39.2963V61.8532H62.4963C79.517 61.8331 93.3727 47.9975 93.4229 30.9768C93.4229 30.9768 93.4229 30.9467 93.4229 30.9266C93.4229 30.9065 93.4229 30.8964 93.4229 30.8864L93.4129 30.8764Z" fill="white"/>
<path d="M30.0523 0H25.7519V94.7391H30.0523V0Z" fill="white"/>
<path d="M20.7985 0H16.4981V94.7391H20.7985V0Z" fill="white"/>
</svg>
