<svg width="101" height="131" viewBox="0 0 101 131" fill="none" xmlns="http://www.w3.org/2000/svg">
<path d="M28.3776 123.818L25.7231 130.74H23.9602L21.2757 123.828C21.1555 123.507 21.0052 123.467 20.845 123.497C20.6747 123.527 20.5545 123.668 20.5545 123.918V130.74H18.7314V119.481H21.4159L24.3909 127.214C24.5111 127.504 24.6513 127.634 24.8517 127.634C25.042 127.634 25.1722 127.514 25.2824 127.214L28.2273 119.481H30.8918V130.74H29.0688V123.898C29.0688 123.698 28.9686 123.527 28.7983 123.497C28.638 123.467 28.4677 123.537 28.3676 123.818" fill="white"/>
<path d="M34.3778 125.931C34.448 126.032 34.5782 126.062 34.7585 126.062H37.8337C37.9639 126.062 38.1041 126.002 38.1642 125.921C38.2243 125.851 38.2343 125.731 38.2043 125.571C38.0841 124.92 37.443 124.239 36.3411 124.239C35.3595 124.239 34.5782 124.79 34.3678 125.571C34.3278 125.711 34.3278 125.841 34.3778 125.931ZM32.1842 126.903C32.1842 124.419 33.877 122.686 36.3311 122.686C38.635 122.686 40.3178 124.259 40.3178 126.803V127.304H34.9087C34.6683 127.304 34.5181 127.344 34.4079 127.464C34.2977 127.584 34.2376 127.785 34.2977 128.045C34.468 128.957 35.2393 129.517 36.3211 129.517C37.3328 129.517 37.9839 129.027 38.2243 128.185H40.2677C39.817 129.908 38.4447 131 36.3812 131C33.8469 131 32.1942 129.397 32.1942 126.903" fill="white"/>
<path d="M43.3627 130.739H41.4395V122.946H43.2725V123.417C43.2725 123.658 43.3627 123.768 43.5029 123.768C43.6932 123.768 43.7333 123.668 43.9236 123.447C44.2842 123.026 44.6749 122.846 45.4061 122.846H46.3978V124.719H45.0655C43.7133 124.719 43.3527 125.711 43.3527 126.723V130.739H43.3627Z" fill="white"/>
<path d="M46.6684 126.883C46.6684 124.399 48.3613 122.686 50.8855 122.686C52.8588 122.686 54.5917 123.738 54.7921 125.861H52.7687C52.6084 125.01 51.9473 124.419 50.8454 124.419C49.5933 124.419 48.6918 125.33 48.6918 126.853C48.6918 128.376 49.5833 129.267 50.8555 129.267C51.9273 129.267 52.6284 128.766 52.8088 127.795H54.8321C54.6118 129.928 52.8588 131 50.8755 131C48.3513 131 46.6584 129.387 46.6584 126.893" fill="white"/>
<path d="M58.9791 129.628C59.7705 129.628 60.5217 129.307 60.8823 128.716C61.0827 128.396 61.273 127.634 61.0025 127.404C60.8823 127.304 60.712 127.294 60.4516 127.304L59.0493 127.404C58.1678 127.464 57.6369 127.855 57.6369 128.546C57.6369 129.237 58.2179 129.628 58.9791 129.628ZM61.1628 130.118C61.0326 130.078 60.9324 130.139 60.7621 130.269C60.2413 130.689 59.51 131 58.5284 131C57.0259 131 55.7036 130.249 55.7036 128.646C55.7036 127.043 56.9858 126.192 58.6486 126.092L59.9307 126.032C60.5718 125.992 61.0226 125.771 61.1027 125.381C61.253 124.719 60.7521 124.158 59.5501 124.158C58.5684 124.158 57.8472 124.589 57.7471 125.621H55.914C56.0843 123.517 57.707 122.686 59.5601 122.686C61.5234 122.686 63.0259 123.567 63.0259 125.631V130.74H61.293V130.419C61.293 130.279 61.283 130.159 61.1828 130.118" fill="white"/>
<path d="M68.2947 124.449C67.0927 124.449 66.1611 125.361 66.1611 126.843C66.1611 128.326 67.1027 129.237 68.2947 129.237C69.4867 129.237 70.4784 128.316 70.4784 126.843C70.4784 125.371 69.5568 124.449 68.2947 124.449ZM72.4316 130.74H70.5084V130.469C70.5084 130.269 70.4383 130.149 70.3181 130.119C70.1979 130.088 70.0877 130.149 69.8974 130.289C69.4366 130.649 68.7555 131 67.7938 131C65.7905 131 64.1277 129.327 64.1277 126.843C64.1277 124.359 65.7905 122.686 67.8339 122.686C68.7154 122.686 69.4066 123.007 69.8373 123.307C70.0376 123.447 70.1979 123.537 70.3381 123.497C70.4583 123.457 70.4984 123.367 70.4984 123.167V119.491H72.4216V130.75L72.4316 130.74Z" fill="white"/>
<path d="M79.9742 126.843C79.9742 125.34 79.0527 124.419 77.7805 124.419C76.5084 124.419 75.5869 125.34 75.5869 126.843C75.5869 128.346 76.5084 129.267 77.7805 129.267C79.0527 129.267 79.9742 128.346 79.9742 126.843ZM81.9876 126.843C81.9876 129.297 80.2246 131 77.7705 131C75.3164 131 73.5534 129.297 73.5534 126.843C73.5534 124.389 75.3164 122.686 77.7705 122.686C80.2246 122.686 81.9876 124.389 81.9876 126.843Z" fill="white"/>
<path d="M50.0641 21.5762C49.2126 19.8133 48.1408 18.1905 46.8587 16.7481C47.7902 15.2656 48.862 13.8933 50.0641 12.6312C51.2561 13.8933 52.3279 15.2756 53.2594 16.7481C51.9873 18.2006 50.9055 19.8233 50.0641 21.5762ZM69.3765 0C69.3765 0 69.3464 0 69.3364 0C69.3164 0 69.3064 0 69.2863 0C62.0241 0.0200336 55.3429 2.57432 50.0741 6.80142C44.8052 2.56431 38.124 0.0200336 30.8618 0C30.8618 0 30.8318 0 30.8218 0C30.8017 0 30.7917 0 30.7817 0C13.8132 0.0500841 0.0200336 13.8533 0 30.8318V90.8626H4.2872V30.8718C4.2872 16.2272 16.1872 4.31725 30.8218 4.2872C36.8619 4.2872 42.4312 6.33063 46.8987 9.74637C45.7268 10.9985 44.645 12.3407 43.6934 13.7731C40.1174 11.0686 35.6899 9.43584 30.8819 9.41581C30.8819 9.41581 30.8418 9.41581 30.8318 9.41581C30.8117 9.41581 30.7917 9.41581 30.7817 9.41581C19.0119 9.48593 9.45588 19.052 9.43584 30.8318V90.8626H13.723V30.8718C13.723 21.426 21.3959 13.7331 30.8418 13.703C34.8986 13.713 38.6349 15.1454 41.5698 17.5194C40.7685 19.1722 40.1274 20.9151 39.6365 22.7181C37.4529 20.3542 34.3477 18.8617 30.8919 18.8316C30.8919 18.8316 30.8618 18.8316 30.8518 18.8316C30.8418 18.8316 30.8217 18.8316 30.8117 18.8316C24.2307 18.8817 18.8917 24.2407 18.8617 30.8218V90.8526H23.1489V30.8618C23.1489 26.6047 26.6047 23.1389 30.8518 23.1188C35.0489 23.1389 38.4546 26.5145 38.5447 30.6915C38.5447 30.7316 38.5447 30.7717 38.5447 30.8218V90.8526H42.8419V30.8218C42.8419 30.8218 42.8419 30.7416 42.8419 30.6915C42.862 27.2357 43.5531 23.9402 44.7752 20.9151C46.7685 23.7098 47.9605 27.1255 47.9705 30.8117V90.8425H52.2678V30.8117C52.2778 27.1155 53.4698 23.7098 55.4631 20.9051C56.6852 23.9302 57.3763 27.2257 57.3964 30.6815C57.3964 30.7216 57.3964 30.7617 57.3964 30.8117V90.8425H61.6936V30.8117C61.6936 30.8117 61.6936 30.7316 61.6936 30.6815C61.7837 26.5045 65.1895 23.1288 69.3865 23.1088C73.6336 23.1288 77.0894 26.5947 77.0894 30.8518V90.8425H81.3766V30.8117C81.3566 24.2207 76.0076 18.8717 69.4266 18.8216C69.4266 18.8216 69.3965 18.8216 69.3865 18.8216C69.3665 18.8216 69.3565 18.8216 69.3464 18.8216C65.8906 18.8517 62.7854 20.3442 60.6018 22.7081C60.1109 20.9051 59.4598 19.1622 58.6685 17.5094C61.6034 15.1354 65.3397 13.703 69.3965 13.693C78.8424 13.723 86.5153 21.4059 86.5153 30.8618V90.8526H90.8025V30.8218C90.7724 19.042 81.2164 9.47591 69.4566 9.41581C69.4566 9.41581 69.4166 9.41581 69.4065 9.41581C69.3865 9.41581 69.3665 9.41581 69.3565 9.41581C64.5484 9.44586 60.1109 11.0786 56.5449 13.7831C55.5933 12.3507 54.5115 11.0085 53.3396 9.75638C57.8071 6.34065 63.3764 4.30723 69.4166 4.29722C84.0511 4.31725 95.9511 16.2373 95.9511 30.8819V90.8726H100.238V30.8418C100.218 13.8733 86.4251 0.0601009 69.4566 0.0100168" fill="white"/>
</svg>
