<svg width="1320" height="225" viewBox="0 0 1320 225" fill="none" xmlns="http://www.w3.org/2000/svg">
<path d="M955 112.5C955 174.63 904.63 225 842.5 225C780.37 225 730 174.63 730 112.5C730 50.37 780.36 0 842.49 0C904.62 0 954.99 50.37 954.99 112.5" fill="#FF8500"/>
<path d="M841.44 72.94C851.99 72.94 861.91 77.05 869.38 84.5L874.48 79.38C865.7 70.62 854.04 65.77 841.65 65.71H841.63H841.21C815.58 65.84 794.73 86.71 794.64 112.36V112.38V112.63C794.73 138.34 815.7 159.26 841.43 159.27H841.45C853.91 159.26 865.64 154.41 874.47 145.6L869.37 140.49C861.9 147.94 851.98 152.04 841.43 152.05C819.63 152.04 801.88 134.29 801.86 112.49C801.88 90.69 819.63 72.94 841.43 72.93" fill="#EDDECC"/>
<path d="M879.92 73.9601L885.02 68.8501C882.11 65.9501 878.96 63.3701 875.61 61.1301C865.57 54.4301 853.79 50.8201 841.45 50.8201H841.43C840.86 50.8201 840.3 50.8501 839.73 50.8601C839.24 50.8701 838.75 50.8701 838.27 50.9001C837.64 50.9301 837.02 50.9901 836.39 51.0401C835.97 51.0801 835.56 51.0901 835.14 51.1401C834.42 51.2101 833.71 51.3201 833 51.4101C832.69 51.4501 832.37 51.4801 832.06 51.5301C831.19 51.6601 830.34 51.8201 829.48 51.9901C829.33 52.0201 829.18 52.0401 829.03 52.0701C828.09 52.2601 827.17 52.4801 826.24 52.7201C826.18 52.7401 826.11 52.7501 826.05 52.7701C799.47 59.6301 779.77 83.8101 779.75 112.5V112.53C779.75 113.08 779.78 113.63 779.79 114.17C779.8 114.67 779.8 115.18 779.83 115.68C779.86 116.21 779.91 116.74 779.95 117.27C779.99 117.78 780.02 118.3 780.07 118.81C780.12 119.3 780.19 119.78 780.26 120.27C780.33 120.81 780.39 121.36 780.47 121.9C780.54 122.36 780.64 122.81 780.72 123.27C780.82 123.82 780.9 124.38 781.02 124.93C781.1 125.32 781.2 125.7 781.29 126.09C781.43 126.7 781.56 127.31 781.71 127.92C781.78 128.17 781.86 128.42 781.93 128.68C782.13 129.41 782.33 130.13 782.55 130.85C782.62 131.08 782.7 131.29 782.77 131.51C783.01 132.25 783.25 132.99 783.52 133.71C783.59 133.89 783.66 134.07 783.73 134.25C784.02 135.01 784.31 135.77 784.63 136.51C784.69 136.66 784.77 136.8 784.83 136.95C785.16 137.72 785.51 138.49 785.87 139.24C785.95 139.41 786.05 139.58 786.14 139.76C786.5 140.48 786.86 141.2 787.24 141.9C787.27 141.95 787.3 141.99 787.32 142.04C787.77 142.86 788.24 143.68 788.73 144.48C788.82 144.62 788.91 144.76 789 144.9C789.43 145.6 789.87 146.3 790.33 146.98C790.37 147.04 790.42 147.11 790.47 147.17C790.98 147.92 791.51 148.66 792.05 149.39C792.12 149.48 792.19 149.56 792.26 149.65C792.79 150.35 793.33 151.04 793.89 151.72C793.99 151.84 794.1 151.95 794.2 152.07C794.73 152.71 795.27 153.34 795.83 153.95C796.02 154.15 796.21 154.34 796.4 154.54C796.89 155.06 797.37 155.58 797.88 156.09C798.08 156.29 798.29 156.48 798.49 156.67C799 157.16 799.5 157.66 800.02 158.13C800.29 158.37 800.57 158.6 800.84 158.84C801.31 159.25 801.77 159.67 802.26 160.07C802.7 160.43 803.16 160.78 803.61 161.13C803.94 161.38 804.25 161.65 804.59 161.9C805.12 162.3 805.67 162.68 806.21 163.06C806.48 163.24 806.74 163.44 807 163.62C807.71 164.1 808.44 164.56 809.17 165.01C809.28 165.08 809.39 165.16 809.5 165.22C818.83 170.89 829.77 174.17 841.45 174.17H841.47C842.18 174.17 842.88 174.14 843.59 174.12C843.9 174.11 844.22 174.12 844.53 174.1C854.67 173.6 864.36 170.66 872.92 165.56C872.97 165.53 873.02 165.5 873.07 165.48C873.85 165.01 874.62 164.52 875.38 164.02C875.46 163.97 875.54 163.92 875.61 163.87C877.23 162.79 878.8 161.62 880.33 160.38C880.38 160.34 880.43 160.3 880.48 160.26C881.09 159.76 881.69 159.23 882.29 158.7C882.45 158.55 882.63 158.41 882.79 158.27C883.55 157.58 884.29 156.88 885.02 156.15L879.92 151.04C869.64 161.3 855.98 166.96 841.45 166.96C841.26 166.96 841.08 166.95 840.89 166.94C811.13 166.62 787 142.32 786.98 112.5C786.98 112.37 786.98 112.24 786.98 112.12C787.21 82.2801 811.55 58.0601 841.44 58.0401C841.56 58.0401 841.68 58.0401 841.8 58.0401C848.94 58.0901 855.86 59.4901 862.27 62.1501C868.79 64.8501 874.77 68.8301 879.91 73.9601" fill="#EDDECC"/>
<path d="M895.54 58.3299C881.08 43.8999 861.87 35.9399 841.44 35.9399C799.23 35.9399 764.88 70.2999 764.86 112.51C764.88 154.71 799.23 189.06 841.44 189.07C861.87 189.07 881.08 181.11 895.54 166.68L890.44 161.57C877.35 174.64 859.95 181.85 841.45 181.85C803.22 181.84 772.11 150.73 772.09 112.51C772.11 74.2799 803.22 43.1699 841.45 43.1599C859.95 43.1599 877.35 50.3699 890.45 63.4399L895.55 58.3299H895.54Z" fill="#EDDECC"/>
<path d="M842.49 208.21C789.71 208.21 746.78 165.28 746.78 112.5C746.78 59.7201 789.72 16.7901 842.49 16.7901C895.26 16.7901 938.2 59.7301 938.2 112.5C938.2 165.27 895.26 208.21 842.49 208.21ZM842.49 9.57007C785.73 9.57007 739.56 55.7501 739.56 112.51C739.56 169.27 785.74 215.44 842.49 215.44C899.24 215.44 945.43 169.26 945.43 112.51C945.43 55.7601 899.25 9.57007 842.49 9.57007Z" fill="#EDDECC"/>
<path d="M1320 112.5C1320 174.63 1269.63 225 1207.5 225C1145.37 225 1095 174.63 1095 112.5C1095 50.37 1145.37 0 1207.5 0C1269.63 0 1320 50.37 1320 112.5Z" fill="#6126FF"/>
<path d="M1291.83 116.77C1291.79 88.1901 1268.57 64.9501 1240 64.8601C1240 64.8601 1239.95 64.8601 1239.92 64.8601C1239.89 64.8601 1239.87 64.8601 1239.85 64.8601C1227.61 64.9001 1216.37 69.1901 1207.5 76.3201C1198.63 69.1901 1187.38 64.9001 1175.15 64.8701C1175.15 64.8701 1175.1 64.8701 1175.07 64.8701C1175.04 64.8701 1175.02 64.8701 1174.99 64.8701C1146.42 64.9601 1123.2 88.2001 1123.16 116.78V157.72C1115.9 144.25 1111.78 128.85 1111.78 112.5C1111.78 59.7201 1154.72 16.7901 1207.49 16.7901C1260.26 16.7901 1303.2 59.7301 1303.2 112.5C1303.2 128.85 1299.07 144.24 1291.82 157.72V116.78L1291.83 116.77ZM1212.89 93.0601C1210.74 95.5001 1208.93 98.2401 1207.5 101.2C1206.07 98.2401 1204.26 95.5101 1202.11 93.0701C1203.68 90.5801 1205.48 88.2601 1207.5 86.1301C1209.51 88.2601 1211.32 90.5801 1212.89 93.0701M1239.93 103.81C1247.09 103.85 1252.9 109.68 1252.9 116.85V196.75C1244.88 201.09 1236.17 204.32 1226.98 206.22V116.78C1226.98 116.7 1226.98 116.62 1226.98 116.55C1227.15 109.52 1232.88 103.86 1239.93 103.82M1162.11 196.74V116.84C1162.11 109.67 1167.92 103.84 1175.08 103.8C1182.14 103.84 1187.88 109.52 1188.03 116.55C1188.03 116.62 1188.03 116.69 1188.03 116.76V206.2C1178.84 204.29 1170.14 201.07 1162.11 196.73M1207.5 9.57007C1150.74 9.57007 1104.56 55.7501 1104.56 112.51C1104.56 134.41 1111.46 154.72 1123.16 171.42C1125.4 174.61 1127.81 177.67 1130.38 180.58V116.85C1130.38 92.1901 1150.42 72.1301 1175.06 72.0901C1185.23 72.1101 1194.61 75.5401 1202.12 81.2901C1200.14 83.4001 1198.33 85.6601 1196.72 88.0701C1190.71 83.5101 1183.25 80.7701 1175.15 80.7301C1175.15 80.7301 1175.09 80.7301 1175.06 80.7301C1175.03 80.7301 1175 80.7301 1174.97 80.7301C1155.15 80.8401 1139.06 96.9601 1139.02 116.79V189.29C1141.34 191.36 1143.74 193.33 1146.24 195.19V116.86C1146.24 100.95 1159.16 88.0001 1175.06 87.9501C1181.9 87.9701 1188.18 90.3801 1193.12 94.3801C1191.78 97.1701 1190.69 100.1 1189.86 103.13C1186.19 99.1501 1180.96 96.6301 1175.14 96.5901C1175.14 96.5901 1175.09 96.5901 1175.07 96.5901C1175.05 96.5901 1175.02 96.5901 1175 96.5901C1163.92 96.6801 1154.93 105.69 1154.89 116.78V200.93C1157.24 202.33 1159.65 203.64 1162.11 204.86C1170.21 208.86 1178.9 211.81 1188.03 213.57C1190.42 214.03 1192.83 214.4 1195.27 214.69V116.78C1195.27 116.71 1195.26 116.64 1195.26 116.57C1195.3 110.75 1196.45 105.2 1198.52 100.11C1201.88 104.82 1203.88 110.55 1203.91 116.76V116.78V215.35C1205.11 215.39 1206.31 215.44 1207.53 215.44C1208.75 215.44 1209.94 215.39 1211.14 215.35V116.78V116.76C1211.16 110.55 1213.16 104.82 1216.52 100.11C1218.58 105.2 1219.74 110.75 1219.78 116.55C1219.78 116.63 1219.77 116.71 1219.77 116.78V214.69C1222.21 214.4 1224.63 214.03 1227.01 213.57C1236.13 211.81 1244.83 208.86 1252.93 204.86C1255.39 203.64 1257.8 202.34 1260.15 200.93V116.78C1260.11 105.69 1251.12 96.6801 1240.04 96.6001C1240.04 96.6001 1239.99 96.6001 1239.97 96.6001C1239.95 96.6001 1239.92 96.6001 1239.9 96.6001C1234.08 96.6501 1228.85 99.1601 1225.18 103.14C1224.35 100.11 1223.26 97.1801 1221.92 94.3901C1226.87 90.3901 1233.14 87.9801 1239.98 87.9601C1255.88 88.0101 1268.8 100.95 1268.8 116.87V195.2C1271.3 193.34 1273.7 191.37 1276.02 189.3V116.8C1275.98 96.9701 1259.89 80.8501 1240.07 80.7501C1240.07 80.7501 1240.01 80.7501 1239.98 80.7501C1239.95 80.7501 1239.92 80.7501 1239.89 80.7501C1231.79 80.8001 1224.33 83.5401 1218.31 88.1001C1216.7 85.6901 1214.89 83.4301 1212.91 81.3201C1220.43 75.5701 1229.81 72.1401 1239.98 72.1201C1264.63 72.1601 1284.67 92.2301 1284.67 116.88V180.61C1287.24 177.7 1289.65 174.64 1291.89 171.45C1303.59 154.75 1310.49 134.44 1310.49 112.54C1310.49 55.7801 1264.31 9.60007 1207.55 9.60007" fill="#EDDECC"/>
<path d="M225 112.5C225 174.63 174.63 225 112.5 225C50.37 225 0 174.64 0 112.5C0 50.36 50.37 0 112.5 0C174.63 0 225 50.37 225 112.5Z" fill="#FF2B5E"/>
<path d="M67.9399 197.17V205.28C70.2899 206.42 72.7099 207.44 75.1599 208.4V60.6201H67.9399V197.17Z" fill="#EDDECC"/>
<path d="M90.6801 148.58H129.62C149.45 148.54 165.57 132.44 165.67 112.63H165.68C165.68 112.63 165.68 112.57 165.68 112.54C165.68 112.51 165.68 112.48 165.68 112.45H165.67C165.57 92.6301 149.45 76.5401 129.62 76.5001H90.6801V67.8601H129.55C154.21 67.8601 174.27 87.9001 174.31 112.55C174.27 137.2 154.21 157.23 129.55 157.23H90.6801V148.59V148.58ZM90.6801 132.73H129.62C140.71 132.69 149.73 123.7 149.81 112.61C149.81 112.61 149.81 112.56 149.81 112.54C149.81 112.52 149.81 112.49 149.81 112.46C149.73 101.38 140.72 92.3901 129.62 92.3501H90.6801V83.7201H129.55C145.46 83.7201 158.41 96.6401 158.46 112.54C158.41 128.44 145.47 141.36 129.55 141.36H90.6801V132.73ZM90.6801 99.5701H129.55C136.72 99.5701 142.55 105.38 142.59 112.54C142.55 119.7 136.72 125.51 129.55 125.51H90.6801V99.5701ZM112.5 9.57007C55.7401 9.57007 9.56006 55.7401 9.56006 112.5C9.56006 146.84 26.4901 177.29 52.4101 196C54.7501 197.69 57.1501 199.29 59.6301 200.78V60.6201H52.4101V186.93C30.7001 169.37 16.7801 142.53 16.7801 112.5C16.7801 59.7201 59.7201 16.7901 112.49 16.7901C165.26 16.7901 208.2 59.7301 208.2 112.5C208.2 165.27 165.26 208.21 112.49 208.21C104.98 208.21 97.6801 207.31 90.6601 205.67V164.44H129.6C158.18 164.4 181.42 141.18 181.51 112.61C181.51 112.61 181.51 112.56 181.51 112.53C181.51 112.5 181.51 112.48 181.51 112.45C181.43 83.8801 158.18 60.6601 129.6 60.6201H90.6601H83.4401V211.23C85.8101 211.93 88.2201 212.55 90.6601 213.08C97.7001 214.61 105 215.43 112.49 215.43C169.25 215.43 215.43 169.25 215.43 112.5C215.43 55.7501 169.26 9.57007 112.5 9.57007Z" fill="#EDDECC"/>
<path d="M590 112.5C590 174.63 539.63 225 477.5 225C415.37 225 365 174.63 365 112.5C365 50.37 415.37 0 477.5 0C539.63 0 590 50.37 590 112.5Z" fill="#00BD70"/>
<path d="M496.68 206.28V151.23C496.68 150.5 496.64 149.77 496.62 149.04C497.76 127.22 515.87 109.82 537.97 109.82H556.66V102.6H537.97C518.53 102.6 501.73 114.07 493.95 130.59C492.98 126.99 491.78 123.48 490.34 120.1C500.52 104.58 518.06 94.3001 537.97 94.3001H556.66V87.0801H537.97C517.04 87.0801 498.43 97.1601 486.71 112.71C485.28 110.14 483.71 107.66 482.02 105.27C495.32 89.1101 515.46 78.7901 537.97 78.7901H556.66V71.5701H537.97C513.79 71.5701 492.11 82.4101 477.49 99.4701C462.87 82.4101 441.19 71.5701 417.01 71.5701H398.32V78.7901H417.01C439.52 78.7901 459.67 89.1101 472.96 105.27C471.27 107.66 469.69 110.14 468.27 112.71C456.55 97.1601 437.94 87.0801 417.01 87.0801H398.32V94.3001H417.01C436.92 94.3001 454.46 104.58 464.64 120.1C463.2 123.48 462 126.99 461.03 130.59C453.25 114.07 436.45 102.6 417.01 102.6H398.32V109.82H417.01C439.11 109.82 457.22 127.22 458.36 149.04C458.4 149.76 458.42 150.49 458.42 151.23V206.3C414.75 197.43 381.78 158.75 381.78 112.5C381.78 59.7201 424.72 16.7901 477.49 16.7901C530.26 16.7901 573.2 59.7301 573.2 112.5C573.2 158.71 540.29 197.37 496.67 206.28M477.5 129.86C476.23 126.29 474.66 122.87 472.81 119.62C474.2 116.78 475.77 114.04 477.5 111.42C479.23 114.04 480.8 116.78 482.19 119.62C480.34 122.87 478.77 126.29 477.5 129.87M477.5 9.57007C420.74 9.57007 374.56 55.7501 374.56 112.51C374.56 162.75 410.75 204.67 458.42 213.64C460.8 214.09 463.21 214.46 465.64 214.74V151.24C465.64 150.49 465.62 149.74 465.58 148.99C465.8 141.86 467.05 134.99 469.19 128.52C471.92 134.77 473.56 141.59 473.87 148.76C473.91 149.59 473.93 150.41 473.93 151.24V215.36C475.11 215.4 476.29 215.45 477.48 215.45C478.67 215.45 479.93 215.4 481.15 215.36V151.25C481.15 150.42 481.12 149.59 481.09 148.77C481.4 141.6 483.04 134.78 485.77 128.53C487.91 135 489.17 141.88 489.38 149.01C489.4 149.76 489.44 150.51 489.44 151.26V214.75C491.87 214.47 494.28 214.1 496.66 213.65C544.28 204.63 580.41 162.74 580.41 112.54C580.41 55.7801 534.23 9.60007 477.47 9.60007" fill="#EDDECC"/>
</svg>
