<svg width="78" height="134" viewBox="0 0 78 134" fill="none" xmlns="http://www.w3.org/2000/svg">
<path d="M13.4296 124.681C13.4296 121.188 15.9061 118.792 19.2685 118.792C22.2484 118.792 24.3323 120.312 24.7249 123.131H22.5303C22.2081 121.399 20.99 120.594 19.2685 120.594C17.2652 120.594 15.5739 122.024 15.5739 124.681C15.5739 127.339 17.2853 128.829 19.2685 128.829C21.0806 128.829 22.1981 128.013 22.5605 126.362H24.7048C24.3021 128.94 22.2988 130.621 19.2685 130.621C15.8357 130.621 13.4296 128.255 13.4296 124.671" fill="white"/>
<path d="M28.8223 129.252C29.6176 129.252 30.3726 128.93 30.735 128.336C30.9363 128.013 31.1276 127.248 30.8457 127.017C30.735 126.916 30.5538 126.906 30.2921 126.916L28.8827 127.017C27.9967 127.077 27.4632 127.47 27.4632 128.164C27.4632 128.859 28.0471 129.252 28.8122 129.252M31.0068 129.745C30.8759 129.705 30.7753 129.765 30.6041 129.896C30.0806 130.319 29.3457 130.631 28.3592 130.631C26.8491 130.631 25.5202 129.876 25.5202 128.265C25.5202 126.654 26.8088 125.799 28.48 125.698L29.7686 125.638C30.4129 125.597 30.8659 125.376 30.9464 124.983C31.0974 124.319 30.6041 123.755 29.3759 123.755C28.3894 123.755 27.6645 124.188 27.5639 125.225H25.7216C25.8927 123.111 27.5236 122.275 29.386 122.275C31.3592 122.275 32.8692 123.161 32.8692 125.235V130.369H31.1276V130.047C31.1276 129.906 31.1075 129.785 31.0068 129.745Z" fill="white"/>
<path d="M38.6275 128.859C39.8356 128.859 40.7617 127.943 40.7617 126.433C40.7617 124.923 39.8356 124.037 38.6275 124.037C37.4195 124.037 36.4429 124.993 36.4429 126.433C36.4429 127.872 37.3691 128.859 38.6275 128.859ZM34.4597 122.537H36.3926V122.829C36.3926 123.02 36.4329 123.091 36.5537 123.131C36.6745 123.171 36.8154 123.101 37.0067 122.96C37.4698 122.607 38.1544 122.275 39.1107 122.275C41.1141 122.275 42.8054 123.946 42.8054 126.453C42.8054 128.96 41.104 130.631 39.0805 130.631C38.1946 130.631 37.5101 130.329 37.0671 130.007C36.906 129.896 36.745 129.775 36.604 129.815C36.4933 129.846 36.4027 129.946 36.4027 130.168V133.913H34.4698V122.547L34.4597 122.537Z" fill="white"/>
<path d="M45.9866 130.369H44.0537V122.537H45.9866V130.369ZM46.0369 121.228H44.0033V119.054H46.0369V121.228Z" fill="white"/>
<path d="M48.4933 124.127H47.1142V122.537H48.4933C48.7954 122.537 48.9967 122.336 48.9967 122.023V120.211H50.9195V122.023C50.9195 122.325 51.1209 122.537 51.4229 122.537H53.0236V124.127H51.4229C51.1209 124.127 50.9195 124.329 50.9195 124.641V127.641C50.9195 128.255 51.1511 128.597 51.9162 128.597H53.2048V130.369H51.4329C49.8625 130.369 48.9866 129.554 48.9866 128.023V124.641C48.9866 124.339 48.7853 124.127 48.4833 124.127" fill="white"/>
<path d="M57.3422 129.252C58.1375 129.252 58.8926 128.93 59.255 128.336C59.4563 128.013 59.6476 127.248 59.3657 127.017C59.255 126.916 59.0738 126.906 58.812 126.916L57.4026 127.017C56.5167 127.077 55.9832 127.47 55.9832 128.164C55.9832 128.859 56.5671 129.252 57.3322 129.252M59.5268 129.745C59.3959 129.705 59.2952 129.765 59.1241 129.896C58.6006 130.319 57.8557 130.631 56.8791 130.631C55.3691 130.631 54.0402 129.876 54.0402 128.265C54.0402 126.654 55.3288 125.799 56.9999 125.698L58.2885 125.638C58.9228 125.597 59.3859 125.376 59.4664 124.983C59.6073 124.319 59.114 123.755 57.906 123.755C56.9194 123.755 56.1946 124.188 56.0939 125.225H54.2516C54.4228 123.111 56.0536 122.275 57.9161 122.275C59.8892 122.275 61.3993 123.161 61.3993 125.235V130.369H59.6577V130.047C59.6577 129.906 59.6476 129.785 59.5369 129.745" fill="white"/>
<path d="M65.0335 119.054H63.1006V130.369H65.0335V119.054Z" fill="white"/>
<path d="M45.7046 22.0972C51.9966 22.0972 57.9261 24.5536 62.3758 28.9932L65.4261 25.9429C60.1811 20.718 53.2348 17.8187 45.8355 17.7885H45.8254H45.5637C30.2415 17.8691 17.7784 30.3623 17.7684 45.7046V45.7248C17.7885 61.1073 30.312 73.6207 45.6945 73.6308H45.7046C53.1442 73.6308 60.1409 70.7315 65.406 65.4764L62.3657 62.4261C57.906 66.8758 51.9865 69.3221 45.6945 69.3221C32.6778 69.3221 22.0872 58.7214 22.0771 45.7046C22.0872 32.6878 32.6878 22.0972 45.6945 22.0872" fill="white"/>
<path d="M68.6679 22.7115L71.7182 19.6612C69.9766 17.9296 68.1041 16.3894 66.1008 15.0504C60.1109 11.0538 53.0739 8.89942 45.7048 8.89942H45.6947C45.3424 8.89942 45.0001 8.91955 44.6478 8.92962C44.3659 8.92962 44.084 8.92962 43.8021 8.94976C43.4598 8.96989 43.1276 9.00009 42.7853 9.03029C42.5035 9.05043 42.2216 9.07056 41.9397 9.0907C41.6176 9.1209 41.3055 9.17123 40.9934 9.2115C40.6914 9.25177 40.3994 9.28197 40.0974 9.32224C39.7954 9.37257 39.4934 9.43298 39.2014 9.48331C38.3457 9.63432 37.49 9.81553 36.6444 10.0269C36.6041 10.037 36.5538 10.0471 36.5135 10.0571C36.1712 10.1477 35.839 10.2484 35.5068 10.3491C35.2652 10.4196 35.0135 10.48 34.7719 10.5605C34.4498 10.6612 34.1478 10.7719 33.8256 10.8826C33.5739 10.9732 33.3122 11.0538 33.0605 11.1444C32.7585 11.2551 32.4565 11.386 32.1545 11.4967C31.9028 11.5974 31.641 11.6981 31.3894 11.7987C31.0874 11.9196 30.7954 12.0605 30.5035 12.2014C30.2518 12.3122 30.0001 12.4229 29.7585 12.5437C29.4766 12.6746 29.1947 12.8256 28.9229 12.9766C28.6712 13.1075 28.4196 13.2283 28.178 13.3592C27.9162 13.5001 27.6645 13.6511 27.4129 13.8021C27.1511 13.9531 26.8894 14.0941 26.6377 14.2451C26.3961 14.3961 26.1645 14.5471 25.9229 14.6981C25.6612 14.8692 25.3994 15.0303 25.1377 15.2014C24.9061 15.3625 24.6746 15.5337 24.4431 15.6947C24.1914 15.8759 23.9397 16.0471 23.6981 16.2283C23.4766 16.3994 23.2652 16.5706 23.0437 16.7417C22.8021 16.933 22.5504 17.1243 22.3088 17.3155C22.1075 17.4867 21.9162 17.6578 21.7149 17.829C21.4733 18.0404 21.2216 18.2518 20.98 18.4732C20.7887 18.6444 20.6176 18.8256 20.4263 18.9967C20.1847 19.2283 19.933 19.4498 19.6914 19.6914C19.5303 19.8625 19.3692 20.0337 19.2082 20.2048C18.9665 20.4565 18.7149 20.7081 18.4733 20.9699C18.3223 21.141 18.1712 21.3122 18.0202 21.4934C17.7887 21.7652 17.5471 22.0269 17.3155 22.3088C17.1746 22.48 17.0437 22.6612 16.9028 22.8323C16.6712 23.1142 16.4397 23.4061 16.2283 23.6981C16.1075 23.8692 15.9867 24.0404 15.8659 24.2115C15.6444 24.5236 15.4129 24.8256 15.2014 25.1377C15.0907 25.3088 14.98 25.48 14.8692 25.6511C14.6578 25.9732 14.4464 26.3055 14.2451 26.6377C14.1444 26.8088 14.0437 26.98 13.9431 27.1612C13.7417 27.5035 13.5404 27.8357 13.3592 28.1779C13.2585 28.3592 13.178 28.5404 13.0773 28.7216C12.8961 29.0639 12.7149 29.4162 12.5437 29.7686C12.4531 29.9498 12.3726 30.141 12.292 30.3222C12.131 30.6746 11.9598 31.037 11.8088 31.3894C11.7283 31.5706 11.6679 31.7618 11.5873 31.9431C11.4363 32.3155 11.2853 32.688 11.1444 33.0605C11.0739 33.2417 11.0236 33.433 10.9531 33.6142C10.8222 33.9967 10.6813 34.3793 10.5605 34.7719C10.5001 34.9632 10.4498 35.1645 10.3994 35.3558C10.2887 35.7384 10.1679 36.131 10.0672 36.5135C10.0169 36.7249 9.96654 36.9363 9.91621 37.1578C9.8256 37.5404 9.735 37.9129 9.65446 38.2954C9.60413 38.5169 9.57393 38.7484 9.53366 38.9699C9.46319 39.3524 9.39272 39.7249 9.33232 40.1075C9.29205 40.3491 9.27191 40.5907 9.24171 40.8323C9.19138 41.2048 9.14104 41.5672 9.10077 41.9397C9.07057 42.2014 9.0605 42.4632 9.04037 42.7249C9.01017 43.0874 8.97997 43.4397 8.95983 43.8021C8.94976 44.084 8.94976 44.3558 8.9397 44.6377C8.92963 44.9699 8.9095 45.3122 8.9095 45.6545V45.6746V45.8256C8.9095 46.1578 8.92963 46.5001 8.9397 46.8323C8.9397 47.1142 8.9397 47.3961 8.95983 47.6679C8.97997 48.0303 9.01017 48.3827 9.04037 48.7451C9.0605 49.0068 9.07057 49.2686 9.10077 49.5303C9.14104 49.9028 9.19138 50.2652 9.24171 50.6276C9.27191 50.8692 9.30211 51.1209 9.34238 51.3625C9.40278 51.7451 9.47325 52.1176 9.54372 52.49C9.58399 52.7115 9.62426 52.9431 9.66453 53.1645C9.74507 53.5471 9.83567 53.9296 9.92627 54.3021C9.97661 54.5135 10.0169 54.7249 10.0773 54.9464C10.178 55.339 10.2988 55.7216 10.4095 56.1142C10.4699 56.3055 10.5202 56.4967 10.5706 56.688C10.6914 57.0907 10.8323 57.4733 10.9733 57.8659C11.0337 58.037 11.0941 58.2182 11.1545 58.3994C11.3055 58.8021 11.4665 59.1947 11.6276 59.5874C11.688 59.7484 11.7484 59.9095 11.8189 60.0605C11.99 60.4632 12.1712 60.8558 12.3625 61.2484C12.433 61.3894 12.4934 61.5404 12.5639 61.6813C12.7551 62.084 12.9665 62.4766 13.1679 62.8692C13.2384 63.0001 13.3088 63.141 13.3793 63.2719C13.6008 63.6746 13.8323 64.0773 14.0639 64.4699C14.1343 64.5806 14.1947 64.7015 14.2652 64.8122C14.5068 65.2048 14.7585 65.5874 15.0102 65.98C15.0806 66.0907 15.1511 66.2014 15.2216 66.3122C15.4833 66.7048 15.7551 67.0773 16.037 67.4498C16.1075 67.5504 16.178 67.6511 16.2585 67.7518C16.5504 68.1444 16.8625 68.537 17.1746 68.9196C17.235 68.99 17.2853 69.0706 17.3457 69.141C17.6679 69.5337 18.0102 69.9162 18.3424 70.2988C18.3927 70.3592 18.4431 70.4196 18.5035 70.48C18.8457 70.8625 19.2082 71.2249 19.5605 71.5874C19.6108 71.6377 19.6612 71.6981 19.7216 71.7484C20.0941 72.1209 20.4766 72.4833 20.8692 72.8357C20.9095 72.8759 20.9598 72.9263 21.0001 72.9666C21.4028 73.329 21.8055 73.6813 22.2283 74.0337C22.2686 74.0639 22.2988 74.0941 22.339 74.1243C22.7618 74.4766 23.1947 74.8189 23.6377 75.1511C23.6679 75.1712 23.6981 75.2015 23.7283 75.2216C24.1712 75.5538 24.6343 75.8759 25.0974 76.1981C25.1176 76.2182 25.1478 76.2384 25.178 76.2484C26.1444 76.9028 27.141 77.5068 28.1679 78.0706C28.188 78.0706 28.1981 78.0907 28.2082 78.1008C33.4229 80.9397 39.3927 82.5504 45.735 82.5504H45.7451C46.1679 82.5504 46.5907 82.5303 47.0135 82.5202C47.2048 82.5202 47.386 82.5202 47.5773 82.5102C53.6276 82.2082 59.4162 80.4565 64.5303 77.4061C64.5605 77.386 64.5907 77.3759 64.6209 77.3558C65.084 77.0739 65.5471 76.782 66.0001 76.48C66.0504 76.4498 66.0907 76.4196 66.1411 76.3894C67.1075 75.7451 68.0437 75.0504 68.9498 74.3055C68.98 74.2853 69.0102 74.2551 69.0404 74.235C69.282 74.0337 69.5236 73.8223 69.7652 73.6108C70.4397 73.0269 71.1041 72.4229 71.7484 71.7786L68.6981 68.7283C62.5572 74.8491 54.4028 78.2316 45.735 78.2316C45.6243 78.2316 45.5135 78.2316 45.4028 78.2316C27.6343 78.0404 13.2283 63.5337 13.2182 45.735C13.2182 45.6545 13.2182 45.584 13.2182 45.5035C13.3592 27.6947 27.886 13.2283 45.7249 13.2283C45.7954 13.2283 45.8659 13.2283 45.9364 13.2283C50.1947 13.2585 54.3323 14.0941 58.1578 15.6746C62.0437 17.2853 65.6176 19.6612 68.688 22.7216" fill="white"/>
<path d="M78 13.3691C69.3725 4.75168 57.9061 0.0100671 45.7047 0C20.5168 0.0100671 0.0100671 20.5168 0 45.7148C0.0100671 70.9027 20.5168 91.4094 45.7047 91.4195C57.896 91.4195 69.3624 86.6678 78 78.0504L74.9497 75C67.1376 82.802 56.7483 87.1007 45.7047 87.1108C22.8926 87.1108 4.31879 68.5369 4.30873 45.7248C4.31879 22.9027 22.8926 4.33893 45.7047 4.32886C56.7483 4.32886 67.1376 8.62752 74.9497 16.4396L78 13.3893V13.3691Z" fill="white"/>
</svg>
