<svg width="143" height="143" viewBox="0 0 143 143" fill="none" xmlns="http://www.w3.org/2000/svg">
<path d="M143 71.5C143 110.987 110.987 143 71.5 143C32.0129 143 0 110.987 0 71.5C0 32.0129 32.0066 0 71.4936 0C110.981 0 142.994 32.0129 142.994 71.5" fill="#FF8500"/>
<path d="M70.8264 46.3575C77.5315 46.3575 83.8362 48.9696 88.5838 53.7045L91.8251 50.4504C86.2449 44.883 78.8344 41.8005 70.9598 41.7624H70.9471H70.6802C54.3909 41.845 41.1396 55.1091 41.0824 71.4111V71.4238V71.5826C41.1396 87.9228 54.4672 101.219 70.82 101.225H70.8327C78.7517 101.219 86.2068 98.1362 91.8188 92.5369L88.5774 89.2892C83.8298 94.0241 77.5251 96.6299 70.82 96.6362C56.9649 96.6299 45.6838 85.3488 45.6711 71.4937C45.6838 57.6386 56.9649 46.3575 70.82 46.3511" fill="#EDDECC"/>
<path d="M95.2828 47.0053L98.5242 43.7576C96.6747 41.9145 94.6727 40.2748 92.5436 38.8511C86.1626 34.5929 78.6758 32.2986 70.833 32.2986H70.8203C70.458 32.2986 70.1021 32.3176 69.7399 32.324C69.4284 32.3303 69.117 32.3303 68.812 32.3494C68.4116 32.3685 68.0175 32.4066 67.6171 32.4384C67.3502 32.4638 67.0896 32.4702 66.8227 32.5019C66.3651 32.5464 65.9138 32.6163 65.4626 32.6735C65.2656 32.699 65.0622 32.718 64.8652 32.7498C64.3122 32.8324 63.772 32.9341 63.2254 33.0422C63.1301 33.0612 63.0348 33.0739 62.9394 33.093C62.342 33.2138 61.7573 33.3536 61.1662 33.5061C61.1281 33.5188 61.0836 33.5252 61.0455 33.5379C44.1524 37.8978 31.632 53.2655 31.6193 71.4996V71.5187C31.6193 71.8682 31.6383 72.2178 31.6447 72.561C31.651 72.8788 31.6511 73.2029 31.6701 73.5207C31.6892 73.8575 31.721 74.1944 31.7464 74.5312C31.7718 74.8553 31.7909 75.1858 31.8226 75.51C31.8544 75.8214 31.8989 76.1264 31.9434 76.4379C31.9879 76.7811 32.026 77.1306 32.0769 77.4738C32.1214 77.7662 32.1849 78.0522 32.2358 78.3445C32.2993 78.6941 32.3502 79.05 32.4264 79.3996C32.4773 79.6474 32.5408 79.8889 32.598 80.1368C32.687 80.5245 32.7696 80.9122 32.865 81.2999C32.9095 81.4587 32.9603 81.6176 33.0048 81.7829C33.1319 82.2468 33.259 82.7044 33.3988 83.162C33.4433 83.3082 33.4942 83.4417 33.5387 83.5815C33.6912 84.0518 33.8437 84.5221 34.0153 84.9797C34.0598 85.0941 34.1043 85.2085 34.1488 85.3229C34.3331 85.8059 34.5174 86.289 34.7208 86.7593C34.7589 86.8546 34.8098 86.9436 34.8479 87.0389C35.0576 87.5283 35.2801 88.0177 35.5089 88.4943C35.5597 88.6024 35.6233 88.7104 35.6805 88.8248C35.9093 89.2824 36.1381 89.74 36.3796 90.1849C36.3986 90.2167 36.4177 90.2421 36.4304 90.2739C36.7164 90.7951 37.0151 91.3162 37.3265 91.8247C37.3837 91.9136 37.441 92.0026 37.4982 92.0916C37.7714 92.5365 38.0511 92.9814 38.3435 93.4135C38.3689 93.4517 38.4007 93.4962 38.4324 93.5343C38.7566 94.011 39.0934 94.4813 39.4366 94.9452C39.4811 95.0024 39.5256 95.0533 39.5701 95.1105C39.9069 95.5554 40.2501 95.9939 40.606 96.4261C40.6696 96.5023 40.7395 96.5723 40.803 96.6485C41.1399 97.0553 41.4831 97.4557 41.839 97.8434C41.9598 97.9705 42.0805 98.0912 42.2013 98.2183C42.5127 98.5488 42.8178 98.8793 43.1419 99.2035C43.269 99.3306 43.4025 99.4513 43.5296 99.5721C43.8537 99.8835 44.1715 100.201 44.502 100.5C44.6736 100.653 44.8515 100.799 45.0231 100.951C45.3219 101.212 45.6142 101.479 45.9256 101.733C46.2053 101.962 46.4976 102.184 46.7836 102.407C46.9933 102.566 47.1904 102.737 47.4065 102.896C47.7433 103.15 48.0929 103.392 48.4361 103.633C48.6077 103.748 48.7729 103.875 48.9381 103.989C49.3894 104.294 49.8533 104.587 50.3173 104.873C50.3872 104.917 50.4571 104.968 50.527 105.006C56.4568 108.61 63.4097 110.694 70.833 110.694H70.8458C71.297 110.694 71.7419 110.675 72.1931 110.663C72.3901 110.656 72.5935 110.663 72.7905 110.65C79.2351 110.332 85.3936 108.463 90.8339 105.222C90.8657 105.203 90.8975 105.184 90.9293 105.171C91.425 104.873 91.9144 104.561 92.3974 104.243C92.4483 104.212 92.4991 104.18 92.5436 104.148C93.5732 103.462 94.571 102.718 95.5434 101.93C95.5752 101.905 95.6069 101.879 95.6387 101.854C96.0264 101.536 96.4077 101.199 96.7891 100.862C96.8908 100.767 97.0052 100.678 97.1069 100.589C97.5899 100.15 98.0602 99.7055 98.5242 99.2416L95.2828 95.9939C88.7493 102.515 80.0676 106.112 70.833 106.112C70.7123 106.112 70.5979 106.106 70.4771 106.099C51.563 105.896 36.227 90.4519 36.2143 71.4996C36.2143 71.417 36.2143 71.3344 36.2143 71.2581C36.3605 52.2931 51.8299 36.9 70.8267 36.8873C70.9029 36.8873 70.9792 36.8873 71.0555 36.8873C75.5933 36.919 79.9914 37.8088 84.0653 39.4994C88.2091 41.2154 92.0097 43.7449 95.2765 47.0053" fill="#EDDECC"/>
<path d="M105.21 37.0722C96.0196 27.9011 83.8106 22.8421 70.8262 22.8421C43.9995 22.8421 22.1681 44.6798 22.1554 71.5065C22.1681 98.327 43.9995 120.158 70.8262 120.165C83.8106 120.165 96.0196 115.106 105.21 105.935L101.968 102.687C93.649 110.994 82.5904 115.576 70.8326 115.576C46.5353 115.57 26.7632 95.7975 26.7505 71.5065C26.7632 47.2093 46.5353 27.4371 70.8326 27.4308C82.5904 27.4308 93.649 32.0131 101.975 40.3198L105.216 37.0722H105.21Z" fill="#EDDECC"/>
<path d="M71.4939 132.329C37.9493 132.329 10.665 105.044 10.665 71.4996C10.665 37.955 37.9557 10.6706 71.4939 10.6706C105.032 10.6706 132.323 37.9614 132.323 71.4996C132.323 105.038 105.032 132.329 71.4939 132.329ZM71.4939 6.0819C35.4198 6.0819 6.07625 35.4318 6.07625 71.506C6.07625 107.58 35.4262 136.924 71.4939 136.924C107.562 136.924 136.918 107.574 136.918 71.506C136.918 35.4382 107.568 6.0819 71.4939 6.0819Z" fill="#EDDECC"/>
</svg>
