<svg width="143" height="143" viewBox="0 0 143 143" fill="none" xmlns="http://www.w3.org/2000/svg">
<path d="M143 71.5C143 110.987 110.987 143 71.5 143C32.0129 143 0 110.987 0 71.5C0 32.0129 32.0129 0 71.5 0C110.987 0 143 32.0129 143 71.5Z" fill="#00C168"/>
<path d="M83.69 131.102V96.1147C83.69 95.6507 83.6646 95.1867 83.6519 94.7228C84.3764 80.855 95.8863 69.7963 109.932 69.7963H121.811V65.2076H109.932C97.5769 65.2076 86.8996 72.4974 81.9549 82.9968C81.3385 80.7088 80.5758 78.478 79.6606 76.3298C86.1305 66.466 97.2782 59.9325 109.932 59.9325H121.811V55.3438H109.932C96.6299 55.3438 84.8022 61.7502 77.3535 71.6331C76.4447 69.9997 75.4468 68.4235 74.3728 66.9045C82.8256 56.634 95.6257 50.075 109.932 50.075H121.811V45.4863H109.932C94.5643 45.4863 80.7855 52.3757 71.4937 63.2183C62.2019 52.3757 48.4231 45.4863 33.0553 45.4863H21.1768V50.075H33.0553C47.3617 50.075 60.1681 56.634 68.6146 66.9045C67.5405 68.4235 66.5364 69.9997 65.6339 71.6331C58.1852 61.7502 46.3575 55.3438 33.0553 55.3438H21.1768V59.9325H33.0553C45.7092 59.9325 56.8569 66.466 63.3268 76.3298C62.4116 78.478 61.6489 80.7088 61.0325 82.9968C56.0878 72.4974 45.4105 65.2076 33.0553 65.2076H21.1768V69.7963H33.0553C47.1011 69.7963 58.611 80.855 59.3355 94.7228C59.361 95.1804 59.3737 95.6443 59.3737 96.1147V131.115C31.619 125.477 10.6647 100.894 10.6647 71.4996C10.6647 37.955 37.9554 10.6706 71.4937 10.6706C105.032 10.6706 132.323 37.9614 132.323 71.4996C132.323 100.869 111.407 125.439 83.6837 131.102M71.5001 82.5328C70.6929 80.2639 69.6951 78.0903 68.5193 76.0248C69.4027 74.2198 70.4005 72.4784 71.5001 70.8132C72.5996 72.4784 73.5974 74.2198 74.4808 76.0248C73.305 78.0903 72.3072 80.2639 71.5001 82.5392M71.5001 6.0819C35.4259 6.0819 6.07601 35.4318 6.07601 71.506C6.07601 103.436 29.0768 130.079 59.3737 135.78C60.8863 136.066 62.418 136.301 63.9624 136.479V96.121C63.9624 95.6444 63.9497 95.1677 63.9242 94.691C64.0641 90.1595 64.8585 85.7932 66.2186 81.6812C67.9537 85.6534 68.996 89.9879 69.193 94.5448C69.2184 95.0723 69.2311 95.5935 69.2311 96.121V136.873C69.9811 136.898 70.731 136.93 71.4873 136.93C72.2437 136.93 73.0444 136.898 73.8198 136.873V96.1274C73.8198 95.5998 73.8008 95.0723 73.7817 94.5512C73.9787 89.9943 75.021 85.6598 76.7561 81.6875C78.1162 85.7996 78.917 90.1722 79.0505 94.7037C79.0632 95.1804 79.0886 95.6571 79.0886 96.1337V136.485C80.633 136.307 82.1647 136.072 83.6773 135.786C113.942 130.053 136.905 103.43 136.905 71.525C136.905 35.4509 107.555 6.10097 71.481 6.10097" fill="#EDDECC"/>
</svg>
