<svg width="1440" height="718" viewBox="0 0 1440 718" fill="none" xmlns="http://www.w3.org/2000/svg">
<path d="M374.849 273.185C405.166 287.959 435.595 305.269 465.405 324.553L471.266 328.387L465.405 332.221C435.708 351.449 405.222 368.759 374.849 383.589L372.707 384.661L370.622 383.476C335.121 363.515 298.211 346.43 261.075 332.672L249.523 328.387L261.075 324.158C298.211 310.4 335.121 293.372 370.622 273.355L372.707 272.17L374.849 273.242L374.849 273.185ZM862.287 -391.944C861.949 -304.941 848.537 -218.839 822.447 -135.895L818.727 -123.998L813.938 -135.557C781.085 -215.004 763.841 -299.189 762.601 -385.91C762.601 -387.489 762.658 -388.899 762.714 -390.365C762.714 -390.873 762.714 -391.436 762.771 -392L677.229 -392C677.229 -391.436 677.229 -390.873 677.286 -390.365C677.286 -388.899 677.398 -387.433 677.398 -386.023C676.215 -299.189 658.915 -215.004 626.062 -135.557L621.273 -123.998L617.553 -135.895C591.463 -218.839 578.107 -304.941 577.713 -391.944L492.51 -391.944C490.65 -121.009 270.599 99.0652 -4.14441e-05 100.87L-3.77175e-05 186.125C87.0627 186.463 173.167 199.884 256.06 225.99L267.95 229.711L256.455 234.505C176.943 267.491 92.5288 284.745 5.52241 285.872L1.40875 285.759C0.957938 285.759 0.50714 285.759 0.0563299 285.759L0.0563337 371.297C0.0563337 371.297 0.56348 371.297 0.788885 371.297C2.70483 371.241 4.05724 371.184 5.35332 371.184C92.5287 372.312 176.943 389.622 256.455 422.552L267.95 427.345L256.06 431.066C173.224 457.173 87.119 470.592 -2.52682e-05 470.931L-2.15416e-05 556.186C270.655 557.991 490.65 778.122 492.51 1049L577.713 1049C578.051 960.925 591.745 873.696 618.455 789.794C631.021 750.324 646.518 711.53 664.55 674.484C679.371 643.979 696.783 613.306 716.168 583.308L720 577.388L723.832 583.308C743.104 613.137 760.348 643.585 775.168 673.92L776.239 676.063L775.055 678.149C755.051 713.785 737.976 750.662 724.283 787.708L720 799.266L715.774 787.708C707.885 766.45 698.587 744.572 687.993 722.525C676.553 748.688 666.41 775.528 657.901 802.255L644.771 843.417C665.565 908.092 676.553 975.078 677.455 1042.8L677.568 1046.01C677.568 1047.08 677.624 1047.98 677.624 1048.89L762.432 1048.89C762.432 1048.21 762.433 1047.53 762.489 1046.86L762.602 1042.85C763.785 956.02 781.085 871.722 813.938 792.331L818.728 780.829L822.447 792.726C848.537 875.67 861.949 961.827 862.287 1048.94L947.49 1048.94C949.237 778.347 1169.35 557.991 1440 556.13L1440 470.874C1371.31 470.592 1302.56 462.022 1235.61 445.444L1196.62 461.796C1171.37 472.397 1146.07 485.14 1121.28 499.687C1143.65 507.694 1166.19 514.912 1188.28 521.114L1199.77 524.328L1189.07 529.572C1072.93 586.353 977.694 681.645 920.892 797.913L915.652 808.626L912.44 797.124C901.395 757.428 888.096 719.199 872.994 683.393L870.458 677.642C867.302 670.312 863.977 663.038 860.878 656.384L858.85 652.043L851.749 637.326C850.51 634.676 849.213 632.138 848.03 629.657L846.002 625.767C845.043 623.794 844.029 621.82 843.015 619.846L840.874 615.73L839.239 612.629C835.238 604.904 831.632 598.194 828.138 591.936L826.053 588.214C810.669 560.867 793.595 533.632 775.224 507.469L773.252 504.649L775.45 501.999C810.782 459.146 850.397 419.563 893.167 384.209L895.816 382.01L898.634 383.984C924.837 402.366 951.942 419.507 979.385 434.844L985.414 438.227L979.948 442.4C935.149 476.57 893.9 515.927 857.328 559.344L863.02 569.493C876.318 593.288 888.772 617.816 899.986 642.457C947.715 579.305 1005.25 525.4 1071.07 482.152C1097.38 464.954 1124.55 449.617 1152.16 436.479C1161.62 431.968 1171.2 427.683 1180.56 423.736C1260.63 390.073 1345.78 372.368 1433.58 371.184C1435.21 371.184 1436.68 371.241 1438.14 371.297C1438.7 371.297 1439.32 371.297 1439.89 371.354L1439.89 285.759C1439.27 285.759 1438.65 285.759 1438.03 285.816L1433.75 285.929C1345.78 284.688 1260.63 267.039 1180.56 233.377C1143.09 217.645 1106.34 198.079 1071.35 175.13C1005.25 131.826 947.659 77.9209 899.93 14.6558C888.716 39.2401 876.262 63.7677 862.907 87.6189L857.215 97.7687C894.125 141.581 935.206 180.712 979.836 214.77L985.302 218.942L979.272 222.325C964.508 230.614 949.237 239.918 931.655 251.251C951.829 266.814 973.186 281.756 995.107 295.683L1008.24 304.028C1028.19 292.3 1046.61 282.376 1064.98 273.41L1067.12 272.339L1069.21 273.523C1104.71 293.484 1141.56 310.569 1178.7 324.327L1190.25 328.613L1178.7 332.898C1141.56 346.6 1104.71 363.685 1069.21 383.702L1067.12 384.886L1064.98 383.815C1003.17 354.325 905.452 288.861 857.441 242.793C772.688 161.541 715.943 79.2738 686.133 24.1283C671.538 48.0923 656.041 70.9853 639.981 92.1301L632.937 101.433C644.489 120.21 654.407 135.434 664.438 149.756L666.41 152.576L664.212 155.226C637.445 187.704 607.748 218.716 575.853 247.53C599.577 264.671 621.949 282.263 642.404 299.856L643.531 300.815C669.171 276.907 693.684 251.477 716.337 225.201L719.775 221.198L723.212 225.201C753.923 260.78 787.509 294.443 823.123 325.173L827.124 328.613L823.123 332.052C787.283 362.952 753.36 396.952 722.367 432.983L721.747 433.716C702.024 456.665 683.259 480.855 665.79 505.608L665.001 506.736C646.405 533.237 629.105 560.641 613.722 588.157L611.017 596.277L606.171 588.721C572.022 543.894 532.688 502.62 489.242 466.025L479.098 471.72C455.149 485.14 430.636 497.545 406.18 508.766C469.237 556.469 523.109 613.982 566.274 679.785L567.57 681.814L566.612 684.07C551.566 719.819 538.38 757.935 527.391 797.236L524.179 808.739L518.939 798.026C462.193 681.814 366.903 586.466 250.707 529.629L240 524.385L251.496 521.171C291.111 510.119 329.373 496.869 365.156 481.701C396.149 468.619 427.65 453.113 458.868 435.689C487.044 419.901 514.487 402.591 541.085 383.984L543.902 382.01L546.551 384.209C578.896 410.936 609.89 440.652 638.798 472.679C655.929 448.941 673.51 426.555 691.092 406.143L692.106 405.016C667.931 379.022 642.179 354.212 615.525 331.263L614.792 330.642C591.801 310.907 567.739 292.131 543.057 274.708L541.817 273.862C514.431 254.634 486.762 237.267 458.925 221.649C428.27 204.507 397.502 189.339 367.128 176.427L365.382 175.694C328.979 160.357 290.885 147.106 251.496 136.167L240 132.953L250.707 127.709C366.903 70.9286 462.137 -24.3635 518.939 -140.631L524.179 -151.345L527.391 -139.842C538.38 -100.485 551.566 -62.4242 566.612 -26.6756L567.57 -24.4199L566.217 -22.3902C523.052 43.4687 469.237 100.982 406.18 148.685C430.805 159.962 455.318 172.424 479.098 185.674L489.242 191.369C533.59 153.929 573.036 112.373 607.185 67.3201C627.978 39.9165 647.251 10.4829 664.55 -20.2475C684.668 -55.9962 701.855 -93.0419 715.605 -130.369L719.831 -141.928L724.114 -130.369C737.807 -93.2675 754.881 -56.3907 774.886 -20.7548L776.07 -18.6685L775.055 -16.5258C765.814 2.41989 755.614 21.309 743.949 41.1569L751.67 53.0543C765.983 75.1012 781.31 96.5281 797.258 116.714C808.979 98.558 818.446 82.8824 826.898 67.771C843.973 37.1533 859.188 6.31002 872.092 -24.0256L872.599 -25.2095L873.163 -26.5063C888.209 -62.1985 901.395 -100.315 912.383 -139.729L915.595 -151.232L920.836 -140.519C977.582 -24.307 1072.87 71.0415 1189.01 127.822L1199.72 133.066L1188.22 136.28C1166.19 142.426 1143.65 149.644 1121.22 157.707C1145.96 172.255 1171.26 184.998 1196.56 195.598L1235.5 211.95C1302.67 195.316 1371.36 186.802 1439.89 186.52L1439.89 101.265C1169.35 99.4038 949.293 -120.84 947.377 -391.606L862.174 -391.606L862.287 -391.944Z" fill="#0BBB70"/>
</svg>
