<svg width="369" height="734" viewBox="0 0 369 734" fill="none" xmlns="http://www.w3.org/2000/svg">
<path d="M198.165 95.794C194.389 103.536 189.97 111.326 185.042 118.946L184.067 120.447L183.092 118.946C178.176 111.345 173.757 103.56 169.969 95.794L169.699 95.2484L169.999 94.7213C175.105 85.6372 179.47 76.2159 182.976 66.7211L184.067 63.7728L185.152 66.7211C188.658 76.222 193.022 85.6433 198.128 94.7213L198.429 95.2484L198.159 95.794H198.165ZM368.103 220.397C345.883 220.305 323.884 216.885 302.694 210.216L299.654 209.26L302.602 208.04C322.897 199.642 344.412 195.229 366.552 194.922C366.951 194.922 367.319 194.941 367.692 194.953H367.699C367.833 194.959 367.974 194.965 368.115 194.972L368.103 173.113C367.968 173.113 367.833 173.119 367.692 173.126C367.325 173.138 366.951 173.15 366.589 173.156C344.406 172.85 322.891 168.436 302.596 160.033L299.647 158.813L302.688 157.857C323.872 151.194 345.883 147.767 368.103 147.681L368.091 125.903C298.887 125.425 242.666 69.1791 242.194 0H220.422C220.336 22.2506 216.91 44.2621 210.24 65.4461L209.284 68.4864L208.064 65.5442C199.642 45.2183 195.229 23.6359 194.941 1.39756L194.972 0.34326C194.972 0.226797 194.984 0.116463 194.984 0H173.132C173.132 0.0612964 173.132 0.122593 173.132 0.183889C173.15 0.67426 173.162 1.01752 173.168 1.36078C172.88 23.642 168.467 45.2245 160.045 65.5442L158.825 68.4864L157.869 65.4461C151.2 44.2682 147.773 22.2567 147.688 0H125.915C125.443 69.1852 69.2098 125.431 0.0122712 125.903V147.675C22.508 147.755 44.8016 151.261 66.2246 158.096C76.3018 161.308 86.2134 165.273 95.6775 169.877C103.468 173.671 111.302 178.109 118.964 183.068L120.472 184.042L118.964 185.017C111.351 189.939 103.56 194.359 95.8124 198.141L95.2607 198.41L94.7336 198.11C85.6311 192.998 76.2098 188.627 66.7334 185.127L63.7912 184.042L66.7334 182.951C72.1642 180.941 77.7606 178.556 83.3815 175.847C76.6941 172.923 69.8473 170.33 63.0127 168.154L52.4942 164.801C35.9749 170.116 18.8609 172.917 1.55082 173.156L0.729428 173.181C0.459724 173.193 0.220667 173.199 0 173.205V194.886C0.17163 194.886 0.349412 194.898 0.521042 194.904L1.55082 194.935C23.7401 195.235 45.2735 199.655 65.5565 208.058L68.5048 209.278L65.4646 210.234C44.2805 216.903 22.2629 220.324 0.00613562 220.41V242.188C69.1362 242.629 125.431 298.906 125.903 368.085H147.675C147.749 350.523 149.937 332.956 154.173 315.842L149.992 305.875C147.283 299.427 144.034 292.96 140.314 286.622C138.26 292.341 136.421 298.097 134.84 303.754L134.018 306.69L132.682 303.95C118.173 274.258 93.8325 249.911 64.1283 235.396L61.3883 234.054L64.3306 233.239C74.469 230.413 84.2458 227.023 93.3912 223.156L94.8623 222.512C96.738 221.703 98.6014 220.851 100.293 220.066L101.403 219.551V219.564L105.166 217.749V217.762C105.859 217.424 106.502 217.106 107.14 216.793L108.127 216.272C108.636 216.021 109.138 215.769 109.635 215.512L110.677 214.973V214.991L111.486 214.556C113.453 213.526 115.176 212.606 116.77 211.724L117.726 211.184C124.72 207.255 131.665 202.885 138.358 198.19L139.082 197.681L139.762 198.245C150.703 207.28 160.829 217.4 169.852 228.335L170.416 229.016L169.907 229.739C165.212 236.432 160.836 243.371 156.907 250.377L156.042 251.916L154.976 250.512C146.247 239.056 136.194 228.513 125.094 219.171L122.501 220.618C116.414 224.02 110.156 227.195 103.867 230.076C120.006 242.268 133.773 256.979 144.813 273.817C149.214 280.541 153.125 287.492 156.484 294.547C157.642 296.975 158.733 299.414 159.732 301.805C168.332 322.278 172.844 344.038 173.162 366.485C173.162 366.896 173.144 367.276 173.132 367.65C173.126 367.797 173.119 367.944 173.113 368.091H194.978C194.978 367.932 194.965 367.778 194.959 367.619L194.929 366.522C195.241 344.038 199.759 322.278 208.359 301.799C212.38 292.212 217.382 282.821 223.235 273.891C234.299 257.003 248.079 242.274 264.23 230.07C257.947 227.195 251.683 224.014 245.59 220.612L242.997 219.159C231.811 228.599 221.807 239.099 213.109 250.506L212.043 251.91L211.178 250.371C209.051 246.589 206.685 242.697 203.786 238.192C199.808 243.353 195.995 248.808 192.44 254.411L190.313 257.77C193.31 262.876 195.848 267.583 198.134 272.285L198.404 272.83L198.104 273.363C192.998 282.441 188.634 291.863 185.127 301.358L184.042 304.306L182.951 301.358C179.445 291.863 175.081 282.448 169.975 273.363L169.675 272.836L169.944 272.291C177.484 256.489 194.205 231.504 205.962 219.233C226.723 197.57 247.729 183.056 261.828 175.443C255.704 171.716 249.863 167.75 244.462 163.649L242.084 161.847C237.284 164.801 233.392 167.339 229.733 169.901L229.009 170.41L228.329 169.846C220.036 163.005 212.11 155.411 204.748 147.252C200.366 153.321 195.879 159.04 191.386 164.262L191.134 164.556C197.24 171.115 203.743 177.379 210.461 183.172L211.479 184.048L210.461 184.925C201.371 192.765 192.771 201.359 184.919 210.461L184.042 211.479L183.166 210.461C175.265 201.297 166.585 192.63 157.378 184.704L157.188 184.545C151.329 179.513 145.15 174.701 138.824 170.238L138.536 170.03C131.763 165.273 124.763 160.86 117.738 156.913L115.66 156.22L117.597 154.976C129.053 146.247 139.596 136.194 148.944 125.088L147.491 122.495C144.071 116.371 140.89 110.107 138.033 103.854C125.848 119.982 111.155 133.743 94.3352 144.776L93.8202 145.113L93.2502 144.874C84.1109 141.025 74.3893 137.653 64.3367 134.852L61.3945 134.037L64.1405 132.694C93.8386 118.186 118.186 93.8325 132.701 64.1221L134.043 61.3761L134.858 64.3183C137.678 74.4506 141.074 84.2274 144.941 93.3789C148.282 101.298 152.242 109.359 156.698 117.334C160.731 124.53 165.151 131.554 169.914 138.346L170.422 139.069L169.858 139.75C163.036 148.018 155.435 155.944 147.252 163.33C153.321 167.713 159.04 172.2 164.256 176.693L164.55 176.944C171.189 170.766 177.527 164.182 183.387 157.36L183.546 157.17C188.584 151.298 193.39 145.138 197.834 138.83L198.055 138.518C202.965 131.518 207.409 124.444 211.393 117.327C215.769 109.5 219.643 101.629 222.947 93.8693L223.137 93.4218C227.066 84.1109 230.432 74.3832 233.239 64.3122L234.054 61.3699L235.397 64.116C249.905 93.8141 274.252 118.167 303.957 132.682L306.696 134.025L303.754 134.84C293.702 137.641 283.974 141.012 274.847 144.862L274.277 145.101L273.762 144.764C256.942 133.73 242.243 119.969 230.064 103.848C227.183 110.15 224.002 116.414 220.606 122.489L219.159 125.081C228.721 136.415 239.338 146.504 250.849 155.233C257.849 160.541 265.377 165.482 273.223 169.901C282.356 175.038 291.82 179.427 301.358 182.951L304.306 184.042L301.358 185.127C291.875 188.627 282.454 192.998 273.363 198.104L272.83 198.404L272.285 198.134C267.448 195.775 262.624 193.169 257.549 190.184L254.503 192.164C248.863 195.83 243.402 199.747 238.247 203.823C242.893 206.814 246.89 209.235 250.745 211.393C258.56 215.763 266.455 219.649 274.203 222.947L274.51 223.076L274.841 223.211C283.962 227.054 293.696 230.425 303.76 233.233L306.696 234.054L303.957 235.39C274.258 249.899 249.912 274.252 235.397 303.944L234.06 306.684L233.239 303.748C231.664 298.115 229.831 292.359 227.771 286.616C224.063 292.929 220.808 299.402 218.093 305.869L213.912 315.83C218.16 333.005 220.342 350.554 220.41 368.079H242.182C242.66 298.918 298.93 242.672 368.091 242.182L368.079 220.403L368.103 220.397Z" fill="#6126FF"/>
<path d="M198.165 461.691C194.389 469.433 189.97 477.223 185.042 484.843L184.067 486.344L183.092 484.843C178.176 477.242 173.757 469.451 169.969 461.691L169.699 461.145L169.999 460.618C175.105 451.534 179.47 442.113 182.976 432.618L184.067 429.67L185.152 432.618C188.658 442.119 193.022 451.54 198.128 460.618L198.429 461.145L198.159 461.691H198.165ZM368.103 586.3C345.883 586.208 323.884 582.788 302.694 576.119L299.654 575.163L302.602 573.943C322.897 565.545 344.412 561.132 366.552 560.826C366.951 560.826 367.319 560.844 367.692 560.856H367.699C367.833 560.862 367.974 560.868 368.115 560.875L368.103 539.016C367.968 539.016 367.833 539.022 367.692 539.035C367.325 539.047 366.951 539.059 366.589 539.065C344.406 538.759 322.891 534.345 302.596 525.942L299.647 524.722L302.688 523.766C323.872 517.103 345.883 513.676 368.103 513.591L368.091 491.812C298.887 491.334 242.666 435.088 242.194 365.909H220.422C220.336 388.16 216.91 410.171 210.24 431.355L209.284 434.396L208.064 431.453C199.642 411.128 195.229 389.545 194.941 367.307L194.972 366.252C194.972 366.136 194.984 366.026 194.984 365.909H173.132C173.132 365.97 173.132 366.032 173.132 366.093C173.15 366.583 173.162 366.927 173.168 367.27C172.88 389.551 168.467 411.134 160.045 431.453L158.825 434.396L157.869 431.355C151.2 410.177 147.773 388.166 147.688 365.909H125.915C125.443 435.094 69.2098 491.34 0.0122712 491.812V513.584C22.508 513.664 44.8016 517.17 66.2246 524.005C76.3018 527.217 86.2134 531.183 95.6775 535.786C103.468 539.58 111.302 544.018 118.964 548.977L120.472 549.952L118.964 550.926C111.351 555.848 103.56 560.268 95.8124 564.05L95.2607 564.319L94.7336 564.019C85.6311 558.907 76.2098 554.537 66.7334 551.036L63.7912 549.952L66.7334 548.86C72.1642 546.85 77.7606 544.466 83.3815 541.756C76.6941 538.826 69.8473 536.24 63.0127 534.064L52.4942 530.711C35.9749 536.025 18.8609 538.832 1.55082 539.065L0.729428 539.09C0.459724 539.102 0.220667 539.108 0 539.114V560.795C0.17163 560.795 0.349412 560.807 0.521042 560.813L1.55082 560.844C23.7401 561.15 45.2735 565.564 65.5565 573.967L68.5048 575.187L65.4646 576.144C44.2805 582.813 22.2629 586.233 0.00613562 586.319V608.097C69.1362 608.539 125.431 664.815 125.903 733.994H147.675C147.749 716.433 149.937 698.865 154.173 681.751L149.992 671.784C147.283 665.336 144.034 658.869 140.314 652.531C138.26 658.25 136.421 664.006 134.84 669.663L134.018 672.6L132.682 669.86C118.173 640.168 93.8325 615.821 64.1283 601.306L61.3883 599.963L64.3306 599.148C74.469 596.322 84.2458 592.933 93.3912 589.065L94.8623 588.421C96.738 587.612 98.6014 586.76 100.293 585.975L101.403 585.461L105.16 583.652V583.665C105.853 583.327 106.496 583.009 107.134 582.696L108.121 582.175C108.629 581.924 109.132 581.672 109.629 581.415L110.671 580.876V580.894L111.48 580.459C113.447 579.429 115.17 578.51 116.764 577.627L117.72 577.087C124.714 573.158 131.659 568.788 138.352 564.093L139.075 563.584L139.756 564.148C150.697 573.183 160.823 583.303 169.846 594.238L170.41 594.919L169.901 595.642C165.206 602.335 160.829 609.274 156.9 616.28L156.036 617.819L154.97 616.415C146.241 604.959 136.188 594.416 125.088 585.074L122.495 586.521C116.408 589.923 110.15 593.098 103.861 595.979C120 608.171 133.767 622.882 144.807 639.72C149.208 646.444 153.118 653.395 156.477 660.451C157.636 662.878 158.727 665.317 159.726 667.714C168.326 688.187 172.837 709.947 173.156 732.394C173.156 732.805 173.138 733.185 173.126 733.559C173.119 733.706 173.113 733.853 173.107 734H194.972C194.972 733.841 194.959 733.687 194.953 733.528L194.923 732.431C195.235 709.947 199.753 688.187 208.353 667.708C212.374 658.121 217.375 648.731 223.229 639.8C234.293 622.913 248.073 608.189 264.224 595.979C257.941 593.104 251.677 589.923 245.584 586.521L242.991 585.068C231.805 594.508 221.801 605.008 213.103 616.415L212.036 617.819L211.172 616.28C209.045 612.498 206.679 608.606 203.78 604.101C199.802 609.262 195.989 614.717 192.434 620.32L190.307 623.679C193.304 628.785 195.842 633.492 198.128 638.194L198.398 638.739L198.098 639.267C192.992 648.345 188.627 657.766 185.121 667.261L184.036 670.209L182.945 667.261C179.439 657.766 175.075 648.351 169.969 639.267L169.668 638.739L169.938 638.194C177.478 622.392 194.199 597.407 205.956 585.136C226.717 563.474 247.723 548.959 261.821 541.346C255.698 537.619 249.856 533.653 244.456 529.552L242.078 527.75C237.278 530.704 233.386 533.242 229.727 535.804L229.003 536.313L228.323 535.749C220.029 528.909 212.104 521.314 204.742 513.155C200.36 519.224 195.873 524.943 191.38 530.159L191.128 530.453C197.233 537.012 203.737 543.276 210.455 549.063L211.473 549.939L210.455 550.822C201.365 558.662 192.765 567.256 184.913 576.358L184.036 577.376L183.16 576.358C175.259 567.194 166.579 558.527 157.372 550.601L157.182 550.442C151.322 545.41 145.144 540.598 138.818 536.135L138.53 535.927C131.757 531.17 124.757 526.757 117.732 522.81L115.654 522.117L117.591 520.879C129.047 512.15 139.59 502.097 148.938 490.991L147.485 488.398C144.065 482.274 140.884 476.01 138.027 469.758C125.842 485.885 111.149 499.646 94.329 510.679L93.8141 511.016L93.2441 510.777C84.1048 506.928 74.3832 503.556 64.3306 500.755L61.3883 499.94L64.1344 498.597C93.8325 484.089 118.179 459.736 132.694 430.025L134.037 427.279L134.852 430.221C137.672 440.354 141.068 450.13 144.935 459.282C148.276 467.201 152.236 475.262 156.692 483.237C160.725 490.433 165.145 497.457 169.907 504.249L170.416 504.972L169.852 505.653C163.03 513.915 155.429 521.847 147.246 529.233C153.315 533.616 159.033 538.103 164.25 542.596L164.544 542.847C171.182 536.669 177.52 530.085 183.38 523.263L183.54 523.073C188.578 517.201 193.384 511.041 197.828 504.733L198.049 504.421C202.958 497.421 207.402 490.347 211.387 483.23C215.763 475.403 219.637 467.532 222.941 459.772L223.131 459.325C227.06 450.014 230.425 440.286 233.233 430.215L234.048 427.273L235.39 430.019C249.899 459.717 274.246 484.07 303.95 498.591L306.69 499.934L303.748 500.749C293.696 503.55 283.968 506.921 274.841 510.771L274.271 511.01L273.756 510.673C256.936 499.639 242.237 485.878 230.058 469.758C227.177 476.059 223.995 482.323 220.6 488.398L219.153 490.991C228.715 502.324 239.332 512.414 250.843 521.142C257.843 526.451 265.37 531.391 273.216 535.811C282.35 540.947 291.814 545.342 301.351 548.86L304.3 549.952L301.351 551.036C291.869 554.537 282.448 558.907 273.357 564.013L272.824 564.313L272.279 564.044C267.442 561.684 262.618 559.079 257.543 556.093L254.497 558.073C248.857 561.739 243.396 565.656 238.241 569.732C242.887 572.723 246.883 575.144 250.739 577.302C258.554 581.672 266.449 585.559 274.197 588.856L274.504 588.985L274.835 589.12C283.956 592.963 293.689 596.335 303.754 599.142L306.69 599.963L303.95 601.3C274.252 615.808 249.905 640.155 235.39 669.853L234.054 672.593L233.233 669.657C231.657 664.024 229.825 658.268 227.765 652.525C224.057 658.839 220.802 665.311 218.086 671.778L213.906 681.739C218.154 698.914 220.336 716.463 220.403 733.988H242.176C242.654 664.827 298.924 608.582 368.085 608.091L368.073 586.313L368.103 586.3Z" fill="#6126FF"/>
</svg>
