<svg width="467" height="698" viewBox="0 0 467 698" fill="none" xmlns="http://www.w3.org/2000/svg">
<path d="M467 0H0V697.399H467V0Z" fill="#6126FF"/>
<mask id="mask0_29_1700" style="mask-type:luminance" maskUnits="userSpaceOnUse" x="0" y="0" width="467" height="697">
<path d="M467 0H0.500107V696.579H467V0Z" fill="white"/>
</mask>
<g mask="url(#mask0_29_1700)">
<path d="M270.188 119.056C260.356 139.2 248.863 159.474 236.041 179.308L233.51 183.219L230.98 179.308C218.177 159.534 206.684 139.26 196.822 119.056L196.122 117.625L196.902 116.245C210.185 92.6099 221.548 68.0946 230.68 43.3693L233.51 35.6977L236.341 43.3693C245.463 68.0946 256.825 92.6099 270.118 116.245L270.898 117.625L270.198 119.056H270.188ZM712.423 443.325C654.59 443.095 597.348 434.183 542.206 416.829L534.285 414.339L541.956 411.158C594.768 389.293 650.76 377.811 708.392 377.021C709.432 377.031 710.392 377.061 711.353 377.101H711.373C711.733 377.121 712.103 377.131 712.453 377.141L712.423 320.249C712.073 320.259 711.713 320.269 711.363 320.289C710.392 320.329 709.432 320.359 708.492 320.369C650.77 319.568 594.778 308.086 541.966 286.211L534.295 283.031L542.216 280.54C597.348 263.196 654.62 254.285 712.463 254.054L712.433 197.382C532.334 196.132 386.033 49.7607 384.813 -130.258H328.15C327.93 -72.3555 319.018 -15.0632 301.665 40.0586L299.174 47.9703L295.994 40.3087C274.069 -12.5827 262.586 -68.7547 261.836 -126.617L261.906 -129.368C261.916 -129.668 261.936 -129.968 261.946 -130.258H205.084C205.084 -130.098 205.094 -129.938 205.094 -129.778C205.144 -128.508 205.174 -127.607 205.184 -126.727C204.434 -68.7447 192.941 -12.5727 171.037 40.3087L167.856 47.9703L165.366 40.0586C148.012 -15.0532 139.1 -72.3455 138.88 -130.258H82.2177C80.9975 49.7907 -65.3439 196.162 -245.433 197.382V254.044C-186.89 254.254 -128.878 263.376 -73.1156 281.16C-46.8899 289.522 -21.0944 299.844 3.53085 311.827C23.8052 321.699 44.1996 333.251 64.1338 346.154L68.0547 348.685L64.1338 351.215C44.3196 364.028 24.0453 375.52 3.88093 385.373L2.45063 386.073L1.07033 385.293C-22.6147 371.99 -47.13 360.617 -71.7953 351.515L-79.4569 348.685L-71.7953 345.854C-57.6523 340.623 -43.0991 334.412 -28.466 327.36C-45.8797 319.749 -63.6936 313.007 -81.4774 307.336L-108.843 298.604C-151.832 312.437 -196.372 319.729 -241.422 320.349L-243.562 320.409C-244.272 320.429 -244.892 320.449 -245.453 320.469V376.891C-245.002 376.901 -244.552 376.921 -244.102 376.931L-241.422 377.011C-183.679 377.801 -127.637 389.293 -74.8559 411.158L-67.1943 414.339L-75.106 416.829C-130.238 434.183 -187.54 443.095 -245.453 443.315V499.987C-65.544 501.127 80.9574 647.589 82.1877 827.627H138.86C139.05 781.918 144.741 736.208 155.763 691.668L144.881 665.733C137.84 648.949 129.378 632.115 119.706 615.632C114.365 630.515 109.574 645.488 105.473 660.212L103.332 667.853L99.8515 660.722C62.1034 583.455 -1.26019 520.092 -78.5467 482.313L-85.6783 478.823L-78.0266 476.692C-51.651 469.341 -26.2055 460.519 -2.40042 450.457L1.43041 448.776C6.31146 446.676 11.1625 444.455 15.5734 442.405L18.464 441.065V441.085L28.2462 436.354L28.2662 436.384C30.0465 435.513 31.7269 434.683 33.3772 433.863L35.9478 432.513C37.2581 431.863 38.5684 431.202 39.8786 430.532L42.5992 429.132L42.6192 429.182L44.6997 428.052C49.8208 425.371 54.3117 422.971 58.4526 420.68L60.9431 419.28C79.1471 409.058 97.2109 397.685 114.635 385.463L116.515 384.142L118.285 385.603C146.772 409.108 173.107 435.453 196.592 463.909L198.053 465.68L196.732 467.56C184.52 484.984 173.127 503.048 162.905 521.272L160.655 525.273L157.874 521.622C135.149 491.805 108.993 464.37 80.1073 440.054L73.3458 443.825C57.5124 452.677 41.2189 460.949 24.8454 468.43C66.8344 500.157 102.682 538.435 131.398 582.255C142.851 599.759 153.033 617.842 161.775 636.196C164.785 642.508 167.626 648.869 170.237 655.09C192.611 708.362 204.364 764.994 205.184 823.416C205.174 824.487 205.144 825.467 205.104 826.447C205.084 826.827 205.074 827.217 205.064 827.607H261.956C261.946 827.197 261.926 826.787 261.906 826.377L261.826 823.526C262.646 765.024 274.399 708.382 296.774 655.1C307.236 630.155 320.259 605.72 335.482 582.465C364.268 538.505 400.126 500.197 442.175 468.42C425.831 460.949 409.528 452.667 393.674 443.805L386.933 440.024C357.817 464.58 331.781 491.915 309.156 521.602L306.376 525.253L304.135 521.252C298.604 511.41 292.453 501.267 284.901 489.555C274.549 502.988 264.627 517.181 255.375 531.764L249.834 540.496C257.635 553.789 264.237 566.031 270.198 578.274L270.898 579.694L270.118 581.075C256.835 604.7 245.473 629.215 236.341 653.93L233.51 661.602L230.68 653.93C221.558 629.225 210.195 604.71 196.912 581.085L196.132 579.704L196.832 578.284C206.704 558.02 218.297 537.595 231.26 517.561L233.75 513.72L234.04 514.14C238.091 507.879 242.322 501.758 245.823 496.706C247.893 493.746 250.514 490.015 253.254 486.214L254.875 483.814C259.816 477.002 264.527 470.821 269.268 464.91L271.818 461.729L272.008 462.009C295.213 434.123 321.179 408.298 349.225 385.203L350.155 384.432C366.019 371.43 383.432 358.747 401.926 346.744C412.709 339.733 424.141 332.851 435.964 326.26C420.02 316.558 404.827 306.246 390.764 295.573L384.573 290.882C372.08 298.564 361.948 305.175 352.436 311.837L350.555 313.157L348.785 311.697C327.21 293.903 306.576 274.129 287.412 252.894C276.019 268.688 264.327 283.561 252.634 297.154L251.984 297.914C267.877 314.987 284.791 331.281 302.275 346.354L304.925 348.645L302.275 350.935C278.61 371.35 256.245 393.704 235.811 417.389L233.52 420.04L231.23 417.389C210.665 393.534 188.09 370.989 164.115 350.365L163.615 349.945C148.362 336.842 132.288 324.33 115.825 312.707L115.065 312.167C97.441 299.784 79.2171 288.302 60.9431 278.04L55.532 276.239L60.5731 273.009C90.3794 250.294 117.825 224.128 142.151 195.232L138.37 188.49C129.468 172.557 121.196 156.244 113.754 139.98C82.0377 181.949 43.7995 217.757 0.0401087 246.473L-1.30017 247.363L-2.7905 246.743C-26.5656 236.721 -51.881 227.949 -78.0266 220.657L-85.6883 218.527L-78.5467 215.036C-1.26019 177.268 62.1034 113.894 99.8815 36.5879L103.372 29.4463L105.503 37.108C112.844 63.4736 121.676 88.9191 131.738 112.744C140.44 133.359 150.732 154.333 162.345 175.088C172.847 193.822 184.34 212.095 196.732 229.769L198.053 231.65L196.592 233.42C178.838 254.935 159.064 275.569 137.77 294.793C153.563 306.196 168.446 317.878 182.019 329.561L182.789 330.221C200.073 314.137 216.557 297.004 231.82 279.26L232.24 278.76C245.353 263.486 257.855 247.443 269.428 231.04L269.998 230.229C282.781 212.005 294.343 193.612 304.705 175.088C316.098 154.713 326.18 134.229 334.772 114.044L335.262 112.874C345.484 88.639 354.256 63.3236 361.558 37.108L363.688 29.4463L367.179 36.5879C404.937 113.874 468.3 177.248 545.597 215.036L552.729 218.527L545.077 220.657C518.921 227.949 493.606 236.721 469.841 246.733L468.351 247.353L467.01 246.473C423.231 217.757 384.993 181.949 353.296 139.99C345.804 156.384 337.522 172.687 328.681 188.5L324.91 195.242C349.795 224.728 377.421 250.994 407.377 273.709C425.591 287.532 445.186 300.374 465.61 311.877C489.385 325.25 514.01 336.672 538.826 345.834L546.497 348.665L538.826 351.495C514.14 360.607 489.625 371.98 465.97 385.263L464.59 386.043L463.159 385.343C450.577 379.201 438.024 372.42 424.811 364.648L416.889 369.799C402.226 379.331 388.003 389.523 374.58 400.136C386.663 407.917 397.065 414.219 407.107 419.84C427.452 431.212 447.986 441.325 468.15 449.906L468.951 450.247L469.821 450.607C493.566 460.609 518.881 469.381 545.087 476.692L552.739 478.823L545.607 482.303C468.33 520.061 404.967 583.435 367.189 660.712L363.708 667.843L361.568 660.202C357.477 645.538 352.706 630.565 347.335 615.612C337.672 632.045 329.211 648.889 322.139 665.723L311.257 691.638C322.319 736.348 327.99 782.008 328.16 827.607H384.833C386.083 647.629 532.504 501.257 712.503 499.967L712.473 443.295L712.423 443.325Z" fill="#2EA67A"/>
</g>
</svg>
