<svg width="467" height="698" viewBox="0 0 467 698" fill="none" xmlns="http://www.w3.org/2000/svg">
<path d="M467 0H0V697.399H467V0Z" fill="#FF2B5E"/>
<mask id="mask0_29_1715" style="mask-type:luminance" maskUnits="userSpaceOnUse" x="0" y="0" width="467" height="697">
<path d="M467 0H0V696.579H467V0Z" fill="white"/>
</mask>
<g mask="url(#mask0_29_1715)">
<path d="M116.725 -93.69C114.105 -88.3089 111.034 -82.9077 107.613 -77.6166L106.933 -76.5763L106.253 -77.6166C102.842 -82.8877 99.7715 -88.2988 97.1409 -93.69L96.9508 -94.0701L97.1609 -94.4402C100.702 -100.742 103.732 -107.293 106.173 -113.884L106.933 -115.935L107.693 -113.884C110.134 -107.293 113.154 -100.742 116.705 -94.4402L116.915 -94.0701L116.725 -93.69ZM234.72 -7.17149C219.287 -7.2315 204.014 -9.61198 189.311 -14.243L187.2 -14.9031L189.251 -15.7533C203.344 -21.5846 218.277 -24.6452 233.65 -24.8653C233.93 -24.8653 234.18 -24.8553 234.44 -24.8453C234.53 -24.8453 234.63 -24.8453 234.73 -24.8353V-40.0185C234.63 -40.0185 234.53 -40.0185 234.44 -40.0085C234.18 -40.0085 233.92 -39.9885 233.67 -39.9885C218.267 -40.1985 203.324 -43.2692 189.241 -49.1005L187.19 -49.9506L189.301 -50.6108C204.014 -55.2418 219.287 -57.6123 234.72 -57.6823V-72.8055C186.66 -73.1356 147.622 -112.194 147.302 -160.224H132.178C132.118 -144.771 129.738 -129.488 125.107 -114.775L124.447 -112.664L123.597 -114.704C117.745 -128.818 114.685 -143.801 114.485 -159.244L114.505 -159.974C114.505 -160.054 114.505 -160.134 114.505 -160.214H99.3313C99.3313 -160.214 99.3313 -160.124 99.3313 -160.084C99.3413 -159.744 99.3513 -159.504 99.3513 -159.274C99.1513 -143.801 96.0907 -128.818 90.2394 -114.704L89.3893 -112.664L88.7291 -114.775C84.0981 -129.478 81.7176 -144.761 81.6576 -160.224H66.5344C66.2143 -112.184 27.1659 -73.1356 -20.8844 -72.8055V-57.6823C-5.26101 -57.6223 10.2123 -55.1918 25.0955 -50.4507C32.097 -48.2203 38.9785 -45.4697 45.5499 -42.269C50.9611 -39.6384 56.4022 -36.5478 61.7233 -33.107L62.7736 -32.4269L61.7233 -31.7467C56.4322 -28.326 51.0311 -25.2654 45.6499 -22.6348L45.2698 -22.4447L44.8997 -22.6548C38.5784 -26.2055 32.0369 -29.2362 25.4655 -31.6667L23.4152 -32.4269L25.4655 -33.177C29.2363 -34.5773 33.1172 -36.2277 37.0281 -38.1081C32.3871 -40.1385 27.626 -41.9389 22.885 -43.4493L15.5834 -45.7797C4.11096 -42.0889 -7.77158 -40.1385 -19.7942 -39.9785L-20.3642 -39.9585C-20.5543 -39.9585 -20.7143 -39.9485 -20.8643 -39.9485V-24.8953C-20.7443 -24.8953 -20.6243 -24.8953 -20.5043 -24.8853L-19.7942 -24.8653C-4.39086 -24.6552 10.5624 -21.5846 24.6454 -15.7533L26.6858 -14.9031L24.5753 -14.243C9.86218 -9.61198 -5.42103 -7.2315 -20.8743 -7.17149V7.95178C27.1259 8.26184 66.2143 47.3302 66.5444 95.3705H81.6576C81.7076 83.1779 83.228 70.9753 86.1686 59.0927L83.2679 52.1712C81.3875 47.6903 79.1271 43.1993 76.5465 38.7984C75.1262 42.7692 73.8459 46.7701 72.7457 50.6909L72.1756 52.7314L71.2454 50.831C61.1732 30.2165 44.2696 13.3129 23.6452 3.23076L21.7448 2.30054L23.7852 1.73044C30.8268 -0.229984 37.6081 -2.59049 43.9595 -5.27106L44.9797 -5.72116C46.28 -6.28128 47.5803 -6.87142 48.7505 -7.42154L49.5207 -7.7816L52.1313 -9.04188C52.6014 -9.26193 53.0515 -9.49198 53.4916 -9.70203L54.1718 -10.0621C54.5218 -10.2321 54.8718 -10.4122 55.2219 -10.5922L55.952 -10.9723L56.5022 -11.2624C57.8725 -11.9725 59.0728 -12.6127 60.173 -13.2328L60.8331 -13.6029C65.6841 -16.3334 70.5152 -19.3641 75.1562 -22.6248L75.6563 -22.9749L76.1264 -22.5848C83.728 -16.3134 90.7496 -9.28192 97.0209 -1.6903L97.411 -1.2202L97.0609 -0.720094C93.8002 3.9309 90.7596 8.74195 88.039 13.613L87.4389 14.6832L86.6986 13.713C80.6373 5.76129 73.6558 -1.56026 65.9442 -8.05165L64.1439 -7.04145C59.923 -4.68095 55.572 -2.47048 51.201 -0.480053C62.4034 7.99176 71.9655 18.204 79.6272 29.8865C82.6878 34.5575 85.3984 39.3785 87.7289 44.2796C88.529 45.9599 89.2892 47.6603 89.9894 49.3206C95.9606 63.5337 99.1014 78.6469 99.3114 94.2302C99.3114 94.5203 99.3014 94.7804 99.2914 95.0404C99.2914 95.1405 99.2914 95.2505 99.2814 95.3505H114.465C114.465 95.2405 114.465 95.1304 114.455 95.0204L114.435 94.2602C114.655 78.6469 117.785 63.5337 123.757 49.3206C126.547 42.6692 130.018 36.1478 134.079 29.9365C141.761 18.204 151.323 7.98178 162.545 -0.490034C158.184 -2.48047 153.833 -4.69095 149.602 -7.06145L147.802 -8.07167C140.03 -1.52027 133.089 5.7713 127.047 13.693L126.307 14.6632L125.707 13.593C124.227 10.9724 122.586 8.26181 120.576 5.14115C117.815 8.72191 115.165 12.5127 112.694 16.4036L111.214 18.7341C113.294 22.2748 115.055 25.5456 116.645 28.8062L116.835 29.1863L116.625 29.5564C113.084 35.8578 110.054 42.3992 107.613 48.9906L106.863 51.041L106.103 48.9906C103.672 42.3992 100.642 35.8578 97.0909 29.5564L96.8808 29.1863L97.071 28.8062C102.302 17.8339 113.914 0.490171 122.086 -8.03166C136.499 -23.0749 151.092 -33.147 160.875 -38.4382C156.624 -41.0287 152.563 -43.7793 148.812 -46.6299L147.162 -47.8802C143.831 -45.8297 141.12 -44.0694 138.59 -42.289L138.09 -41.9389L137.62 -42.329C131.858 -47.08 126.357 -52.3512 121.246 -58.0124C118.205 -53.8015 115.085 -49.8306 111.964 -46.1998L111.784 -45.9998C116.025 -41.4488 120.536 -37.0979 125.207 -33.077L125.917 -32.4669L125.207 -31.8568C118.896 -26.4056 112.924 -20.4443 107.473 -14.123L106.863 -13.4128L106.253 -14.123C100.772 -20.4843 94.7404 -26.5056 88.349 -32.0068L88.219 -32.1168C84.1481 -35.6176 79.8572 -38.9483 75.4662 -42.0489L75.2662 -42.189C70.5652 -45.4897 65.7041 -48.5603 60.8231 -51.2909L59.3828 -51.771L60.7331 -52.6312C68.6848 -58.6925 76.0064 -65.674 82.4978 -73.3857L81.4875 -75.186C79.107 -79.437 76.9066 -83.7879 74.9162 -88.1288C66.4544 -76.9364 56.2521 -67.3744 44.5796 -59.7127L44.2195 -59.4827L43.8194 -59.6527C37.4781 -62.3233 30.7167 -64.6638 23.7452 -66.6142L21.7047 -67.1843L23.6052 -68.1145C44.2196 -78.1867 61.1332 -95.1003 71.2153 -115.725L72.1456 -117.625L72.7156 -115.585C74.6761 -108.553 77.0266 -101.762 79.7171 -95.4104C82.0376 -89.9092 84.7883 -84.318 87.8789 -78.7768C90.6795 -73.7757 93.7502 -68.9047 97.0509 -64.1837L97.401 -63.6836L97.0109 -63.2135C92.2699 -57.4722 86.9988 -51.9711 81.3176 -46.84C85.5285 -43.7993 89.4993 -40.6786 93.12 -37.558L93.3201 -37.3779C97.9311 -41.6689 102.332 -46.2398 106.403 -50.9708L106.513 -51.1009C110.014 -55.1818 113.344 -59.4527 116.435 -63.8336L116.585 -64.0537C119.996 -68.9147 123.076 -73.8257 125.847 -78.7668C128.888 -84.208 131.578 -89.6691 133.869 -95.0603L133.999 -95.3704C136.719 -101.832 139.07 -108.593 141.02 -115.585L141.59 -117.625L142.521 -115.725C152.593 -95.1003 169.496 -78.1967 190.121 -68.1145L192.021 -67.1843L189.981 -66.6142C182.999 -64.6638 176.248 -62.3233 169.906 -59.6527L169.506 -59.4827L169.146 -59.7227C157.464 -67.3844 147.262 -76.9364 138.8 -88.1288C136.799 -83.7579 134.589 -79.4069 132.238 -75.186L131.228 -73.3857C137.87 -65.514 145.241 -58.5125 153.233 -52.4512C158.094 -48.7604 163.315 -45.3396 168.766 -42.269C175.108 -38.6982 181.679 -35.6476 188.3 -33.2071L190.351 -32.4569L188.3 -31.6967C181.719 -29.2662 175.178 -26.2356 168.866 -22.6848L168.496 -22.4748L168.116 -22.6548C164.755 -24.2951 161.405 -26.1055 157.884 -28.176L155.773 -26.8057C151.863 -24.2651 148.062 -21.5445 144.481 -18.7139C147.702 -16.6335 150.482 -14.9532 153.163 -13.4528C158.594 -10.4222 164.065 -7.72158 169.446 -5.43109L169.656 -5.34108L169.886 -5.24105C176.218 -2.57048 182.979 -0.229984 189.971 1.72043L192.011 2.29056L190.111 3.22075C169.496 13.2929 152.583 30.2065 142.511 50.8209L141.58 52.7213L141.01 50.6809C139.92 46.7701 138.64 42.7692 137.209 38.7884C134.629 43.1793 132.378 47.6703 130.488 52.1612L127.587 59.0727C130.538 70.9953 132.048 83.1879 132.098 95.3505H147.222C147.552 47.3302 186.62 8.27182 234.65 7.93175V-7.19148L234.72 -7.17149Z" fill="#FF7300"/>
<path d="M372.17 -93.69C369.549 -88.3089 366.478 -82.9077 363.058 -77.6166L362.378 -76.5763L361.697 -77.6166C358.287 -82.8877 355.216 -88.2988 352.585 -93.69L352.395 -94.0701L352.606 -94.4402C356.146 -100.742 359.177 -107.293 361.617 -113.884L362.378 -115.935L363.128 -113.884C365.568 -107.293 368.589 -100.742 372.14 -94.4402L372.35 -94.0701L372.16 -93.69H372.17ZM490.155 -7.17149C474.722 -7.2315 459.448 -9.61198 444.735 -14.243L442.625 -14.9031L444.675 -15.7533C458.768 -21.5846 473.701 -24.6452 489.085 -24.8653C489.365 -24.8653 489.615 -24.8553 489.875 -24.8453C489.965 -24.8453 490.065 -24.8453 490.165 -24.8353V-40.0185C490.065 -40.0185 489.965 -40.0185 489.875 -40.0085C489.615 -40.0085 489.355 -39.9885 489.105 -39.9885C473.701 -40.1985 458.768 -43.2692 444.675 -49.1005L442.625 -49.9506L444.735 -50.6108C459.448 -55.2418 474.722 -57.6123 490.155 -57.6823V-72.8055C442.095 -73.1356 403.056 -112.194 402.736 -160.224H387.613C387.553 -144.771 385.172 -129.488 380.541 -114.775L379.881 -112.664L379.031 -114.704C373.18 -128.818 370.119 -143.801 369.919 -159.244L369.939 -159.974C369.939 -160.054 369.939 -160.134 369.939 -160.214H354.766C354.766 -160.214 354.766 -160.124 354.766 -160.084C354.776 -159.744 354.786 -159.504 354.786 -159.274C354.586 -143.801 351.515 -128.818 345.674 -114.704L344.824 -112.664L344.164 -114.775C339.533 -129.478 337.152 -144.761 337.092 -160.224H321.969C321.649 -112.184 282.601 -73.1356 234.55 -72.8055V-57.6823C250.174 -57.6223 265.647 -55.1918 280.53 -50.4507C287.532 -48.2203 294.413 -45.4697 300.984 -42.269C306.396 -39.6384 311.837 -36.5478 317.158 -33.107L318.208 -32.4269L317.158 -31.7467C311.867 -28.326 306.466 -25.2654 301.084 -22.6348L300.704 -22.4447L300.334 -22.6548C294.013 -26.2055 287.472 -29.2362 280.9 -31.6667L278.85 -32.4269L280.9 -33.177C284.671 -34.5773 288.552 -36.2277 292.463 -38.1081C287.822 -40.1385 283.061 -41.9389 278.32 -43.4493L271.018 -45.7797C259.546 -42.0889 247.663 -40.1385 235.65 -39.9785L235.08 -39.9585C234.89 -39.9585 234.73 -39.9485 234.57 -39.9485V-24.8953C234.69 -24.8953 234.81 -24.8953 234.93 -24.8853L235.64 -24.8653C251.044 -24.6552 265.997 -21.5846 280.08 -15.7533L282.12 -14.9031L280.01 -14.243C265.297 -9.61198 250.014 -7.2315 234.56 -7.17149V7.95178C282.561 8.26184 321.649 47.3302 321.979 95.3705H337.102C337.152 83.1779 338.673 70.9753 341.613 59.0927L338.713 52.1712C336.832 47.6903 334.572 43.1993 331.991 38.7984C330.571 42.7692 329.29 46.7701 328.19 50.6909L327.62 52.7314L326.69 50.831C316.618 30.2165 299.714 13.3129 279.09 3.23076L277.189 2.30054L279.23 1.73044C286.271 -0.229984 293.053 -2.59049 299.404 -5.27106L300.424 -5.72116C301.725 -6.28128 303.015 -6.87142 304.195 -7.42154L304.965 -7.7816L307.576 -9.04188C308.046 -9.26193 308.496 -9.49198 308.936 -9.70203L309.626 -10.0621C309.976 -10.2321 310.326 -10.4122 310.676 -10.5922L311.407 -10.9723L311.957 -11.2624C313.327 -11.9725 314.517 -12.6127 315.628 -13.2328L316.288 -13.6029C321.139 -16.3334 325.97 -19.3641 330.611 -22.6248L331.111 -22.9749L331.581 -22.5848C339.183 -16.3134 346.204 -9.28192 352.475 -1.6903L352.866 -1.2202L352.515 -0.720094C349.255 3.9309 346.214 8.74195 343.494 13.613L342.893 14.6832L342.153 13.713C336.092 5.76129 329.11 -1.56026 321.409 -8.05165L319.608 -7.04145C315.388 -4.68095 311.037 -2.47048 306.666 -0.480053C317.868 7.99176 327.43 18.204 335.102 29.8865C338.152 34.5575 340.873 39.3785 343.203 44.2796C344.004 45.9599 344.764 47.6603 345.464 49.3206C351.435 63.5337 354.576 78.6469 354.786 94.2302C354.786 94.5203 354.776 94.7804 354.766 95.0404C354.766 95.1405 354.766 95.2505 354.756 95.3505H369.939C369.939 95.2405 369.939 95.1304 369.929 95.0204L369.909 94.2602C370.129 78.6469 373.26 63.5337 379.231 49.3206C382.022 42.6692 385.492 36.1478 389.563 29.9365C397.245 18.204 406.807 7.98178 418.029 -0.490034C413.668 -2.48047 409.318 -4.69095 405.087 -7.06145L403.286 -8.07167C395.515 -1.52027 388.573 5.7713 382.532 13.693L381.792 14.6632L381.192 13.593C379.721 10.9724 378.071 8.26181 376.06 5.14115C373.3 8.72191 370.649 12.5127 368.179 16.4036L366.698 18.7341C368.779 22.2748 370.539 25.5456 372.13 28.8062L372.32 29.1863L372.11 29.5564C368.569 35.8578 365.538 42.3992 363.098 48.9906L362.338 51.041L361.577 48.9906C359.147 42.3992 356.116 35.8578 352.565 29.5564L352.355 29.1863L352.545 28.8062C357.777 17.8339 369.389 0.490171 377.561 -8.03166C391.974 -23.0749 406.567 -33.147 416.349 -38.4382C412.098 -41.0287 408.037 -43.7793 404.287 -46.6299L402.636 -47.8802C399.306 -45.8297 396.605 -44.0694 394.064 -42.289L393.564 -41.9389L393.094 -42.329C387.333 -47.08 381.832 -52.3512 376.721 -58.0124C373.68 -53.8015 370.559 -49.8306 367.439 -46.1998L367.269 -45.9998C371.509 -41.4488 376.02 -37.0979 380.681 -33.077L381.392 -32.4669L380.681 -31.8568C374.37 -26.4056 368.399 -20.4443 362.948 -14.123L362.338 -13.4128L361.727 -14.123C356.246 -20.4843 350.215 -26.5056 343.824 -32.0068L343.694 -32.1168C339.623 -35.6176 335.332 -38.9483 330.941 -42.0489L330.741 -42.189C326.04 -45.4897 321.179 -48.5603 316.298 -51.2909L314.857 -51.771L316.198 -52.6312C324.149 -58.6925 331.471 -65.674 337.962 -73.3857L336.952 -75.186C334.572 -79.437 332.371 -83.7879 330.381 -88.1288C321.919 -76.9364 311.717 -67.3744 300.044 -59.7127L299.684 -59.4827L299.284 -59.6527C292.943 -62.3233 286.181 -64.6638 279.21 -66.6142L277.169 -67.1843L279.07 -68.1145C299.684 -78.1867 316.598 -95.1003 326.68 -115.725L327.61 -117.625L328.18 -115.585C330.141 -108.553 332.491 -101.762 335.182 -95.4104C337.502 -89.9092 340.253 -84.318 343.344 -78.7768C346.144 -73.7757 349.215 -68.9047 352.515 -64.1837L352.866 -63.6836L352.475 -63.2135C347.734 -57.4722 342.463 -51.9711 336.782 -46.84C340.993 -43.7993 344.964 -40.6786 348.585 -37.558L348.785 -37.3779C353.396 -41.6689 357.797 -46.2398 361.868 -50.9708L361.978 -51.1009C365.478 -55.1818 368.809 -59.4527 371.9 -63.8336L372.05 -64.0537C375.46 -68.9147 378.541 -73.8257 381.312 -78.7668C384.352 -84.208 387.043 -89.6691 389.333 -95.0603L389.463 -95.3704C392.184 -101.832 394.534 -108.593 396.475 -115.585L397.045 -117.625L397.975 -115.725C408.047 -95.1003 424.951 -78.1967 445.575 -68.1145L447.476 -67.1843L445.435 -66.6142C438.454 -64.6638 431.702 -62.3233 425.361 -59.6527L424.961 -59.4827L424.601 -59.7227C412.918 -67.3844 402.716 -76.9364 394.254 -88.1288C392.254 -83.7579 390.043 -79.4069 387.693 -75.186L386.683 -73.3857C393.324 -65.514 400.696 -58.5125 408.687 -52.4512C413.549 -48.7604 418.77 -45.3396 424.221 -42.269C430.562 -38.6982 437.134 -35.6476 443.755 -33.2071L445.805 -32.4569L443.755 -31.6967C437.174 -29.2662 430.632 -26.2356 424.311 -22.6848L423.941 -22.4748L423.561 -22.6548C420.2 -24.2951 416.849 -26.1055 413.328 -28.176L411.218 -26.8057C407.307 -24.2651 403.506 -21.5445 399.926 -18.7139C403.146 -16.6335 405.927 -14.9532 408.607 -13.4528C414.039 -10.4222 419.51 -7.72158 424.891 -5.43109L425.101 -5.34108L425.331 -5.24105C431.662 -2.57048 438.424 -0.229984 445.415 1.72043L447.456 2.29056L445.555 3.22075C424.941 13.2929 408.027 30.2065 397.955 50.8209L397.025 52.7213L396.455 50.6809C395.365 46.7701 394.084 42.7692 392.654 38.7884C390.073 43.1793 387.813 47.6703 385.933 52.1612L383.032 59.0727C385.983 70.9953 387.493 83.1879 387.543 95.3505H402.666C402.996 47.3302 442.065 8.27182 490.095 7.93175V-7.19148L490.155 -7.17149Z" fill="#FF7300"/>
<path d="M116.725 160.364C114.105 165.736 111.034 171.147 107.613 176.438L106.933 177.478L106.253 176.438C102.842 171.167 99.7715 165.756 97.1409 160.364L96.9508 159.984L97.1609 159.614C100.702 153.313 103.732 146.771 106.173 140.17L106.933 138.12L107.693 140.17C110.134 146.771 113.154 153.313 116.705 159.614L116.915 159.984L116.725 160.364ZM234.72 246.883C219.287 246.823 204.014 244.442 189.311 239.811L187.2 239.151L189.251 238.301C203.344 232.47 218.277 229.399 233.65 229.189C233.93 229.189 234.18 229.199 234.44 229.209C234.53 229.209 234.63 229.209 234.73 229.219V214.036C234.63 214.036 234.53 214.036 234.44 214.046C234.18 214.046 233.92 214.066 233.67 214.066C218.267 213.856 203.324 210.785 189.241 204.954L187.19 204.104L189.301 203.444C204.014 198.813 219.287 196.442 234.72 196.382V181.259C186.66 180.929 147.622 141.87 147.302 93.8402H132.178C132.118 109.283 129.738 124.577 125.107 139.28L124.447 141.39L123.597 139.34C117.745 125.227 114.685 110.244 114.485 94.8004L114.505 94.0702C114.505 93.9902 114.505 93.9102 114.505 93.8301H99.3313C99.3313 93.8301 99.3313 93.9202 99.3313 93.9602C99.3413 94.3003 99.3513 94.5403 99.3513 94.7703C99.1513 110.244 96.0907 125.227 90.2394 139.34L89.3893 141.39L88.7291 139.28C84.0981 124.577 81.7176 109.283 81.6576 93.8402H66.5344C66.2143 141.88 27.1659 180.929 -20.8844 181.259V196.382C-5.26101 196.442 10.2123 198.873 25.0955 203.614C32.097 205.844 38.9785 208.595 45.5499 211.795C50.9611 214.436 56.4022 217.507 61.7233 220.957L62.7736 221.638L61.7233 222.318C56.4322 225.738 51.0311 228.799 45.6499 231.43L45.2698 231.62L44.8997 231.41C38.5784 227.859 32.0369 224.828 25.4655 222.398L23.4152 221.648L25.4655 220.897C29.2363 219.497 33.1172 217.847 37.0281 215.966C32.3871 213.936 27.626 212.135 22.885 210.625L15.5834 208.295C4.11096 211.985 -7.77158 213.936 -19.7942 214.096L-20.3642 214.116C-20.5543 214.116 -20.7143 214.126 -20.8643 214.126V229.179C-20.7443 229.179 -20.6243 229.179 -20.5043 229.189L-19.7942 229.209C-4.39086 229.419 10.5624 232.49 24.6454 238.321L26.6858 239.171L24.5753 239.831C9.86218 244.462 -5.42103 246.843 -20.8743 246.903V262.026C27.1259 262.336 66.2143 301.405 66.5444 349.445H81.6576C81.7076 337.252 83.228 325.05 86.1686 313.167L83.2679 306.246C81.3875 301.765 79.1271 297.274 76.5465 292.883C75.1262 296.854 73.8459 300.854 72.7457 304.775L72.1756 306.816L71.2454 304.915C61.1732 284.301 44.2696 267.397 23.6452 257.315L21.7448 256.385L23.7852 255.815C30.8268 253.854 37.6081 251.494 43.9595 248.813L44.9797 248.363C46.28 247.803 47.5803 247.213 48.7505 246.663L49.5207 246.303L52.1313 245.043C52.6014 244.822 53.0515 244.592 53.4916 244.382L54.1718 244.022C54.5218 243.852 54.8718 243.672 55.2219 243.492L55.952 243.112L56.5022 242.822C57.8725 242.112 59.0728 241.472 60.173 240.852L60.8331 240.472C65.6841 237.741 70.5152 234.71 75.1562 231.45L75.6563 231.1L76.1264 231.49C83.728 237.761 90.7496 244.792 97.0209 252.384L97.411 252.854L97.0609 253.354C93.8002 258.005 90.7596 262.826 88.039 267.687L87.4389 268.758L86.6986 267.787C80.6373 259.836 73.6558 252.514 65.9442 246.023L64.1439 247.033C59.923 249.393 55.572 251.604 51.201 253.594C62.4034 262.056 71.9655 272.278 79.6272 283.961C82.6878 288.632 85.3984 293.453 87.7289 298.354C88.529 300.034 89.2892 301.735 89.9894 303.395C95.9606 317.608 99.1014 332.721 99.3114 348.305C99.3114 348.595 99.3014 348.855 99.2914 349.115C99.2914 349.215 99.2914 349.325 99.2814 349.425H114.465C114.465 349.315 114.465 349.205 114.455 349.095L114.435 348.335C114.655 332.721 117.785 317.608 123.757 303.395C126.547 296.744 130.018 290.222 134.079 284.011C141.761 272.278 151.323 262.056 162.545 253.584C158.184 251.594 153.833 249.383 149.602 247.013L147.802 246.003C140.03 252.554 133.089 259.846 127.047 267.767L126.307 268.738L125.707 267.667C124.227 265.037 122.586 262.336 120.576 259.216C117.815 262.806 115.165 266.587 112.694 270.478L111.214 272.808C113.294 276.359 115.055 279.62 116.645 282.891L116.835 283.271L116.625 283.641C113.084 289.942 110.054 296.484 107.613 303.075L106.863 305.125L106.103 303.075C103.672 296.484 100.642 289.942 97.0909 283.641L96.8808 283.271L97.071 282.891C102.302 271.918 113.914 254.575 122.086 246.053C136.499 231.01 151.092 220.937 160.875 215.646C156.624 213.056 152.563 210.305 148.812 207.464L147.162 206.214C143.831 208.265 141.12 210.025 138.59 211.805L138.09 212.155L137.62 211.765C131.858 207.014 126.357 201.743 121.246 196.082C118.205 200.293 115.085 204.264 111.964 207.895L111.784 208.095C116.025 212.646 120.536 216.997 125.207 221.017L125.917 221.628L125.207 222.238C118.896 227.689 112.924 233.65 107.473 239.971L106.863 240.682L106.253 239.971C100.772 233.61 94.7404 227.589 88.349 222.088L88.219 221.978C84.1481 218.477 79.8572 215.146 75.4662 212.045L75.2662 211.895C70.5652 208.595 65.7041 205.524 60.8231 202.793L59.3828 202.313L60.7331 201.453C68.6848 195.392 76.0064 188.41 82.4978 180.699L81.4875 178.898C79.107 174.647 76.9066 170.297 74.9162 165.956C66.4544 177.148 56.2521 186.71 44.5796 194.372L44.2195 194.612L43.8194 194.442C37.4781 191.771 30.7167 189.431 23.7452 187.48L21.7047 186.91L23.6052 185.98C44.2196 175.908 61.1332 158.994 71.2153 138.37L72.1456 136.469L72.7156 138.51C74.6761 145.551 77.0266 152.333 79.7171 158.684C82.0376 164.185 84.7883 169.786 87.8789 175.318C90.6795 180.319 93.7502 185.19 97.0509 189.911L97.401 190.411L97.0109 190.881C92.2699 196.622 86.9988 202.123 81.3176 207.254C85.5285 210.295 89.4993 213.416 93.12 216.526L93.3201 216.706C97.9311 212.416 102.332 207.845 106.403 203.114L106.513 202.984C110.014 198.903 113.344 194.632 116.435 190.251L116.585 190.031C119.996 185.17 123.076 180.259 125.847 175.318C128.888 169.886 131.578 164.415 133.869 159.024L133.999 158.714C136.719 152.253 139.07 145.491 141.02 138.5L141.59 136.459L142.521 138.36C152.593 158.984 169.496 175.888 190.121 185.97L192.021 186.9L189.981 187.47C182.999 189.421 176.248 191.761 169.906 194.432L169.506 194.602L169.146 194.362C157.464 186.7 147.262 177.148 138.8 165.956C136.799 170.327 134.589 174.677 132.238 178.898L131.228 180.699C137.87 188.57 145.241 195.572 153.233 201.633C158.094 205.314 163.315 208.745 168.766 211.815C175.108 215.386 181.679 218.437 188.3 220.877L190.351 221.628L188.3 222.378C181.719 224.808 175.178 227.839 168.866 231.39L168.496 231.6L168.116 231.41C164.755 229.769 161.405 227.959 157.884 225.888L155.773 227.259C151.863 229.799 148.062 232.52 144.481 235.35C147.702 237.431 150.482 239.111 153.163 240.612C158.594 243.642 164.065 246.343 169.446 248.633L169.656 248.723L169.886 248.813C176.218 251.484 182.979 253.824 189.971 255.775L192.011 256.345L190.111 257.275C169.496 267.347 152.583 284.261 142.511 304.875L141.58 306.776L141.01 304.735C139.92 300.824 138.64 296.824 137.209 292.843C134.629 297.224 132.378 301.725 130.488 306.216L127.587 313.127C130.538 325.06 132.048 337.242 132.098 349.405H147.222C147.552 301.385 186.62 262.326 234.65 261.986V246.863L234.72 246.883Z" fill="#FF7300"/>
<path d="M372.17 160.364C369.549 165.736 366.478 171.147 363.058 176.438L362.378 177.478L361.697 176.438C358.287 171.167 355.216 165.756 352.585 160.364L352.395 159.984L352.606 159.614C356.146 153.313 359.177 146.771 361.617 140.17L362.378 138.12L363.128 140.17C365.568 146.771 368.589 153.313 372.14 159.614L372.35 159.984L372.16 160.364H372.17ZM490.155 246.883C474.722 246.823 459.448 244.442 444.735 239.811L442.625 239.151L444.675 238.301C458.768 232.47 473.701 229.399 489.085 229.189C489.365 229.189 489.615 229.199 489.875 229.209C489.965 229.209 490.065 229.209 490.165 229.219V214.036C490.065 214.036 489.965 214.036 489.875 214.046C489.615 214.046 489.355 214.066 489.105 214.066C473.701 213.856 458.768 210.785 444.675 204.954L442.625 204.104L444.735 203.444C459.448 198.813 474.722 196.442 490.155 196.382V181.259C442.095 180.929 403.056 141.87 402.736 93.8402H387.613C387.553 109.283 385.172 124.577 380.541 139.28L379.881 141.39L379.031 139.34C373.18 125.227 370.119 110.244 369.919 94.8004L369.939 94.0702C369.939 93.9902 369.939 93.9102 369.939 93.8301H354.766C354.766 93.8301 354.766 93.9202 354.766 93.9602C354.776 94.3003 354.786 94.5403 354.786 94.7703C354.586 110.244 351.515 125.227 345.674 139.34L344.824 141.39L344.164 139.28C339.533 124.577 337.152 109.283 337.092 93.8402H321.969C321.649 141.88 282.601 180.929 234.55 181.259V196.382C250.174 196.442 265.647 198.873 280.53 203.614C287.532 205.844 294.413 208.595 300.984 211.795C306.396 214.436 311.837 217.507 317.158 220.957L318.208 221.638L317.158 222.318C311.867 225.738 306.466 228.799 301.084 231.43L300.704 231.62L300.334 231.41C294.013 227.859 287.472 224.828 280.9 222.398L278.85 221.648L280.9 220.897C284.671 219.497 288.552 217.847 292.463 215.966C287.822 213.936 283.061 212.135 278.32 210.625L271.018 208.295C259.546 211.985 247.663 213.936 235.65 214.096L235.08 214.116C234.89 214.116 234.73 214.126 234.57 214.126V229.179C234.69 229.179 234.81 229.179 234.93 229.189L235.64 229.209C251.044 229.419 265.997 232.49 280.08 238.321L282.12 239.171L280.01 239.831C265.297 244.462 250.014 246.843 234.56 246.903V262.026C282.561 262.336 321.649 301.405 321.979 349.445H337.102C337.152 337.252 338.673 325.05 341.613 313.167L338.713 306.246C336.832 301.765 334.572 297.274 331.991 292.883C330.571 296.854 329.29 300.854 328.19 304.775L327.62 306.816L326.69 304.915C316.618 284.301 299.714 267.397 279.09 257.315L277.189 256.385L279.23 255.815C286.271 253.854 293.053 251.494 299.404 248.813L300.424 248.363C301.725 247.803 303.015 247.213 304.195 246.663L304.965 246.303L307.576 245.043C308.046 244.822 308.496 244.592 308.936 244.382L309.626 244.022C309.976 243.852 310.326 243.672 310.676 243.492L311.407 243.112L311.957 242.822C313.327 242.112 314.517 241.472 315.628 240.852L316.288 240.472C321.139 237.741 325.97 234.71 330.611 231.45L331.111 231.1L331.581 231.49C339.183 237.761 346.204 244.792 352.475 252.384L352.866 252.854L352.515 253.354C349.255 258.005 346.214 262.826 343.494 267.687L342.893 268.758L342.153 267.787C336.092 259.836 329.11 252.514 321.409 246.023L319.608 247.033C315.388 249.393 311.037 251.604 306.666 253.594C317.868 262.056 327.43 272.278 335.102 283.961C338.152 288.632 340.873 293.453 343.203 298.354C344.004 300.034 344.764 301.735 345.464 303.395C351.435 317.608 354.576 332.721 354.786 348.305C354.786 348.595 354.776 348.855 354.766 349.115C354.766 349.215 354.766 349.325 354.756 349.425H369.939C369.939 349.315 369.939 349.205 369.929 349.095L369.909 348.335C370.129 332.721 373.26 317.608 379.231 303.395C382.022 296.744 385.492 290.222 389.563 284.011C397.245 272.278 406.807 262.056 418.029 253.584C413.668 251.594 409.318 249.383 405.087 247.013L403.286 246.003C395.515 252.554 388.573 259.846 382.532 267.767L381.792 268.738L381.192 267.667C379.721 265.037 378.071 262.336 376.06 259.216C373.3 262.806 370.649 266.587 368.179 270.478L366.698 272.808C368.779 276.359 370.539 279.62 372.13 282.891L372.32 283.271L372.11 283.641C368.569 289.942 365.538 296.484 363.098 303.075L362.338 305.125L361.577 303.075C359.147 296.484 356.116 289.942 352.565 283.641L352.355 283.271L352.545 282.891C357.777 271.918 369.389 254.575 377.561 246.053C391.974 231.01 406.567 220.937 416.349 215.646C412.098 213.056 408.037 210.305 404.287 207.464L402.636 206.214C399.306 208.265 396.605 210.025 394.064 211.805L393.564 212.155L393.094 211.765C387.333 207.014 381.832 201.743 376.721 196.082C373.68 200.293 370.559 204.264 367.439 207.895L367.269 208.095C371.509 212.646 376.02 216.997 380.681 221.017L381.392 221.628L380.681 222.238C374.37 227.689 368.399 233.65 362.948 239.971L362.338 240.682L361.727 239.971C356.246 233.61 350.215 227.589 343.824 222.088L343.694 221.978C339.623 218.477 335.332 215.146 330.941 212.045L330.741 211.895C326.04 208.595 321.179 205.524 316.298 202.793L314.857 202.313L316.198 201.453C324.149 195.392 331.471 188.41 337.962 180.699L336.952 178.898C334.572 174.647 332.371 170.297 330.381 165.956C321.919 177.148 311.717 186.71 300.044 194.372L299.684 194.612L299.284 194.442C292.943 191.771 286.181 189.431 279.21 187.48L277.169 186.91L279.07 185.98C299.684 175.908 316.598 158.994 326.68 138.37L327.61 136.469L328.18 138.51C330.141 145.551 332.491 152.333 335.182 158.684C337.502 164.185 340.253 169.786 343.344 175.318C346.144 180.319 349.215 185.19 352.515 189.911L352.866 190.411L352.475 190.881C347.734 196.622 342.463 202.123 336.782 207.254C340.993 210.295 344.964 213.416 348.585 216.526L348.785 216.706C353.396 212.416 357.797 207.845 361.868 203.114L361.978 202.984C365.478 198.903 368.809 194.632 371.9 190.251L372.05 190.031C375.46 185.17 378.541 180.259 381.312 175.318C384.352 169.886 387.043 164.415 389.333 159.024L389.463 158.714C392.184 152.253 394.534 145.491 396.475 138.5L397.045 136.459L397.975 138.36C408.047 158.984 424.951 175.888 445.575 185.97L447.476 186.9L445.435 187.47C438.454 189.421 431.702 191.761 425.361 194.432L424.961 194.602L424.601 194.362C412.918 186.7 402.716 177.148 394.254 165.956C392.254 170.327 390.043 174.677 387.693 178.898L386.683 180.699C393.324 188.57 400.696 195.572 408.687 201.633C413.549 205.314 418.77 208.745 424.221 211.815C430.562 215.386 437.134 218.437 443.755 220.877L445.805 221.628L443.755 222.378C437.174 224.808 430.632 227.839 424.311 231.39L423.941 231.6L423.561 231.41C420.2 229.769 416.849 227.959 413.328 225.888L411.218 227.259C407.307 229.799 403.506 232.52 399.926 235.35C403.146 237.431 405.927 239.111 408.607 240.612C414.039 243.642 419.51 246.343 424.891 248.633L425.101 248.723L425.331 248.813C431.662 251.484 438.424 253.824 445.415 255.775L447.456 256.345L445.555 257.275C424.941 267.347 408.027 284.261 397.955 304.875L397.025 306.776L396.455 304.735C395.365 300.824 394.084 296.824 392.654 292.843C390.073 297.224 387.813 301.725 385.933 306.216L383.032 313.127C385.983 325.06 387.493 337.242 387.543 349.405H402.666C402.996 301.385 442.065 262.326 490.095 261.986V246.863L490.155 246.883Z" fill="#FF7300"/>
<path d="M116.725 414.429C114.105 419.8 111.034 425.211 107.613 430.502L106.933 431.542L106.253 430.502C102.842 425.231 99.7715 419.82 97.1409 414.429L96.9508 414.049L97.1609 413.679C100.702 407.377 103.732 400.826 106.173 394.234L106.933 392.184L107.693 394.234C110.134 400.826 113.154 407.377 116.705 413.679L116.915 414.049L116.725 414.429ZM234.72 500.947C219.287 500.887 204.014 498.507 189.311 493.876L187.2 493.216L189.251 492.365C203.344 486.534 218.277 483.464 233.65 483.254C233.93 483.254 234.18 483.264 234.44 483.274C234.53 483.274 234.63 483.274 234.73 483.284V468.1C234.63 468.1 234.53 468.1 234.44 468.11C234.18 468.11 233.92 468.13 233.67 468.13C218.267 467.92 203.324 464.85 189.241 459.018L187.19 458.168L189.301 457.508C204.014 452.877 219.287 450.506 234.72 450.446V435.323C186.66 434.993 147.622 395.935 147.302 347.905H132.178C132.118 363.348 129.738 378.641 125.107 393.344L124.447 395.455L123.597 393.414C117.745 379.301 114.685 364.318 114.485 348.875L114.505 348.145C114.505 348.065 114.505 347.985 114.505 347.905H99.3313C99.3313 347.905 99.3313 347.995 99.3313 348.035C99.3413 348.375 99.3513 348.615 99.3513 348.855C99.1513 364.328 96.0907 379.311 90.2394 393.424L89.3893 395.465L88.7291 393.354C84.0981 378.651 81.7176 363.368 81.6576 347.915H66.5344C66.2143 395.955 27.1659 435.003 -20.8844 435.333V450.456C-5.26101 450.516 10.2123 452.947 25.0955 457.688C32.097 459.919 38.9785 462.669 45.5499 465.87C50.9611 468.5 56.4022 471.581 61.7233 475.032L62.7736 475.712L61.7233 476.392C56.4322 479.813 51.0311 482.873 45.6499 485.504L45.2698 485.694L44.8997 485.484C38.5784 481.933 32.0369 478.903 25.4655 476.472L23.4152 475.712L25.4655 474.962C29.2363 473.561 33.1172 471.911 37.0281 470.031C32.3871 468 27.626 466.2 22.885 464.69L15.5834 462.359C4.11096 466.05 -7.77158 468 -19.7942 468.16L-20.3642 468.18C-20.5543 468.18 -20.7143 468.19 -20.8643 468.19V483.244C-20.7443 483.244 -20.6243 483.244 -20.5043 483.254L-19.7942 483.274C-4.39086 483.484 10.5624 486.554 24.6454 492.386L26.6858 493.236L24.5753 493.896C9.86218 498.527 -5.42103 500.907 -20.8743 500.967V516.091C27.1259 516.391 66.2143 555.469 66.5444 603.509H81.6576C81.7076 591.317 83.228 579.114 86.1686 567.231L83.2679 560.31C81.3875 555.829 79.1271 551.338 76.5465 546.947C75.1262 550.918 73.8459 554.909 72.7457 558.84L72.1756 560.88L71.2454 558.98C61.1732 538.365 44.2696 521.462 23.6452 511.38L21.7448 510.449L23.7852 509.879C30.8268 507.919 37.6081 505.558 43.9595 502.878L44.9797 502.428C46.28 501.868 47.5803 501.277 48.7505 500.727L49.5207 500.367L52.1313 499.107C52.6014 498.887 53.0515 498.657 53.4916 498.437L54.1718 498.077C54.5218 497.897 54.8718 497.727 55.2219 497.547L55.952 497.177L56.5022 496.886C57.8725 496.176 59.0728 495.526 60.173 494.916L60.8331 494.546C65.6841 491.815 70.5152 488.785 75.1562 485.524L75.6563 485.174L76.1264 485.564C83.728 491.835 90.7496 498.867 97.0209 506.458L97.411 506.929L97.0609 507.429C93.8002 512.08 90.7596 516.901 88.039 521.762L87.4389 522.832L86.6986 521.862C80.6373 513.91 73.6558 506.589 65.9442 500.097L64.1439 501.107C59.923 503.468 55.572 505.678 51.201 507.669C62.4034 516.131 71.9655 526.343 79.6272 538.035C82.6878 542.706 85.3984 547.527 87.7289 552.428C88.529 554.109 89.2892 555.809 89.9894 557.469C95.9606 571.682 99.1014 586.796 99.3114 602.379C99.3114 602.669 99.3014 602.929 99.2914 603.189C99.2914 603.289 99.2914 603.399 99.2814 603.499H114.465C114.465 603.389 114.465 603.279 114.455 603.169L114.435 602.409C114.655 586.796 117.785 571.682 123.757 557.469C126.547 550.818 130.018 544.297 134.079 538.085C141.761 526.353 151.323 516.131 162.545 507.659C158.184 505.668 153.833 503.458 149.602 501.087L147.802 500.077C140.03 506.629 133.089 513.92 127.047 521.842L126.307 522.812L125.707 521.742C124.227 519.121 122.586 516.411 120.576 513.29C117.815 516.871 115.165 520.662 112.694 524.552L111.214 526.883C113.294 530.424 115.055 533.694 116.645 536.965L116.835 537.345L116.625 537.715C113.084 544.017 110.054 550.558 107.613 557.149L106.863 559.2L106.103 557.149C103.672 550.558 100.642 544.017 97.0909 537.715L96.8808 537.345L97.071 536.965C102.302 525.993 113.914 508.649 122.086 500.127C136.499 485.084 151.092 475.012 160.875 469.721C156.624 467.13 152.563 464.379 148.812 461.539L147.162 460.289C143.831 462.339 141.12 464.099 138.59 465.88L138.09 466.23L137.62 465.84C131.858 461.089 126.357 455.818 121.246 450.156C118.205 454.367 115.085 458.338 111.964 461.969L111.784 462.169C116.025 466.72 120.536 471.071 125.207 475.092L125.917 475.702L125.207 476.312C118.896 481.763 112.924 487.724 107.473 494.046L106.863 494.756L106.253 494.046C100.772 487.684 94.7404 481.663 88.349 476.162L88.219 476.052C84.1481 472.551 79.8572 469.221 75.4662 466.12L75.2662 465.98C70.5652 462.679 65.7041 459.608 60.8231 456.878L59.3828 456.398L60.7331 455.538C68.6848 449.476 76.0064 442.495 82.4978 434.783L81.4875 432.983C79.107 428.732 76.9066 424.381 74.9162 420.04C66.4544 431.232 56.2521 440.794 44.5796 448.456L44.2195 448.696L43.8194 448.526C37.4781 445.856 30.7167 443.515 23.7452 441.565L21.7047 440.994L23.6052 440.064C44.2196 429.992 61.1332 413.078 71.2153 392.454L72.1456 390.544L72.7156 392.584C74.6761 399.616 77.0266 406.407 79.7171 412.758C82.0376 418.26 84.7883 423.861 87.8789 429.392C90.6795 434.393 93.7502 439.264 97.0509 443.985L97.401 444.485L97.0109 444.955C92.2699 450.697 86.9988 456.198 81.3176 461.329C85.5285 464.369 89.4993 467.49 93.12 470.601L93.3201 470.781C97.9311 466.49 102.332 461.919 106.403 457.188L106.513 457.058C110.014 452.987 113.344 448.706 116.435 444.325L116.585 444.105C119.996 439.244 123.076 434.333 125.847 429.392C128.888 423.961 131.578 418.49 133.869 413.109L133.999 412.798C136.719 406.337 139.07 399.576 141.02 392.584L141.59 390.544L142.521 392.454C152.593 413.078 169.496 429.982 190.121 440.064L192.021 440.994L189.981 441.565C182.999 443.505 176.248 445.856 169.906 448.526L169.506 448.696L169.146 448.456C157.464 440.794 147.262 431.242 138.8 420.05C136.799 424.421 134.589 428.772 132.238 432.993L131.228 434.793C137.87 442.665 145.241 449.666 153.233 455.728C158.094 459.408 163.315 462.839 168.766 465.91C175.108 469.481 181.679 472.521 188.3 474.972L190.351 475.722L188.3 476.482C181.719 478.913 175.178 481.943 168.866 485.494L168.496 485.704L168.116 485.524C164.755 483.884 161.405 482.073 157.884 480.003L155.773 481.373C151.863 483.914 148.062 486.634 144.481 489.465C147.702 491.545 150.482 493.226 153.163 494.726C158.594 497.757 164.065 500.457 169.446 502.748L169.656 502.838L169.886 502.928C176.218 505.598 182.979 507.939 189.971 509.889L192.011 510.459L190.111 511.39C169.496 521.462 152.583 538.375 142.511 558.99L141.58 560.89L141.01 558.85C139.92 554.939 138.64 550.938 137.209 546.957C134.629 551.348 132.378 555.839 130.488 560.33L127.587 567.241C130.538 579.174 132.048 591.357 132.098 603.519H147.222C147.552 555.499 186.62 516.441 234.65 516.101V500.977L234.72 500.947Z" fill="#FF7300"/>
<path d="M372.17 414.429C369.549 419.8 366.478 425.211 363.058 430.502L362.378 431.542L361.697 430.502C358.287 425.231 355.216 419.82 352.585 414.429L352.395 414.049L352.606 413.679C356.146 407.377 359.177 400.826 361.617 394.234L362.378 392.184L363.128 394.234C365.568 400.826 368.589 407.377 372.14 413.679L372.35 414.049L372.16 414.429H372.17ZM490.155 500.947C474.722 500.887 459.448 498.507 444.735 493.876L442.625 493.216L444.675 492.365C458.768 486.534 473.701 483.464 489.085 483.254C489.365 483.254 489.615 483.264 489.875 483.274C489.965 483.274 490.065 483.274 490.165 483.284V468.1C490.065 468.1 489.965 468.1 489.875 468.11C489.615 468.11 489.355 468.13 489.105 468.13C473.701 467.92 458.768 464.85 444.675 459.018L442.625 458.168L444.735 457.508C459.448 452.877 474.722 450.506 490.155 450.446V435.323C442.095 434.993 403.056 395.935 402.736 347.905H387.613C387.553 363.348 385.172 378.641 380.541 393.344L379.881 395.455L379.031 393.414C373.18 379.301 370.119 364.318 369.919 348.875L369.939 348.145C369.939 348.065 369.939 347.985 369.939 347.905H354.766C354.766 347.905 354.766 347.995 354.766 348.035C354.776 348.375 354.786 348.615 354.786 348.855C354.586 364.328 351.515 379.311 345.674 393.424L344.824 395.465L344.164 393.354C339.533 378.651 337.152 363.368 337.092 347.915H321.969C321.649 395.955 282.601 435.003 234.55 435.333V450.456C250.174 450.516 265.647 452.947 280.53 457.688C287.532 459.919 294.413 462.669 300.984 465.87C306.396 468.5 311.837 471.581 317.158 475.032L318.208 475.712L317.158 476.392C311.867 479.813 306.466 482.873 301.084 485.504L300.704 485.694L300.334 485.484C294.013 481.933 287.472 478.903 280.9 476.472L278.85 475.712L280.9 474.962C284.671 473.561 288.552 471.911 292.463 470.031C287.822 468 283.061 466.2 278.32 464.69L271.018 462.359C259.546 466.05 247.663 468 235.65 468.16L235.08 468.18C234.89 468.18 234.73 468.19 234.57 468.19V483.244C234.69 483.244 234.81 483.244 234.93 483.254L235.64 483.274C251.044 483.484 265.997 486.554 280.08 492.386L282.12 493.236L280.01 493.896C265.297 498.527 250.014 500.907 234.56 500.967V516.091C282.561 516.391 321.649 555.469 321.979 603.509H337.102C337.152 591.317 338.673 579.114 341.613 567.231L338.713 560.31C336.832 555.829 334.572 551.338 331.991 546.947C330.571 550.918 329.29 554.909 328.19 558.84L327.62 560.88L326.69 558.98C316.618 538.365 299.714 521.462 279.09 511.38L277.189 510.449L279.23 509.879C286.271 507.919 293.053 505.558 299.404 502.878L300.424 502.428C301.725 501.868 303.015 501.277 304.195 500.727L304.965 500.367L307.576 499.107C308.046 498.887 308.496 498.657 308.936 498.437L309.626 498.077C309.976 497.897 310.326 497.727 310.676 497.547L311.407 497.177L311.957 496.886C313.327 496.176 314.517 495.526 315.628 494.916L316.288 494.546C321.139 491.815 325.97 488.785 330.611 485.524L331.111 485.174L331.581 485.564C339.183 491.835 346.204 498.867 352.475 506.458L352.866 506.929L352.515 507.429C349.255 512.08 346.214 516.901 343.494 521.762L342.893 522.832L342.153 521.862C336.092 513.91 329.11 506.589 321.409 500.097L319.608 501.107C315.388 503.468 311.037 505.678 306.666 507.669C317.868 516.131 327.43 526.343 335.102 538.035C338.152 542.706 340.873 547.527 343.203 552.428C344.004 554.109 344.764 555.809 345.464 557.469C351.435 571.682 354.576 586.796 354.786 602.379C354.786 602.669 354.776 602.929 354.766 603.189C354.766 603.289 354.766 603.399 354.756 603.499H369.939C369.939 603.389 369.939 603.279 369.929 603.169L369.909 602.409C370.129 586.796 373.26 571.682 379.231 557.469C382.022 550.818 385.492 544.297 389.563 538.085C397.245 526.353 406.807 516.131 418.029 507.659C413.668 505.668 409.318 503.458 405.087 501.087L403.286 500.077C395.515 506.629 388.573 513.92 382.532 521.842L381.792 522.812L381.192 521.742C379.721 519.121 378.071 516.411 376.06 513.29C373.3 516.871 370.649 520.662 368.179 524.552L366.698 526.883C368.779 530.424 370.539 533.694 372.13 536.965L372.32 537.345L372.11 537.715C368.569 544.017 365.538 550.558 363.098 557.149L362.338 559.2L361.577 557.149C359.147 550.558 356.116 544.017 352.565 537.715L352.355 537.345L352.545 536.965C357.777 525.993 369.389 508.649 377.561 500.127C391.974 485.084 406.567 475.012 416.349 469.721C412.098 467.13 408.037 464.379 404.287 461.539L402.636 460.289C399.306 462.339 396.605 464.099 394.064 465.88L393.564 466.23L393.094 465.84C387.333 461.089 381.832 455.818 376.721 450.156C373.68 454.367 370.559 458.338 367.439 461.969L367.269 462.169C371.509 466.72 376.02 471.071 380.681 475.092L381.392 475.702L380.681 476.312C374.37 481.763 368.399 487.724 362.948 494.046L362.338 494.756L361.727 494.046C356.246 487.684 350.215 481.663 343.824 476.162L343.694 476.052C339.623 472.551 335.332 469.221 330.941 466.12L330.741 465.98C326.04 462.679 321.179 459.608 316.298 456.878L314.857 456.398L316.198 455.538C324.149 449.476 331.471 442.495 337.962 434.783L336.952 432.983C334.572 428.732 332.371 424.381 330.381 420.04C321.919 431.232 311.717 440.794 300.044 448.456L299.684 448.696L299.284 448.526C292.943 445.856 286.181 443.515 279.21 441.565L277.169 440.994L279.07 440.064C299.684 429.992 316.598 413.078 326.68 392.454L327.61 390.544L328.18 392.584C330.141 399.616 332.491 406.407 335.182 412.758C337.502 418.26 340.253 423.861 343.344 429.392C346.144 434.393 349.215 439.264 352.515 443.985L352.866 444.485L352.475 444.955C347.734 450.697 342.463 456.198 336.782 461.329C340.993 464.369 344.964 467.49 348.585 470.601L348.785 470.781C353.396 466.49 357.797 461.919 361.868 457.188L361.978 457.058C365.478 452.987 368.809 448.706 371.9 444.325L372.05 444.105C375.46 439.244 378.541 434.333 381.312 429.392C384.352 423.961 387.043 418.49 389.333 413.109L389.463 412.798C392.184 406.337 394.534 399.576 396.475 392.584L397.045 390.544L397.975 392.454C408.047 413.078 424.951 429.982 445.575 440.064L447.476 440.994L445.435 441.565C438.454 443.505 431.702 445.856 425.361 448.526L424.961 448.696L424.601 448.456C412.918 440.794 402.716 431.242 394.254 420.05C392.254 424.421 390.043 428.772 387.693 432.993L386.683 434.793C393.324 442.665 400.696 449.666 408.687 455.728C413.549 459.408 418.77 462.839 424.221 465.91C430.562 469.481 437.134 472.521 443.755 474.972L445.805 475.722L443.755 476.482C437.174 478.913 430.632 481.943 424.311 485.494L423.941 485.704L423.561 485.524C420.2 483.884 416.849 482.073 413.328 480.003L411.218 481.373C407.307 483.914 403.506 486.634 399.926 489.465C403.146 491.545 405.927 493.226 408.607 494.726C414.039 497.757 419.51 500.457 424.891 502.748L425.101 502.838L425.331 502.928C431.662 505.598 438.424 507.939 445.415 509.889L447.456 510.459L445.555 511.39C424.941 521.462 408.027 538.375 397.955 558.99L397.025 560.89L396.455 558.85C395.365 554.939 394.084 550.938 392.654 546.957C390.073 551.348 387.813 555.839 385.933 560.33L383.032 567.241C385.983 579.174 387.493 591.357 387.543 603.519H402.666C402.996 555.499 442.065 516.441 490.095 516.101V500.977L490.155 500.947Z" fill="#FF7300"/>
<path d="M116.725 668.493C114.105 673.864 111.034 679.275 107.613 684.566L106.933 685.607L106.253 684.566C102.842 679.295 99.7715 673.884 97.1409 668.493L96.9508 668.113L97.1609 667.743C100.702 661.441 103.732 654.89 106.173 648.299L106.933 646.248L107.693 648.299C110.134 654.9 113.154 661.431 116.705 667.743L116.915 668.113L116.725 668.493ZM234.72 755.011C219.287 754.951 204.014 752.571 189.311 747.94L187.2 747.28L189.251 746.43C203.344 740.598 218.277 737.528 233.65 737.318C233.93 737.318 234.18 737.318 234.44 737.338C234.53 737.338 234.63 737.338 234.73 737.348V722.164C234.63 722.164 234.53 722.164 234.44 722.174C234.18 722.174 233.92 722.194 233.67 722.194C218.267 721.984 203.324 718.914 189.241 713.082L187.19 712.232L189.301 711.572C204.014 706.941 219.287 704.571 234.72 704.511V689.387C186.66 689.057 147.622 649.999 147.302 601.969H132.178C132.118 617.412 129.738 632.705 125.107 647.408L124.447 649.519L123.597 647.478C117.745 633.365 114.685 618.382 114.485 602.939L114.505 602.209C114.505 602.129 114.505 602.049 114.505 601.969H99.3313C99.3313 601.969 99.3313 602.049 99.3313 602.099C99.3413 602.439 99.3513 602.679 99.3513 602.909C99.1513 618.382 96.0907 633.365 90.2394 647.478L89.3893 649.519L88.7291 647.408C84.0981 632.705 81.7176 617.422 81.6576 601.969H66.5344C66.2143 650.009 27.1659 689.057 -20.8844 689.387V704.511C-5.26101 704.571 10.2123 707.001 25.0955 711.742C32.097 713.973 38.9785 716.723 45.5499 719.924C50.9611 722.555 56.4022 725.645 61.7233 729.086L62.7736 729.766L61.7233 730.446C56.4322 733.867 51.0311 736.928 45.6499 739.558L45.2698 739.748L44.8997 739.538C38.5784 735.987 32.0369 732.957 25.4655 730.526L23.4152 729.776L25.4655 729.016C29.2363 727.616 33.1172 725.965 37.0281 724.085C32.3871 722.054 27.626 720.254 22.885 718.744L15.5834 716.413C4.11096 720.104 -7.77158 722.054 -19.7942 722.214L-20.3642 722.234C-20.5543 722.234 -20.7143 722.244 -20.8643 722.244V737.298C-20.7443 737.298 -20.6243 737.298 -20.5043 737.308L-19.7942 737.328C-4.39086 737.538 10.5624 740.608 24.6454 746.44L26.6858 747.29L24.5753 747.95C9.86218 752.581 -5.42103 754.961 -20.8743 755.021V770.145C27.1259 770.455 66.2143 809.523 66.5444 857.563H81.6576C81.7076 845.371 83.228 833.168 86.1686 821.286L83.2679 814.364C81.3875 809.883 79.1271 805.392 76.5465 801.001C75.1262 804.972 73.8459 808.963 72.7457 812.894L72.1756 814.934L71.2454 813.034C61.1732 792.419 44.2696 775.516 23.6452 765.434L21.7448 764.504L23.7852 763.933C30.8268 761.973 37.6081 759.622 43.9595 756.932L44.9797 756.482C46.28 755.922 47.5803 755.332 48.7505 754.781L49.5207 754.421L52.1313 753.171C52.6014 752.951 53.0515 752.721 53.4916 752.501L54.1718 752.141C54.5218 751.961 54.8718 751.791 55.2219 751.611L55.952 751.241L56.5022 750.951C57.8725 750.24 59.0728 749.59 60.173 748.98L60.8331 748.61C65.6841 745.88 70.5152 742.849 75.1562 739.588L75.6563 739.238L76.1264 739.628C83.728 745.9 90.7496 752.931 97.0209 760.523L97.411 760.993L97.0609 761.493C93.8002 766.144 90.7596 770.965 88.039 775.826L87.4389 776.896L86.6986 775.926C80.6373 767.974 73.6558 760.653 65.9442 754.161L64.1439 755.171C59.923 757.532 55.572 759.742 51.201 761.733C62.4034 770.195 71.9655 780.407 79.6272 792.099C82.6878 796.77 85.3984 801.591 87.7289 806.492C88.529 808.173 89.2892 809.873 89.9894 811.534C95.9606 825.747 99.1014 840.86 99.3114 856.443C99.3114 856.723 99.3014 856.993 99.2914 857.253C99.2914 857.353 99.2914 857.463 99.2814 857.563H114.465C114.465 857.453 114.465 857.343 114.455 857.233L114.435 856.473C114.655 840.86 117.785 825.747 123.757 811.534C126.547 804.882 130.018 798.361 134.079 792.149C141.761 780.427 151.323 770.195 162.545 761.723C158.184 759.732 153.833 757.522 149.602 755.151L147.802 754.141C140.03 760.693 133.089 767.984 127.047 775.906L126.307 776.876L125.707 775.806C124.227 773.175 122.586 770.475 120.576 767.354C117.815 770.935 115.165 774.726 112.694 778.616L111.214 780.947C113.294 784.488 115.055 787.758 116.645 791.029L116.835 791.409L116.625 791.779C113.084 798.081 110.054 804.622 107.613 811.214L106.863 813.264L106.103 811.214C103.672 804.622 100.642 798.081 97.0909 791.779L96.8808 791.409L97.071 791.029C102.302 780.057 113.914 762.713 122.086 754.191C136.499 739.148 151.092 729.076 160.875 723.785C156.624 721.194 152.563 718.444 148.812 715.603L147.162 714.353C143.831 716.403 141.12 718.164 138.59 719.944L138.09 720.294L137.62 719.904C131.858 715.153 126.357 709.882 121.246 704.221C118.205 708.431 115.085 712.402 111.964 716.033L111.784 716.233C116.025 720.784 120.536 725.135 125.207 729.156L125.917 729.766L125.207 730.376C118.896 735.817 112.924 741.789 107.473 748.11L106.863 748.82L106.253 748.11C100.772 741.749 94.7404 735.727 88.349 730.226L88.219 730.116C84.1481 726.625 79.8572 723.285 75.4662 720.184L75.2662 720.034C70.5652 716.733 65.7041 713.663 60.8231 710.932L59.3828 710.452L60.7331 709.592C68.6848 703.53 76.0064 696.549 82.4978 688.837L81.4875 687.037C79.107 682.786 76.9066 678.435 74.9162 674.094C66.4544 685.287 56.2521 694.849 44.5796 702.51L44.2195 702.75L43.8194 702.58C37.4781 699.91 30.7167 697.569 23.7452 695.619L21.7047 695.049L23.6052 694.118C44.2196 684.046 61.1332 667.133 71.2153 646.508L72.1456 644.608L72.7156 646.648C74.6761 653.69 77.0266 660.471 79.7171 666.833C82.0376 672.334 84.7883 677.935 87.8789 683.466C90.6795 688.467 93.7502 693.338 97.0509 698.059L97.401 698.559L97.0109 699.029C92.2699 704.771 86.9988 710.272 81.3176 715.403C85.5285 718.444 89.4993 721.564 93.12 724.685L93.3201 724.865C97.9311 720.574 102.332 716.003 106.403 711.272L106.513 711.142C110.014 707.071 113.344 702.79 116.435 698.409L116.585 698.189C119.996 693.328 123.076 688.417 125.847 683.476C128.888 678.045 131.578 672.574 133.869 667.193L133.999 666.883C136.719 660.421 139.07 653.66 141.02 646.668L141.59 644.628L142.521 646.528C152.593 667.153 169.496 684.056 190.121 694.138L192.021 695.069L189.981 695.639C182.999 697.589 176.248 699.93 169.906 702.6L169.506 702.77L169.146 702.53C157.464 694.869 147.262 685.317 138.8 674.124C136.799 678.495 134.589 682.846 132.238 687.067L131.228 688.867C137.87 696.739 145.241 703.741 153.233 709.802C158.094 713.493 163.315 716.913 168.766 719.984C175.108 723.555 181.679 726.605 188.3 729.046L190.351 729.806L188.3 730.556C181.719 732.987 175.178 736.017 168.866 739.568L168.496 739.778L168.116 739.588C164.755 737.948 161.405 736.137 157.884 734.067L155.773 735.437C151.863 737.978 148.062 740.698 144.481 743.529C147.702 745.609 150.482 747.29 153.163 748.79C158.594 751.821 164.065 754.521 169.446 756.812L169.656 756.902L169.886 757.002C176.218 759.672 182.979 762.013 189.971 763.963L192.011 764.533L190.111 765.464C169.496 775.536 152.583 792.449 142.511 813.064L141.58 814.964L141.01 812.924C139.92 809.013 138.64 805.012 137.209 801.031C134.629 805.422 132.378 809.913 130.488 814.404L127.587 821.316C130.538 833.248 132.048 845.431 132.098 857.593H147.222C147.552 809.573 186.62 770.515 234.65 770.175V755.051L234.72 755.011Z" fill="#FF7300"/>
<path d="M372.17 668.493C369.549 673.864 366.478 679.275 363.058 684.566L362.378 685.607L361.697 684.566C358.287 679.295 355.216 673.884 352.585 668.493L352.395 668.113L352.606 667.743C356.146 661.441 359.177 654.89 361.617 648.299L362.378 646.248L363.128 648.299C365.568 654.9 368.589 661.431 372.14 667.743L372.35 668.113L372.16 668.493H372.17ZM490.155 755.011C474.722 754.951 459.448 752.571 444.735 747.94L442.625 747.28L444.675 746.43C458.768 740.598 473.701 737.528 489.085 737.318C489.365 737.318 489.615 737.318 489.875 737.338C489.965 737.338 490.065 737.338 490.165 737.348V722.164C490.065 722.164 489.965 722.164 489.875 722.174C489.615 722.174 489.355 722.194 489.105 722.194C473.701 721.984 458.768 718.914 444.675 713.082L442.625 712.232L444.735 711.572C459.448 706.941 474.722 704.571 490.155 704.511V689.387C442.095 689.057 403.056 649.999 402.736 601.969H387.613C387.553 617.412 385.172 632.705 380.541 647.408L379.881 649.519L379.031 647.478C373.18 633.365 370.119 618.382 369.919 602.939L369.939 602.209C369.939 602.129 369.939 602.049 369.939 601.969H354.766C354.766 601.969 354.766 602.049 354.766 602.099C354.776 602.439 354.786 602.679 354.786 602.909C354.586 618.382 351.515 633.365 345.674 647.478L344.824 649.519L344.164 647.408C339.533 632.705 337.152 617.422 337.092 601.969H321.969C321.649 650.009 282.601 689.057 234.55 689.387V704.511C250.174 704.571 265.647 707.001 280.53 711.742C287.532 713.973 294.413 716.723 300.984 719.924C306.396 722.555 311.837 725.645 317.158 729.086L318.208 729.766L317.158 730.446C311.867 733.867 306.466 736.928 301.084 739.558L300.704 739.748L300.334 739.538C294.013 735.987 287.472 732.957 280.9 730.526L278.85 729.776L280.9 729.016C284.671 727.616 288.552 725.965 292.463 724.085C287.822 722.054 283.061 720.254 278.32 718.744L271.018 716.413C259.546 720.104 247.663 722.054 235.65 722.214L235.08 722.234C234.89 722.234 234.73 722.244 234.57 722.244V737.298C234.69 737.298 234.81 737.298 234.93 737.308L235.64 737.328C251.044 737.538 265.997 740.608 280.08 746.44L282.12 747.29L280.01 747.95C265.297 752.581 250.014 754.961 234.56 755.021V770.145C282.561 770.455 321.649 809.523 321.979 857.563H337.102C337.152 845.371 338.673 833.168 341.613 821.286L338.713 814.364C336.832 809.883 334.572 805.392 331.991 801.001C330.571 804.972 329.29 808.963 328.19 812.894L327.62 814.934L326.69 813.034C316.618 792.419 299.714 775.516 279.09 765.434L277.189 764.504L279.23 763.933C286.271 761.973 293.053 759.622 299.404 756.932L300.424 756.482C301.725 755.922 303.015 755.332 304.195 754.781L304.965 754.421L307.576 753.171C308.046 752.951 308.496 752.721 308.936 752.501L309.626 752.141C309.976 751.961 310.326 751.791 310.676 751.611L311.407 751.241L311.957 750.951C313.327 750.24 314.517 749.59 315.628 748.98L316.288 748.61C321.139 745.88 325.97 742.849 330.611 739.588L331.111 739.238L331.581 739.628C339.183 745.9 346.204 752.931 352.475 760.523L352.866 760.993L352.515 761.493C349.255 766.144 346.214 770.965 343.494 775.826L342.893 776.896L342.153 775.926C336.092 767.974 329.11 760.653 321.409 754.161L319.608 755.171C315.388 757.532 311.037 759.742 306.666 761.733C317.868 770.195 327.43 780.407 335.102 792.099C338.152 796.77 340.873 801.591 343.203 806.492C344.004 808.173 344.764 809.873 345.464 811.534C351.435 825.747 354.576 840.86 354.786 856.443C354.786 856.723 354.776 856.993 354.766 857.253C354.766 857.353 354.766 857.463 354.756 857.563H369.939C369.939 857.453 369.939 857.343 369.929 857.233L369.909 856.473C370.129 840.86 373.26 825.747 379.231 811.534C382.022 804.882 385.492 798.361 389.563 792.149C397.245 780.427 406.807 770.195 418.029 761.723C413.668 759.732 409.318 757.522 405.087 755.151L403.286 754.141C395.515 760.693 388.573 767.984 382.532 775.906L381.792 776.876L381.192 775.806C379.721 773.175 378.071 770.475 376.06 767.354C373.3 770.935 370.649 774.726 368.179 778.616L366.698 780.947C368.779 784.488 370.539 787.758 372.13 791.029L372.32 791.409L372.11 791.779C368.569 798.081 365.538 804.622 363.098 811.214L362.338 813.264L361.577 811.214C359.147 804.622 356.116 798.081 352.565 791.779L352.355 791.409L352.545 791.029C357.777 780.057 369.389 762.713 377.561 754.191C391.974 739.148 406.567 729.076 416.349 723.785C412.098 721.194 408.037 718.444 404.287 715.603L402.636 714.353C399.306 716.403 396.605 718.164 394.064 719.944L393.564 720.294L393.094 719.904C387.333 715.153 381.832 709.882 376.721 704.221C373.68 708.431 370.559 712.402 367.439 716.033L367.269 716.233C371.509 720.784 376.02 725.135 380.681 729.156L381.392 729.766L380.681 730.376C374.37 735.817 368.399 741.789 362.948 748.11L362.338 748.82L361.727 748.11C356.246 741.749 350.215 735.727 343.824 730.226L343.694 730.116C339.623 726.625 335.332 723.285 330.941 720.184L330.741 720.034C326.04 716.733 321.179 713.663 316.298 710.932L314.857 710.452L316.198 709.592C324.149 703.53 331.471 696.549 337.962 688.837L336.952 687.037C334.572 682.786 332.371 678.435 330.381 674.094C321.919 685.287 311.717 694.849 300.044 702.51L299.684 702.75L299.284 702.58C292.943 699.91 286.181 697.569 279.21 695.619L277.169 695.049L279.07 694.118C299.684 684.046 316.598 667.133 326.68 646.508L327.61 644.608L328.18 646.648C330.141 653.69 332.491 660.471 335.182 666.833C337.502 672.334 340.253 677.935 343.344 683.466C346.144 688.467 349.215 693.338 352.515 698.059L352.866 698.559L352.475 699.029C347.734 704.771 342.463 710.272 336.782 715.403C340.993 718.444 344.964 721.564 348.585 724.685L348.785 724.865C353.396 720.574 357.797 716.003 361.868 711.272L361.978 711.142C365.478 707.071 368.809 702.79 371.9 698.409L372.05 698.189C375.46 693.328 378.541 688.417 381.312 683.476C384.352 678.045 387.043 672.574 389.333 667.193L389.463 666.883C392.184 660.421 394.534 653.66 396.475 646.668L397.045 644.628L397.975 646.528C408.047 667.153 424.951 684.056 445.575 694.138L447.476 695.069L445.435 695.639C438.454 697.589 431.702 699.93 425.361 702.6L424.961 702.77L424.601 702.53C412.918 694.869 402.716 685.317 394.254 674.124C392.254 678.495 390.043 682.846 387.693 687.067L386.683 688.867C393.324 696.739 400.696 703.741 408.687 709.802C413.549 713.493 418.77 716.913 424.221 719.984C430.562 723.555 437.134 726.605 443.755 729.046L445.805 729.806L443.755 730.556C437.174 732.987 430.632 736.017 424.311 739.568L423.941 739.778L423.561 739.588C420.2 737.948 416.849 736.137 413.328 734.067L411.218 735.437C407.307 737.978 403.506 740.698 399.926 743.529C403.146 745.609 405.927 747.29 408.607 748.79C414.039 751.821 419.51 754.521 424.891 756.812L425.101 756.902L425.331 757.002C431.662 759.672 438.424 762.013 445.415 763.963L447.456 764.533L445.555 765.464C424.941 775.536 408.027 792.449 397.955 813.064L397.025 814.964L396.455 812.924C395.365 809.013 394.084 805.012 392.654 801.031C390.073 805.422 387.813 809.913 385.933 814.404L383.032 821.316C385.983 833.248 387.493 845.431 387.543 857.593H402.666C402.996 809.573 442.065 770.515 490.095 770.175V755.051L490.155 755.011Z" fill="#FF7300"/>
</g>
</svg>
