<svg width="467" height="698" viewBox="0 0 467 698" fill="none" xmlns="http://www.w3.org/2000/svg">
<path d="M467 0H0V697.399H467V0Z" fill="#330559"/>
<mask id="mask0_29_1707" style="mask-type:luminance" maskUnits="userSpaceOnUse" x="0" y="0" width="467" height="697">
<path d="M467 0H0V696.579H467V0Z" fill="white"/>
</mask>
<g mask="url(#mask0_29_1707)">
<path d="M256.885 -93.8502C250.724 -81.2175 243.512 -68.5048 235.471 -56.0721L233.88 -53.6216L232.29 -56.0721C224.268 -68.4748 217.057 -81.1775 210.875 -93.8502L210.435 -94.7404L210.925 -95.6006C219.257 -110.424 226.379 -125.797 232.1 -141.29L233.88 -146.101L235.651 -141.29C241.372 -125.787 248.493 -110.414 256.825 -95.6006L257.315 -94.7404L256.875 -93.8502H256.885ZM534.185 109.473C497.927 109.323 462.029 103.742 427.452 92.8598L422.491 91.2994L427.302 89.309C460.419 75.6061 495.526 68.4046 531.654 67.9044C532.304 67.9044 532.904 67.9345 533.514 67.9544H533.524C533.744 67.9645 533.975 67.9744 534.205 67.9845L534.185 32.3168C533.965 32.3168 533.744 32.3268 533.514 32.3368C532.914 32.3568 532.304 32.3768 531.714 32.3868C495.516 31.8867 460.409 24.6852 427.292 10.9722L422.481 8.98181L427.442 7.42148C462.009 -3.45084 497.927 -9.04204 534.185 -9.18207L534.165 -44.7197C421.24 -45.4998 329.501 -137.28 328.73 -250.164H293.203C293.063 -213.856 287.472 -177.938 276.589 -143.371L275.029 -138.41L273.039 -143.211C259.296 -176.378 252.094 -211.595 251.624 -247.883L251.674 -249.604C251.674 -249.794 251.694 -249.974 251.694 -250.164H216.036C216.036 -250.064 216.036 -249.964 216.036 -249.864C216.066 -249.063 216.086 -248.503 216.096 -247.943C215.626 -211.585 208.425 -176.368 194.682 -143.211L192.691 -138.41L191.131 -143.371C180.249 -177.928 174.657 -213.846 174.517 -250.164H138.99C138.22 -137.27 46.46 -45.4899 -66.4542 -44.7197V-9.19208C-29.7463 -9.06205 6.6315 -3.34083 41.589 7.81155C58.0325 13.0527 74.206 19.5241 89.6493 27.0357C102.362 33.227 115.145 40.4686 127.647 48.5603L130.108 50.1506L127.647 51.741C115.225 59.7727 102.512 66.9842 89.8693 73.1556L88.9691 73.5957L88.109 73.1055C73.2558 64.7638 57.8824 57.6322 42.4191 51.921L37.6181 50.1506L42.4191 48.3703C51.281 45.0896 60.413 41.1987 69.585 36.7778C58.6726 32.0068 47.5003 27.7758 36.3479 24.2251L19.1842 18.7539C-7.77161 27.4258 -35.6976 31.9967 -63.9436 32.3868L-65.284 32.4268C-65.724 32.4468 -66.1141 32.4568 -66.4742 32.4668V67.8444C-66.1941 67.8444 -65.9041 67.8644 -65.624 67.8744L-63.9436 67.9244C-27.7359 68.4145 7.40164 75.6261 40.4987 89.339L45.3098 91.3295L40.3487 92.8898C5.78133 103.772 -30.1464 109.353 -66.4642 109.493V145.031C46.34 145.751 138.2 237.581 138.97 350.465H174.497C174.618 321.809 178.188 293.143 185.1 265.217L178.278 248.953C173.857 238.431 168.556 227.879 162.485 217.536C159.134 226.868 156.134 236.261 153.553 245.492L152.213 250.284L150.032 245.813C126.357 197.362 86.6386 157.634 38.1682 133.949L33.6973 131.758L38.4983 130.428C55.0418 125.817 70.9953 120.286 85.9185 113.974L88.319 112.924C91.3796 111.604 94.4203 110.214 97.1809 108.933L98.9913 108.093V108.113L105.133 105.152V105.172C106.263 104.622 107.313 104.102 108.353 103.592L109.964 102.742C110.794 102.332 111.614 101.922 112.424 101.502L114.124 100.621V100.651L115.445 99.9413C118.655 98.261 121.466 96.7606 124.067 95.3203L125.627 94.4401C137.039 88.0288 148.372 80.8972 159.294 73.2356L160.474 72.4054L161.585 73.3256C179.439 88.0687 195.962 104.582 210.685 122.426L211.605 123.536L210.775 124.717C203.114 135.639 195.972 146.961 189.561 158.394L188.15 160.904L186.41 158.614C172.167 139.92 155.763 122.716 137.65 107.473L133.419 109.833C123.487 115.385 113.274 120.566 103.012 125.267C129.348 145.161 151.813 169.166 169.826 196.642C177.008 207.614 183.389 218.957 188.871 230.469C190.761 234.43 192.541 238.411 194.172 242.312C208.205 275.719 215.566 311.227 216.086 347.854C216.086 348.525 216.056 349.145 216.036 349.755C216.026 349.995 216.016 350.235 216.006 350.475H251.684C251.684 350.215 251.664 349.965 251.654 349.705L251.604 347.914C252.114 311.227 259.486 275.719 273.519 242.302C280.08 226.658 288.242 211.335 297.794 196.762C315.848 169.206 338.333 145.171 364.688 125.257C354.436 120.566 344.214 115.375 334.272 109.823L330.041 107.453C311.787 122.856 295.463 139.99 281.27 158.604L279.53 160.894L278.12 158.384C274.649 152.212 270.788 145.861 266.057 138.51C259.566 146.931 253.344 155.833 247.543 164.975L244.072 170.456C248.963 178.788 253.104 186.47 256.835 194.141L257.275 195.032L256.785 195.902C248.453 210.715 241.332 226.088 235.611 241.582L233.84 246.393L232.06 241.582C226.339 226.088 219.217 210.725 210.885 195.902L210.395 195.042L210.835 194.152C223.138 168.366 250.424 127.597 269.608 107.573C303.485 72.2254 337.762 48.5403 360.767 36.1176C350.775 30.0363 341.243 23.5649 332.431 16.8735L328.551 13.9329C320.719 18.7539 314.367 22.8948 308.396 27.0757L307.216 27.9059L306.106 26.9857C292.573 15.8233 279.64 3.43064 267.627 -9.88221C260.476 0.0199017 253.154 9.35189 245.823 17.8737L245.413 18.3538C255.375 29.0561 265.987 39.2783 276.949 48.7303L278.61 50.1606L276.949 51.591C262.116 64.3837 248.083 78.4067 235.271 93.2599L233.84 94.9202L232.41 93.2599C219.517 78.3066 205.354 64.1636 190.331 51.2309L190.021 50.9708C180.459 42.759 170.377 34.9074 160.054 27.6258L159.584 27.2857C148.532 19.5241 137.109 12.3225 125.647 5.88116L122.256 4.75091L125.417 2.72048C144.111 -11.5226 161.315 -27.9261 176.568 -46.05L174.197 -50.2809C168.616 -60.273 163.425 -70.4952 158.764 -80.6974C138.88 -54.3818 114.905 -31.9269 87.4588 -13.9231L86.6186 -13.373L85.6884 -13.7631C70.7752 -20.0444 54.9118 -25.5456 38.5083 -30.1166L33.7073 -31.4468L38.1882 -33.6373C86.6486 -57.3124 126.377 -97.0509 150.062 -145.531L152.253 -150.012L153.583 -145.211C158.184 -128.678 163.725 -112.724 170.037 -97.7911C175.488 -84.8683 181.949 -71.7155 189.221 -58.7027C195.802 -46.9602 203.014 -35.4977 210.785 -24.4153L211.615 -23.2351L210.695 -22.1248C199.563 -8.63195 187.16 4.3008 173.807 16.3534C183.709 23.5049 193.041 30.8265 201.553 38.1581L202.033 38.5681C212.866 28.486 223.208 17.7437 232.77 6.61131L233.03 6.30125C241.252 -3.28081 249.093 -13.333 256.345 -23.6252L256.705 -24.1353C264.717 -35.5577 271.968 -47.1002 278.47 -58.7127C285.611 -71.4854 291.933 -84.3282 297.324 -96.9909L297.634 -97.721C304.045 -112.914 309.536 -128.788 314.117 -145.221L315.448 -150.022L317.638 -145.541C341.313 -97.0809 381.042 -57.3424 429.512 -33.6573L433.983 -31.4668L429.182 -30.1366C412.779 -25.5656 396.905 -20.0644 382.012 -13.7831L381.082 -13.393L380.242 -13.9431C352.796 -31.947 328.811 -54.4018 308.936 -80.7074C304.235 -70.4252 299.044 -60.203 293.503 -50.2909L291.142 -46.06C306.746 -27.566 324.069 -11.1025 342.854 3.14057C354.276 11.8024 366.559 19.8642 379.361 27.0757C394.265 35.4575 409.708 42.619 425.271 48.3703L430.082 50.1506L425.271 51.921C409.798 57.6322 394.425 64.7638 379.591 73.0956L378.721 73.5857L377.831 73.1456C369.939 69.2947 362.068 65.0438 353.786 60.1728L348.815 63.4035C339.613 69.3848 330.701 75.7761 322.289 82.4275C329.871 87.3086 336.392 91.2595 342.684 94.7802C355.436 101.912 368.319 108.253 380.962 113.634L381.462 113.844L382.002 114.064C396.885 120.336 412.769 125.837 429.192 130.418L433.983 131.758L429.512 133.939C381.052 157.614 341.323 197.352 317.638 245.803L315.458 250.274L314.117 245.482C311.547 236.291 308.556 226.899 305.195 217.527C299.144 227.829 293.833 238.391 289.402 248.943L282.581 265.197C289.512 293.223 293.073 321.859 293.183 350.455H328.71C329.491 237.601 421.31 145.821 534.165 145.021L534.145 109.483L534.185 109.473Z" fill="#6126FF"/>
<path d="M256.885 503.208C250.724 515.84 243.512 528.553 235.471 540.986L233.88 543.436L232.29 540.986C224.268 528.583 217.057 515.87 210.875 503.208L210.435 502.318L210.925 501.457C219.257 486.634 226.379 471.261 232.1 455.767L233.88 450.956L235.651 455.767C241.372 471.271 248.493 486.644 256.825 501.457L257.315 502.318L256.875 503.208H256.885ZM534.185 706.541C497.927 706.391 462.029 700.81 427.452 689.928L422.491 688.367L427.302 686.377C460.419 672.674 495.526 665.472 531.654 664.972C532.304 664.972 532.904 665.002 533.514 665.022H533.524C533.744 665.032 533.975 665.042 534.205 665.052L534.185 629.385C533.965 629.385 533.744 629.395 533.514 629.415C532.914 629.435 532.304 629.455 531.714 629.465C495.516 628.965 460.409 621.763 427.292 608.05L422.481 606.06L427.442 604.499C462.009 593.627 497.927 588.036 534.185 587.896L534.165 552.358C421.24 551.578 329.501 459.798 328.73 346.914H293.203C293.063 383.222 287.472 419.14 276.589 453.707L275.029 458.668L273.039 453.867C259.296 420.7 252.094 385.482 251.624 349.195L251.674 347.474C251.674 347.284 251.694 347.104 251.694 346.914H216.036C216.036 347.014 216.036 347.114 216.036 347.214C216.066 348.014 216.086 348.575 216.096 349.135C215.626 385.492 208.425 420.71 194.682 453.867L192.691 458.668L191.131 453.707C180.249 419.15 174.657 383.232 174.517 346.914H138.99C138.22 459.808 46.46 551.588 -66.4542 552.358V587.886C-29.7463 588.016 6.6315 593.737 41.589 604.889C58.0325 610.131 74.206 616.602 89.6493 624.114C102.362 630.305 115.145 637.546 127.647 645.638L130.108 647.229L127.647 648.819C115.225 656.851 102.512 664.062 89.8693 670.234L88.9691 670.674L88.109 670.183C73.2558 661.842 57.8824 654.71 42.4191 648.999L37.6181 647.229L42.4191 645.448C51.281 642.167 60.413 638.277 69.585 633.856C58.6726 629.075 47.5003 624.854 36.3479 621.303L19.1842 615.832C-7.77161 624.504 -35.6976 629.085 -63.9436 629.465L-65.284 629.505C-65.724 629.525 -66.1141 629.535 -66.4742 629.545V664.922C-66.1941 664.922 -65.9041 664.942 -65.624 664.952L-63.9436 665.002C-27.7359 665.502 7.40164 672.704 40.4987 686.417L45.3098 688.407L40.3487 689.968C5.78133 700.85 -30.1464 706.431 -66.4642 706.571V742.109C46.34 742.829 138.2 834.659 138.97 947.543H174.497C174.618 918.887 178.188 890.221 185.1 862.295L178.278 846.031C173.857 835.509 168.556 824.957 162.485 814.614C159.134 823.946 156.134 833.338 153.553 842.57L152.213 847.361L150.032 842.89C126.357 794.44 86.6386 754.712 38.1682 731.027L33.6973 728.836L38.4983 727.506C55.0418 722.895 70.9953 717.364 85.9185 711.052L88.319 710.002C91.3796 708.682 94.4203 707.291 97.1809 706.011L98.9913 705.171L105.123 702.22V702.24C106.253 701.69 107.303 701.17 108.343 700.66L109.954 699.81C110.784 699.4 111.604 698.99 112.414 698.57L114.115 697.689V697.719L115.435 697.009C118.645 695.329 121.456 693.829 124.057 692.388L125.617 691.508C137.029 685.097 148.362 677.965 159.284 670.304L160.464 669.473L161.575 670.394C179.429 685.137 195.952 701.65 210.675 719.494L211.595 720.604L210.765 721.785C203.104 732.707 195.962 744.029 189.551 755.462L188.14 757.972L186.4 755.682C172.157 736.988 155.753 719.784 137.64 704.541L133.409 706.901C123.477 712.453 113.264 717.634 103.002 722.335C129.338 742.229 151.803 766.234 169.816 793.71C176.998 804.682 183.379 816.025 188.861 827.537C190.751 831.498 192.531 835.479 194.162 839.39C208.195 872.797 215.556 908.304 216.076 944.932C216.076 945.602 216.046 946.223 216.026 946.833C216.016 947.073 216.006 947.313 215.996 947.553H251.674C251.674 947.293 251.654 947.043 251.644 946.783L251.594 944.992C252.104 908.305 259.476 872.797 273.509 839.38C280.07 823.736 288.232 808.413 297.784 793.84C315.838 766.284 338.323 742.259 364.678 722.335C354.426 717.644 344.204 712.453 334.262 706.901L330.031 704.531C311.777 719.934 295.453 737.068 281.26 755.682L279.52 757.972L278.11 755.462C274.639 749.29 270.778 742.939 266.047 735.587C259.556 744.009 253.334 752.911 247.533 762.053L244.062 767.534C248.953 775.866 253.094 783.548 256.825 791.219L257.265 792.11L256.775 792.97C248.443 807.783 241.322 823.156 235.601 838.65L233.83 843.461L232.05 838.65C226.329 823.156 219.207 807.793 210.875 792.97L210.385 792.11L210.825 791.219C223.128 765.434 250.414 724.665 269.598 704.641C303.475 669.293 337.752 645.608 360.757 633.186C350.765 627.104 341.233 620.633 332.421 613.941L328.541 611.001C320.709 615.822 314.357 619.963 308.386 624.144L307.206 624.974L306.096 624.054C292.563 612.891 279.63 600.499 267.617 587.186C260.466 597.088 253.144 606.42 245.813 614.932L245.403 615.412C255.365 626.114 265.977 636.336 276.939 645.778L278.6 647.209L276.939 648.649C262.106 661.442 248.073 675.465 235.261 690.318L233.83 691.978L232.4 690.318C219.507 675.365 205.344 661.222 190.321 648.289L190.011 648.029C180.449 639.817 170.367 631.965 160.044 624.684L159.574 624.344C148.522 616.582 137.099 609.38 125.637 602.939L122.246 601.809L125.407 599.788C144.101 585.545 161.305 569.142 176.558 551.018L174.187 546.787C168.606 536.795 163.415 526.573 158.754 516.371C138.87 542.686 114.895 565.141 87.4488 583.145L86.6087 583.695L85.6784 583.305C70.7652 577.023 54.9018 571.522 38.4983 566.951L33.6973 565.621L38.1782 563.431C86.6386 539.756 126.367 500.017 150.052 451.537L152.243 447.056L153.573 451.857C158.174 468.39 163.715 484.344 170.026 499.277C175.478 512.2 181.939 525.352 189.211 538.365C195.792 550.108 203.004 561.57 210.775 572.653L211.605 573.833L210.685 574.943C199.553 588.426 187.15 601.369 173.797 613.421C183.699 620.573 193.031 627.894 201.543 635.226L202.023 635.636C212.856 625.554 223.198 614.812 232.76 603.679L233.02 603.369C241.242 593.787 249.083 583.735 256.335 573.443L256.695 572.933C264.707 561.51 271.958 549.968 278.46 538.355C285.601 525.582 291.923 512.74 297.314 500.077L297.624 499.347C304.035 484.154 309.526 468.28 314.107 451.847L315.438 447.046L317.628 451.527C341.303 499.987 381.032 539.725 429.502 563.421L433.973 565.611L429.172 566.941C412.769 571.512 396.895 577.013 382.002 583.295L381.072 583.685L380.232 583.135C352.786 565.131 328.801 542.676 308.926 516.371C304.225 526.653 299.034 536.875 293.493 546.787L291.132 551.018C306.736 569.512 324.059 585.975 342.844 600.218C354.266 608.88 366.549 616.942 379.351 624.154C394.255 632.535 409.698 639.707 425.261 645.448L430.072 647.229L425.261 648.999C409.788 654.71 394.415 661.842 379.581 670.173L378.711 670.664L377.821 670.223C369.929 666.373 362.058 662.122 353.776 657.251L348.805 660.481C339.603 666.463 330.691 672.854 322.279 679.505C329.861 684.386 336.382 688.337 342.674 691.858C355.426 698.99 368.309 705.331 380.952 710.712L381.452 710.922L381.992 711.142C396.875 717.414 412.759 722.915 429.182 727.496L433.973 728.836L429.502 731.016C381.042 754.692 341.313 794.42 317.628 842.88L315.448 847.351L314.107 842.56C311.537 833.368 308.546 823.976 305.186 814.604C299.134 824.907 293.823 835.469 289.392 846.021L282.571 862.275C289.502 890.301 293.063 918.937 293.173 947.533H328.7C329.481 834.679 421.3 742.899 534.155 742.099L534.135 706.561L534.185 706.541Z" fill="#6126FF"/>
</g>
</svg>
