<svg width="314" height="624" viewBox="0 0 314 624" fill="none" xmlns="http://www.w3.org/2000/svg">
<path d="M84.365 40.7905C82.7584 44.0896 80.8759 47.4009 78.7787 50.6448L78.3618 51.2825L77.9447 50.6448C75.8537 47.4132 73.9712 44.0957 72.3584 40.7905L72.2419 40.5575L72.3707 40.3306C74.5415 36.4674 76.3995 32.4509 77.8957 28.4099L78.3618 27.1528L78.8278 28.4099C80.324 32.4509 82.1759 36.4674 84.3527 40.3306L84.4816 40.5575L84.365 40.7905ZM156.705 93.8329C147.243 93.7962 137.88 92.3367 128.865 89.4976L127.572 89.0929L128.829 88.5716C137.469 84.9966 146.624 83.1202 156.049 82.9853C156.221 82.9853 156.374 82.9915 156.533 82.9976C156.589 82.9976 156.65 82.9976 156.711 83.0037V73.6952C156.65 73.6952 156.589 73.6952 156.533 73.7014C156.374 73.7014 156.215 73.7136 156.061 73.7136C146.618 73.5849 137.456 71.7023 128.823 68.1273L127.566 67.6061L128.859 67.2014C137.88 64.3622 147.243 62.9089 156.705 62.866V53.5943C127.241 53.3919 103.307 29.4462 103.111 0H93.8391C93.8023 9.47405 92.3428 18.8439 89.5037 27.8641L89.099 29.158L88.5777 27.9071C84.9905 19.2547 83.1141 10.0689 82.9914 0.600945L83.0037 0.153302C83.0037 0.104245 83.0037 0.05519 83.0037 0.00613338H73.7013C73.7013 0.00613338 73.7013 0.0613203 73.7013 0.0858486C73.7075 0.294339 73.7136 0.441507 73.7136 0.582545C73.591 10.0689 71.7146 19.2547 68.1273 27.9071L67.6061 29.158L67.2014 27.8641C64.3622 18.85 62.9028 9.48018 62.866 0H53.5943C53.3981 29.4523 29.4585 53.3919 0 53.5943V62.866C9.5783 62.9028 19.0646 64.3929 28.1891 67.2995C32.4816 68.6669 36.7005 70.3533 40.7292 72.3155C44.0467 73.9283 47.3825 75.8231 50.6448 77.9325L51.2887 78.3495L50.6448 78.7665C47.4009 80.8636 44.0896 82.74 40.7906 84.3528L40.5575 84.4693L40.3306 84.3405C36.4552 82.1636 32.4448 80.3056 28.416 78.8155L27.159 78.3495L28.416 77.8896C30.7278 77.0311 33.1071 76.0193 35.5047 74.8665C32.6594 73.6217 29.7406 72.5179 26.834 71.5919L22.3575 70.1632C15.324 72.4259 8.03912 73.6216 0.668375 73.7198L0.31888 73.732C0.20237 73.732 0.104257 73.7382 0.0122761 73.7382V82.9669C0.085861 82.9669 0.159437 82.9669 0.233022 82.9731L0.668375 82.9853C10.1118 83.1141 19.2792 84.9966 27.9132 88.5716L29.1641 89.0929L27.8702 89.4976C18.85 92.3367 9.48019 93.7962 0.00613806 93.8329V103.105C29.4339 103.295 53.3981 127.247 53.6005 156.699H62.866C62.8967 149.224 63.8287 141.743 65.6316 134.458L63.8533 130.215C62.7004 127.467 61.3146 124.714 59.7325 122.016C58.8618 124.45 58.0768 126.903 57.4023 129.307L57.0528 130.558L56.4825 129.393C50.3075 116.755 39.9443 106.391 27.3 100.21L26.1349 99.64L27.3859 99.2905C31.7028 98.0886 35.8603 96.6415 39.7542 94.9981L40.3797 94.7221C41.1768 94.3787 41.974 94.0169 42.6915 93.6796L43.1637 93.4589L44.7641 92.6863C45.0523 92.5514 45.3283 92.4103 45.5981 92.2815L46.0151 92.0608C46.2297 91.9565 46.4443 91.8462 46.6589 91.7358L47.1065 91.5028L47.4438 91.3249C48.2839 90.8896 49.0198 90.4971 49.6943 90.1169L50.099 89.89C53.073 88.216 56.0349 86.358 58.8802 84.3589L59.1868 84.1443L59.475 84.3834C64.1353 88.2282 68.44 92.5391 72.2849 97.1933L72.524 97.4815L72.3094 97.7881C70.3104 100.64 68.4462 103.589 66.7783 106.575L66.4104 107.232L65.9565 106.637C62.2405 101.762 57.9603 97.2731 53.2325 93.2933L52.1287 93.9127C49.541 95.3598 46.8735 96.715 44.1938 97.9353C51.0617 103.129 56.924 109.39 61.6212 116.552C63.4976 119.416 65.1594 122.372 66.5881 125.376C67.0787 126.407 67.5447 127.449 67.974 128.467C71.6348 137.181 73.5604 146.446 73.6891 156C73.6891 156.178 73.683 156.337 73.6769 156.497C73.6769 156.558 73.6768 156.625 73.6707 156.687H82.9792C82.9792 156.619 82.9791 156.552 82.973 156.484L82.9608 156.018C83.0957 146.446 85.015 137.181 88.6759 128.467C90.3867 124.389 92.5146 120.391 95.0042 116.583C99.7136 109.39 105.576 103.123 112.456 97.9292C109.782 96.7089 107.115 95.3537 104.521 93.9004L103.417 93.2811C98.6528 97.2976 94.3971 101.768 90.6934 106.624L90.2396 107.219L89.8716 106.563C88.9641 104.957 87.9585 103.295 86.7259 101.382C85.0335 103.577 83.4085 105.901 81.8938 108.286L80.9862 109.715C82.2617 111.886 83.341 113.891 84.316 115.89L84.4325 116.123L84.3037 116.35C82.1329 120.213 80.2749 124.224 78.7787 128.265L78.3188 129.522L77.8528 128.265C76.3627 124.224 74.5046 120.213 72.3278 116.35L72.199 116.123L72.3155 115.89C75.5226 109.163 82.6419 98.5301 87.6518 93.3056C96.4881 84.083 105.435 77.908 111.432 74.6641C108.826 73.0759 106.336 71.3896 104.037 69.6419L103.025 68.8754C100.983 70.1325 99.3211 71.2117 97.7697 72.3033L97.4631 72.5179L97.1749 72.2787C93.6428 69.366 90.2702 66.1344 87.1367 62.6636C85.2726 65.2452 83.3593 67.6797 81.4461 69.9056L81.3358 70.0283C83.9358 72.8183 86.7013 75.4858 89.565 77.9509L90.0004 78.325L89.565 78.699C85.6957 82.041 82.0348 85.6957 78.6928 89.5712L78.3188 90.0065L77.9447 89.5712C74.5844 85.6712 70.8867 81.9797 66.9683 78.607L66.8886 78.5396C64.3929 76.3933 61.7622 74.3514 59.0702 72.4504L58.9476 72.3646C56.0655 70.341 53.0853 68.4584 50.0929 66.7844L49.2099 66.49L50.0377 65.9627C54.9127 62.2467 59.4014 57.9665 63.3811 53.2386L62.7617 52.1349C61.3023 49.5287 59.9533 46.8613 58.733 44.2C53.5453 51.0618 47.2905 56.924 40.1344 61.6212L39.9136 61.7622L39.6683 61.658C35.7806 60.0207 31.6354 58.5858 27.3613 57.3901L26.1103 57.0405L27.2754 56.4702C39.9136 50.2953 50.283 39.9259 56.4641 27.2816L57.0344 26.1165L57.3839 27.3674C58.5858 31.6783 60.0268 35.842 61.6763 39.7358C63.099 43.1085 64.7853 46.5363 66.6801 49.9335C68.3971 52.9995 70.2797 55.9858 72.3033 58.8801L72.5179 59.1868L72.2787 59.475C69.3721 62.9948 66.1406 66.3674 62.6575 69.5132C65.2391 71.3773 67.6735 73.2905 69.8933 75.2037L70.016 75.3141C72.8429 72.6834 75.541 69.8811 78.0367 66.9806L78.1042 66.9009C80.2504 64.399 82.2924 61.7806 84.1872 59.0948L84.2792 58.9599C86.3702 55.9797 88.2589 52.9688 89.9575 49.9396C91.8216 46.6037 93.4711 43.2556 94.8754 39.9504L94.9551 39.7604C96.623 35.799 98.0641 31.6537 99.2598 27.3674L99.6093 26.1165L100.18 27.2816C106.355 39.9259 116.718 50.2891 129.362 56.4702L130.527 57.0405L129.276 57.3901C124.996 58.5858 120.857 60.0207 116.969 61.658L116.724 61.7622L116.503 61.6151C109.341 56.9179 103.086 51.0618 97.8985 44.2C96.6721 46.8797 95.3169 49.5471 93.8759 52.1349L93.2565 53.2386C97.3282 58.0646 101.848 62.357 106.747 66.0731C109.727 68.3358 112.928 70.433 116.27 72.3155C120.158 74.5047 124.187 76.375 128.246 77.8712L129.503 78.3311L128.246 78.7971C124.211 80.2872 120.201 82.1452 116.331 84.3221L116.105 84.4509L115.872 84.3405C113.811 83.3349 111.757 82.2249 109.598 80.9556L108.305 81.7957C105.907 83.3533 103.577 85.0212 101.382 86.7565C103.356 88.032 105.061 89.0622 106.704 89.982C110.034 91.84 113.388 93.4957 116.687 94.8999L116.816 94.9551L116.957 95.0165C120.839 96.6537 124.984 98.0886 129.27 99.2844L130.521 99.6339L129.356 100.204C116.718 106.379 106.349 116.749 100.174 129.387L99.6033 130.552L99.2537 129.301C98.5853 126.903 97.8004 124.45 96.9235 122.01C95.3414 124.702 93.9617 127.455 92.8027 130.208L91.0244 134.446C92.8334 141.755 93.7593 149.23 93.79 156.687H103.062C103.264 127.247 127.216 103.301 156.662 103.092V93.8207L156.705 93.8329Z" fill="#FF7300"/>
<path d="M240.972 40.7905C239.365 44.0896 237.483 47.4009 235.385 50.6448L234.968 51.2825L234.551 50.6448C232.46 47.4132 230.578 44.0957 228.965 40.7905L228.849 40.5575L228.977 40.3306C231.148 36.4674 233.006 32.4509 234.502 28.4099L234.968 27.1528L235.428 28.4099C236.925 32.4509 238.776 36.4674 240.953 40.3306L241.082 40.5575L240.966 40.7905H240.972ZM313.306 93.8329C303.844 93.7962 294.48 92.3367 285.46 89.4976L284.166 89.0929L285.423 88.5716C294.063 84.9966 303.218 83.1202 312.65 82.9853C312.821 82.9853 312.975 82.9915 313.134 82.9976C313.189 82.9976 313.25 82.9976 313.312 83.0037V73.6952C313.25 73.6952 313.189 73.6952 313.134 73.7014C312.975 73.7014 312.815 73.7136 312.662 73.7136C303.218 73.5849 294.063 71.7023 285.423 68.1273L284.166 67.6061L285.46 67.2014C294.48 64.3622 303.844 62.9089 313.306 62.866V53.5943C283.841 53.3919 259.908 29.4462 259.711 0H250.44C250.403 9.47405 248.943 18.8439 246.104 27.8641L245.7 29.158L245.178 27.9071C241.591 19.2547 239.715 10.0689 239.592 0.600945L239.604 0.153302C239.604 0.104245 239.604 0.05519 239.604 0.00613338H230.302C230.302 0.00613338 230.302 0.0613203 230.302 0.0858486C230.308 0.294339 230.314 0.441507 230.314 0.582545C230.192 10.0689 228.309 19.2547 224.728 27.9071L224.207 29.158L223.802 27.8641C220.963 18.85 219.503 9.48018 219.467 0H210.195C209.999 29.4523 186.059 53.3919 156.601 53.5943V62.866C166.179 62.9028 175.665 64.3929 184.79 67.2995C189.082 68.6669 193.301 70.3533 197.33 72.3155C200.647 73.9283 203.983 75.8231 207.245 77.9325L207.889 78.3495L207.245 78.7665C204.001 80.8636 200.69 82.74 197.391 84.3528L197.158 84.4693L196.931 84.3405C193.056 82.1636 189.045 80.3056 185.017 78.8155L183.76 78.3495L185.017 77.8896C187.328 77.0311 189.708 76.0193 192.105 74.8665C189.26 73.6217 186.341 72.5179 183.435 71.5919L178.958 70.1632C171.925 72.4259 164.64 73.6216 157.275 73.7198L156.926 73.732C156.809 73.732 156.711 73.7382 156.613 73.7382V82.9669C156.686 82.9669 156.76 82.9669 156.834 82.9731L157.269 82.9853C166.712 83.1141 175.88 84.9966 184.514 88.5716L185.765 89.0929L184.471 89.4976C175.451 92.3367 166.081 93.7962 156.607 93.8329V103.105C186.035 103.295 209.999 127.247 210.201 156.699H219.473C219.503 149.224 220.435 141.743 222.238 134.458L220.46 130.215C219.307 127.467 217.921 124.714 216.339 122.016C215.468 124.45 214.684 126.903 214.009 129.307L213.66 130.558L213.089 129.393C206.914 116.755 196.551 106.391 183.907 100.21L182.742 99.64L183.993 99.2905C188.31 98.0886 192.467 96.6415 196.361 94.9981L196.986 94.7221C197.784 94.3787 198.575 94.0169 199.298 93.6796L199.77 93.4589L201.371 92.6863C201.659 92.5514 201.935 92.4103 202.205 92.2815L202.628 92.0608C202.842 91.9565 203.057 91.8462 203.272 91.7358L203.719 91.5028L204.057 91.3249C204.897 90.8896 205.626 90.4971 206.307 90.1169L206.712 89.89C209.686 88.216 212.648 86.358 215.493 84.3589L215.8 84.1443L216.088 84.3834C220.748 88.2282 225.053 92.5391 228.898 97.1933L229.137 97.4815L228.922 97.7881C226.923 100.64 225.059 103.589 223.391 106.575L223.023 107.232L222.569 106.637C218.853 101.762 214.573 97.2731 209.851 93.2933L208.748 93.9127C206.16 95.3598 203.493 96.715 200.813 97.9353C207.681 103.129 213.543 109.39 218.246 116.552C220.117 119.416 221.784 122.372 223.213 125.376C223.704 126.407 224.17 127.449 224.599 128.467C228.26 137.181 230.185 146.446 230.314 156C230.314 156.178 230.308 156.337 230.302 156.497C230.302 156.558 230.302 156.625 230.296 156.687H239.604C239.604 156.619 239.604 156.552 239.598 156.484L239.586 156.018C239.721 146.446 241.64 137.181 245.301 128.467C247.012 124.389 249.14 120.391 251.635 116.583C256.345 109.39 262.207 103.123 269.087 97.9292C266.414 96.7089 263.746 95.3537 261.152 93.9004L260.049 93.2811C255.284 97.2976 251.028 101.768 247.325 106.624L246.871 107.219L246.503 106.563C245.601 104.957 244.59 103.295 243.357 101.382C241.665 103.577 240.04 105.901 238.525 108.286L237.618 109.715C238.893 111.886 239.972 113.891 240.947 115.89L241.064 116.123L240.935 116.35C238.764 120.213 236.906 124.224 235.41 128.265L234.944 129.522L234.478 128.265C232.988 124.224 231.13 120.213 228.953 116.35L228.824 116.123L228.941 115.89C232.148 109.163 239.267 98.5301 244.277 93.3056C253.113 84.083 262.06 77.908 268.057 74.6641C265.451 73.0759 262.961 71.3896 260.662 69.6419L259.65 68.8754C257.608 70.1325 255.952 71.2117 254.395 72.3033L254.088 72.5179L253.8 72.2787C250.268 69.366 246.895 66.1344 243.762 62.6636C241.898 65.2452 239.984 67.6797 238.071 69.9056L237.967 70.0283C240.567 72.8183 243.333 75.4858 246.19 77.9509L246.625 78.325L246.19 78.699C242.321 82.041 238.66 85.6957 235.318 89.5712L234.944 90.0065L234.57 89.5712C231.21 85.6712 227.512 81.9797 223.593 78.607L223.514 78.5396C221.018 76.3933 218.387 74.3514 215.695 72.4504L215.573 72.3646C212.691 70.341 209.71 68.4584 206.718 66.7844L205.835 66.49L206.657 65.9627C211.532 62.2467 216.02 57.9665 220 53.2386L219.381 52.1349C217.921 49.5287 216.572 46.8613 215.352 44.2C210.164 51.0618 203.909 56.924 196.753 61.6212L196.533 61.7622L196.287 61.658C192.4 60.0207 188.254 58.5858 183.98 57.3901L182.729 57.0405L183.894 56.4702C196.533 50.2953 206.902 39.9259 213.083 27.2816L213.653 26.1165L214.003 27.3674C215.205 31.6783 216.646 35.842 218.295 39.7358C219.718 43.1085 221.404 46.5363 223.299 49.9335C225.016 52.9995 226.899 55.9858 228.922 58.8801L229.137 59.1868L228.898 59.475C225.991 62.9948 222.759 66.3674 219.276 69.5132C221.858 71.3773 224.293 73.2905 226.512 75.2037L226.635 75.3141C229.462 72.6834 232.16 69.8811 234.656 66.9806L234.723 66.9009C236.869 64.399 238.911 61.7806 240.806 59.0948L240.898 58.9599C242.989 55.9797 244.878 52.9688 246.576 49.9396C248.441 46.6037 250.09 43.2556 251.494 39.9504L251.574 39.7604C253.242 35.799 254.683 31.6537 255.873 27.3674L256.222 26.1165L256.793 27.2816C262.968 39.9259 273.331 50.2891 285.975 56.4702L287.14 57.0405L285.889 57.3901C281.609 58.5858 277.47 60.0207 273.582 61.658L273.337 61.7622L273.116 61.6151C265.954 56.9179 259.699 51.0618 254.511 44.2C253.285 46.8797 251.93 49.5471 250.489 52.1349L249.869 53.2386C253.941 58.0646 258.46 62.357 263.36 66.0731C266.34 68.3358 269.541 70.433 272.883 72.3155C276.771 74.5047 280.8 76.375 284.859 77.8712L286.116 78.3311L284.859 78.7971C280.824 80.2872 276.814 82.1452 272.938 84.3221L272.711 84.4509L272.478 84.3405C270.418 83.3349 268.364 82.2249 266.205 80.9556L264.911 81.7957C262.514 83.3533 260.184 85.0212 257.988 86.7565C259.963 88.032 261.668 89.0622 263.311 89.982C266.641 91.84 269.995 93.4957 273.294 94.8999L273.423 94.9551L273.564 95.0165C277.445 96.6537 281.591 98.0886 285.877 99.2844L287.128 99.6339L285.963 100.204C273.325 106.379 262.955 116.749 256.78 129.387L256.21 130.552L255.86 129.301C255.192 126.903 254.407 124.45 253.53 122.01C251.948 124.702 250.562 127.455 249.409 130.208L247.631 134.446C249.44 141.755 250.366 149.23 250.397 156.687H259.668C259.871 127.247 283.823 103.301 313.269 103.092V93.8207L313.306 93.8329Z" fill="#FF7300"/>
<path d="M84.365 196.545C82.7584 199.838 80.8759 203.156 78.7787 206.399L78.3618 207.037L77.9447 206.399C75.8537 203.168 73.9712 199.85 72.3584 196.545L72.2419 196.312L72.3707 196.085C74.5415 192.222 76.3995 188.212 77.8957 184.165L78.3618 182.907L78.8278 184.165C80.324 188.212 82.1759 192.222 84.3527 196.085L84.4816 196.312L84.365 196.545ZM156.705 249.588C147.243 249.551 137.88 248.091 128.865 245.252L127.572 244.848L128.829 244.326C137.469 240.751 146.624 238.869 156.049 238.74C156.221 238.74 156.374 238.746 156.533 238.752C156.589 238.752 156.65 238.752 156.711 238.758V229.45C156.65 229.45 156.589 229.45 156.533 229.456C156.374 229.456 156.215 229.468 156.061 229.468C146.618 229.34 137.456 227.457 128.823 223.882L127.566 223.361L128.859 222.956C137.88 220.117 147.243 218.664 156.705 218.627V209.355C127.241 209.153 103.307 185.207 103.111 155.761H93.8391C93.8023 165.229 92.3428 174.605 89.5037 183.619L89.099 184.913L88.5777 183.656C84.9905 175.003 83.1141 165.817 82.9914 156.349L83.0037 155.902C83.0037 155.853 83.0037 155.804 83.0037 155.755H73.7013C73.7013 155.755 73.7013 155.81 73.7013 155.834C73.7075 156.043 73.7136 156.19 73.7136 156.331C73.591 165.817 71.7146 175.003 68.1273 183.656L67.6061 184.913L67.2014 183.619C64.3622 174.605 62.9028 165.229 62.866 155.761H53.5943C53.3981 185.213 29.4585 209.153 0 209.355V218.627C9.5783 218.664 19.0646 220.154 28.1891 223.06C32.4816 224.428 36.7005 226.114 40.7292 228.076C44.0467 229.695 47.3825 231.578 50.6448 233.693L51.2887 234.11L50.6448 234.527C47.4009 236.624 44.0896 238.501 40.7906 240.114L40.5575 240.23L40.3306 240.101C36.4552 237.924 32.4448 236.066 28.416 234.576L27.159 234.116L28.416 233.656C30.7278 232.798 33.1071 231.786 35.5047 230.633C32.6594 229.389 29.7406 228.285 26.834 227.359L22.3575 225.93C15.324 228.193 8.03912 229.389 0.668375 229.487L0.31888 229.499C0.20237 229.499 0.104257 229.505 0.0122761 229.505V238.734C0.085861 238.734 0.159437 238.734 0.233022 238.74L0.668375 238.752C10.1118 238.881 19.2792 240.764 27.9132 244.339L29.1641 244.86L27.8702 245.265C18.85 248.104 9.48019 249.563 0.00613806 249.6V258.872C29.4339 259.062 53.3981 283.014 53.6005 312.466H62.866C62.8967 304.991 63.8287 297.51 65.6316 290.225L63.8533 285.981C62.7004 283.234 61.3146 280.481 59.7325 277.789C58.8618 280.223 58.0768 282.676 57.4023 285.08L57.0528 286.331L56.4825 285.166C50.3075 272.528 39.9443 262.164 27.3 255.983L26.1349 255.413L27.3859 255.064C31.7028 253.862 35.8603 252.415 39.7542 250.771L40.3797 250.495C41.1768 250.152 41.974 249.79 42.6915 249.453L43.1637 249.232L44.7641 248.459C45.0523 248.324 45.3283 248.183 45.5981 248.055L46.0151 247.834C46.2297 247.73 46.4443 247.619 46.6589 247.509L47.1065 247.276L47.4438 247.098C48.2839 246.663 49.0198 246.27 49.6943 245.89L50.099 245.657C53.073 243.983 56.0349 242.125 58.8802 240.126L59.1868 239.911L59.475 240.15C64.1353 243.995 68.44 248.306 72.2849 252.96L72.524 253.248L72.3094 253.555C70.3104 256.406 68.4462 259.362 66.7783 262.342L66.4104 262.998L65.9565 262.404C62.2405 257.529 57.9603 253.04 53.2325 249.06L52.1287 249.68C49.541 251.127 46.8735 252.482 44.1938 253.702C51.0617 258.89 56.924 265.157 61.6212 272.319C63.4976 275.183 65.1594 278.139 66.5881 281.143C67.0787 282.173 67.5447 283.216 67.974 284.234C71.6348 292.947 73.5604 302.213 73.6891 311.767C73.6891 311.945 73.683 312.104 73.6769 312.263C73.6769 312.325 73.6768 312.392 73.6707 312.454H82.9792C82.9792 312.386 82.9791 312.319 82.973 312.251L82.9608 311.785C83.0957 302.213 85.015 292.947 88.6759 284.234C90.3867 280.156 92.5146 276.158 95.0042 272.35C99.7136 265.157 105.576 258.89 112.456 253.696C109.782 252.476 107.115 251.121 104.521 249.667L103.417 249.048C98.6528 253.065 94.3971 257.535 90.6934 262.391L90.2396 262.986L89.8716 262.33C88.9641 260.717 87.9585 259.062 86.7259 257.148C85.0335 259.35 83.4085 261.668 81.8938 264.053L80.9862 265.482C82.2617 267.659 83.341 269.658 84.316 271.663L84.4325 271.896L84.3037 272.123C82.1329 275.986 80.2749 279.997 78.7787 284.038L78.3188 285.295L77.8528 284.038C76.3627 279.997 74.5046 275.986 72.3278 272.123L72.199 271.896L72.3155 271.663C75.5226 264.936 82.6419 254.303 87.6518 249.079C96.4881 239.856 105.435 233.681 111.432 230.437C108.826 228.849 106.336 227.163 104.037 225.421L103.025 224.655C100.983 225.912 99.3211 226.991 97.7697 228.082L97.4631 228.297L97.1749 228.058C93.6428 225.145 90.2702 221.914 87.1367 218.443C85.2726 221.024 83.3593 223.459 81.4461 225.685L81.3358 225.807C83.9358 228.598 86.7013 231.265 89.565 233.73L90.0004 234.104L89.565 234.478C85.6957 237.82 82.0348 241.475 78.6928 245.35L78.3188 245.786L77.9447 245.35C74.5844 241.45 70.8867 237.759 66.9683 234.386L66.8886 234.319C64.3929 232.173 61.7622 230.131 59.0702 228.23L58.9476 228.138C56.0655 226.114 53.0853 224.231 50.0929 222.557L49.2099 222.263L50.0377 221.736C54.9127 218.02 59.4014 213.74 63.3811 209.012L62.7617 207.908C61.3023 205.302 59.9533 202.634 58.733 199.973C53.5453 206.835 47.2905 212.697 40.1344 217.394L39.9136 217.541L39.6683 217.437C35.7806 215.8 31.6354 214.365 27.3613 213.169L26.1103 212.82L27.2754 212.249C39.9136 206.074 50.283 195.705 56.4641 183.061L57.0344 181.896L57.3839 183.147C58.5858 187.464 60.0268 191.621 61.6763 195.515C63.099 198.888 64.7853 202.322 66.6801 205.713C68.3971 208.779 70.2797 211.765 72.3033 214.659L72.5179 214.966L72.2787 215.254C69.3721 218.774 66.1406 222.147 62.6575 225.292C65.2391 227.156 67.6735 229.07 69.8933 230.977L70.016 231.087C72.8429 228.456 75.541 225.654 78.0367 222.754L78.1042 222.674C80.2504 220.172 82.2924 217.554 84.1872 214.868L84.2792 214.733C86.3702 211.753 88.2589 208.742 89.9575 205.713C91.8216 202.383 93.4711 199.029 94.8754 195.723L94.9551 195.533C96.623 191.572 98.0641 187.427 99.2598 183.14L99.6093 181.89L100.18 183.055C106.355 195.699 116.718 206.062 129.362 212.243L130.527 212.814L129.276 213.163C124.996 214.359 120.857 215.794 116.969 217.431L116.724 217.535L116.503 217.388C109.341 212.691 103.086 206.835 97.8985 199.973C96.6721 202.653 95.3169 205.32 93.8759 207.908L93.2565 209.012C97.3282 213.838 101.848 218.13 106.747 221.846C109.727 224.103 112.928 226.206 116.27 228.089C120.158 230.278 124.187 232.148 128.246 233.644L129.503 234.104L128.246 234.564C124.211 236.054 120.201 237.912 116.331 240.089L116.105 240.218L115.872 240.101C113.811 239.096 111.757 237.986 109.598 236.716L108.305 237.556C105.907 239.114 103.577 240.782 101.382 242.517C103.356 243.793 105.061 244.823 106.704 245.743C110.034 247.601 113.388 249.256 116.687 250.661L116.816 250.716L116.957 250.771C120.839 252.408 124.984 253.843 129.27 255.039L130.521 255.389L129.356 255.959C116.718 262.134 106.349 272.503 100.174 285.141L99.6033 286.306L99.2537 285.056C98.5853 282.658 97.8004 280.205 96.9235 277.764C95.3414 280.45 93.9617 283.21 92.8027 285.963L91.0244 290.2C92.8334 297.516 93.7593 304.985 93.79 312.441H103.062C103.264 283.001 127.216 259.056 156.662 258.847V249.575L156.705 249.588Z" fill="#FF7300"/>
<path d="M240.972 196.545C239.365 199.838 237.483 203.156 235.385 206.399L234.968 207.037L234.551 206.399C232.46 203.168 230.578 199.85 228.965 196.545L228.849 196.312L228.977 196.085C231.148 192.222 233.006 188.212 234.502 184.165L234.968 182.907L235.428 184.165C236.925 188.212 238.776 192.222 240.953 196.085L241.082 196.312L240.966 196.545H240.972ZM313.306 249.588C303.844 249.551 294.48 248.091 285.46 245.252L284.166 244.848L285.423 244.326C294.063 240.751 303.218 238.869 312.65 238.74C312.821 238.74 312.975 238.746 313.134 238.752C313.189 238.752 313.25 238.752 313.312 238.758V229.45C313.25 229.45 313.189 229.45 313.134 229.456C312.975 229.456 312.815 229.468 312.662 229.468C303.218 229.34 294.063 227.457 285.423 223.882L284.166 223.361L285.46 222.956C294.48 220.117 303.844 218.664 313.306 218.627V209.355C283.841 209.153 259.908 185.207 259.711 155.761H250.44C250.403 165.229 248.943 174.605 246.104 183.619L245.7 184.913L245.178 183.656C241.591 175.003 239.715 165.817 239.592 156.349L239.604 155.902C239.604 155.853 239.604 155.804 239.604 155.755H230.302C230.302 155.755 230.302 155.81 230.302 155.834C230.308 156.043 230.314 156.19 230.314 156.331C230.192 165.817 228.309 175.003 224.728 183.656L224.207 184.913L223.802 183.619C220.963 174.605 219.503 165.229 219.467 155.761H210.195C209.999 185.213 186.059 209.153 156.601 209.355V218.627C166.179 218.664 175.665 220.154 184.79 223.06C189.082 224.428 193.301 226.114 197.33 228.076C200.647 229.695 203.983 231.578 207.245 233.693L207.889 234.11L207.245 234.527C204.001 236.624 200.69 238.501 197.391 240.114L197.158 240.23L196.931 240.101C193.056 237.924 189.045 236.066 185.017 234.576L183.76 234.116L185.017 233.656C187.328 232.798 189.708 231.786 192.105 230.633C189.26 229.389 186.341 228.285 183.435 227.359L178.958 225.93C171.925 228.193 164.64 229.389 157.275 229.487L156.926 229.499C156.809 229.499 156.711 229.505 156.613 229.505V238.734C156.686 238.734 156.76 238.734 156.834 238.74L157.269 238.752C166.712 238.881 175.88 240.764 184.514 244.339L185.765 244.86L184.471 245.265C175.451 248.104 166.081 249.563 156.607 249.6V258.872C186.035 259.062 209.999 283.014 210.201 312.466H219.473C219.503 304.991 220.435 297.51 222.238 290.225L220.46 285.981C219.307 283.234 217.921 280.481 216.339 277.789C215.468 280.223 214.684 282.676 214.009 285.08L213.66 286.331L213.089 285.166C206.914 272.528 196.551 262.164 183.907 255.983L182.742 255.413L183.993 255.064C188.31 253.862 192.467 252.415 196.361 250.771L196.986 250.495C197.784 250.152 198.575 249.79 199.298 249.453L199.77 249.232L201.371 248.459C201.659 248.324 201.935 248.183 202.205 248.055L202.628 247.834C202.842 247.73 203.057 247.619 203.272 247.509L203.719 247.276L204.057 247.098C204.897 246.663 205.626 246.27 206.307 245.89L206.712 245.657C209.686 243.983 212.648 242.125 215.493 240.126L215.8 239.911L216.088 240.15C220.748 243.995 225.053 248.306 228.898 252.96L229.137 253.248L228.922 253.555C226.923 256.406 225.059 259.362 223.391 262.342L223.023 262.998L222.569 262.404C218.853 257.529 214.573 253.04 209.851 249.06L208.748 249.68C206.16 251.127 203.493 252.482 200.813 253.702C207.681 258.89 213.543 265.157 218.246 272.319C220.117 275.183 221.784 278.139 223.213 281.143C223.704 282.173 224.17 283.216 224.599 284.234C228.26 292.947 230.185 302.213 230.314 311.767C230.314 311.945 230.308 312.104 230.302 312.263C230.302 312.325 230.302 312.392 230.296 312.454H239.604C239.604 312.386 239.604 312.319 239.598 312.251L239.586 311.785C239.721 302.213 241.64 292.947 245.301 284.234C247.012 280.156 249.14 276.158 251.635 272.35C256.345 265.157 262.207 258.89 269.087 253.696C266.414 252.476 263.746 251.121 261.152 249.667L260.049 249.048C255.284 253.065 251.028 257.535 247.325 262.391L246.871 262.986L246.503 262.33C245.601 260.717 244.59 259.062 243.357 257.148C241.665 259.35 240.04 261.668 238.525 264.053L237.618 265.482C238.893 267.659 239.972 269.658 240.947 271.663L241.064 271.896L240.935 272.123C238.764 275.986 236.906 279.997 235.41 284.038L234.944 285.295L234.478 284.038C232.988 279.997 231.13 275.986 228.953 272.123L228.824 271.896L228.941 271.663C232.148 264.936 239.267 254.303 244.277 249.079C253.113 239.856 262.06 233.681 268.057 230.437C265.451 228.849 262.961 227.163 260.662 225.421L259.65 224.655C257.608 225.912 255.952 226.991 254.395 228.082L254.088 228.297L253.8 228.058C250.268 225.145 246.895 221.914 243.762 218.443C241.898 221.024 239.984 223.459 238.071 225.685L237.967 225.807C240.567 228.598 243.333 231.265 246.19 233.73L246.625 234.104L246.19 234.478C242.321 237.82 238.66 241.475 235.318 245.35L234.944 245.786L234.57 245.35C231.21 241.45 227.512 237.759 223.593 234.386L223.514 234.319C221.018 232.173 218.387 230.131 215.695 228.23L215.573 228.138C212.691 226.114 209.71 224.231 206.718 222.557L205.835 222.263L206.657 221.736C211.532 218.02 216.02 213.74 220 209.012L219.381 207.908C217.921 205.302 216.572 202.634 215.352 199.973C210.164 206.835 203.909 212.697 196.753 217.394L196.533 217.541L196.287 217.437C192.4 215.8 188.254 214.365 183.98 213.169L182.729 212.82L183.894 212.249C196.533 206.074 206.902 195.705 213.083 183.061L213.653 181.896L214.003 183.147C215.205 187.464 216.646 191.621 218.295 195.515C219.718 198.888 221.404 202.322 223.299 205.713C225.016 208.779 226.899 211.765 228.922 214.659L229.137 214.966L228.898 215.254C225.991 218.774 222.759 222.147 219.276 225.292C221.858 227.156 224.293 229.07 226.512 230.977L226.635 231.087C229.462 228.456 232.16 225.654 234.656 222.754L234.723 222.674C236.869 220.172 238.911 217.554 240.806 214.868L240.898 214.733C242.989 211.753 244.878 208.742 246.576 205.713C248.441 202.383 250.09 199.029 251.494 195.723L251.574 195.533C253.242 191.572 254.683 187.427 255.873 183.14L256.222 181.89L256.793 183.055C262.968 195.699 273.331 206.062 285.975 212.243L287.14 212.814L285.889 213.163C281.609 214.359 277.47 215.794 273.582 217.431L273.337 217.535L273.116 217.388C265.954 212.691 259.699 206.835 254.511 199.973C253.285 202.653 251.93 205.32 250.489 207.908L249.869 209.012C253.941 213.838 258.46 218.13 263.36 221.846C266.34 224.103 269.541 226.206 272.883 228.089C276.771 230.278 280.8 232.148 284.859 233.644L286.116 234.104L284.859 234.564C280.824 236.054 276.814 237.912 272.938 240.089L272.711 240.218L272.478 240.101C270.418 239.096 268.364 237.986 266.205 236.716L264.911 237.556C262.514 239.114 260.184 240.782 257.988 242.517C259.963 243.793 261.668 244.823 263.311 245.743C266.641 247.601 269.995 249.256 273.294 250.661L273.423 250.716L273.564 250.771C277.445 252.408 281.591 253.843 285.877 255.039L287.128 255.389L285.963 255.959C273.325 262.134 262.955 272.503 256.78 285.141L256.21 286.306L255.86 285.056C255.192 282.658 254.407 280.205 253.53 277.764C251.948 280.45 250.562 283.21 249.409 285.963L247.631 290.2C249.44 297.516 250.366 304.985 250.397 312.441H259.668C259.871 283.001 283.823 259.056 313.269 258.847V249.575L313.306 249.588Z" fill="#FF7300"/>
<path d="M84.365 352.306C82.7584 355.599 80.8759 358.917 78.7787 362.161L78.3618 362.798L77.9447 362.161C75.8537 358.929 73.9712 355.612 72.3584 352.306L72.2419 352.073L72.3707 351.847C74.5415 347.983 76.3995 343.967 77.8957 339.926L78.3618 338.669L78.8278 339.926C80.324 343.967 82.1759 347.983 84.3527 351.847L84.4816 352.073L84.365 352.306ZM156.705 405.349C147.243 405.312 137.88 403.853 128.865 401.013L127.572 400.609L128.829 400.088C137.469 396.513 146.624 394.63 156.049 394.501C156.221 394.501 156.374 394.507 156.533 394.513C156.589 394.513 156.65 394.513 156.711 394.52V385.211C156.65 385.211 156.589 385.211 156.533 385.217C156.374 385.217 156.215 385.23 156.061 385.23C146.618 385.101 137.456 383.218 128.823 379.643L127.566 379.122L128.859 378.717C137.88 375.878 147.243 374.425 156.705 374.388V365.116C127.241 364.914 103.307 340.968 103.111 311.522H93.8391C93.8023 320.99 92.3428 330.366 89.5037 339.38L89.099 340.674L88.5777 339.423C84.9905 330.771 83.1141 321.585 82.9914 312.117L83.0037 311.669C83.0037 311.62 83.0037 311.571 83.0037 311.522H73.7013C73.7013 311.522 73.7013 311.577 73.7013 311.602C73.7075 311.81 73.7136 311.957 73.7136 312.105C73.591 321.591 71.7146 330.777 68.1273 339.429L67.6061 340.68L67.2014 339.386C64.3622 330.372 62.9028 321.002 62.866 311.528H53.5943C53.3981 340.981 29.4585 364.92 0 365.122V374.394C9.5783 374.431 19.0646 375.921 28.1891 378.828C32.4816 380.195 36.7005 381.881 40.7292 383.844C44.0467 385.456 47.3825 387.345 50.6448 389.461L51.2887 389.878L50.6448 390.295C47.4009 392.392 44.0896 394.268 40.7906 395.881L40.5575 395.997L40.3306 395.869C36.4552 393.692 32.4448 391.834 28.416 390.344L27.159 389.878L28.416 389.418C30.7278 388.559 33.1071 387.547 35.5047 386.395C32.6594 385.15 29.7406 384.046 26.834 383.12L22.3575 381.691C15.324 383.954 8.03912 385.15 0.668375 385.248L0.31888 385.26C0.20237 385.26 0.104257 385.266 0.0122761 385.266V394.495C0.085861 394.495 0.159437 394.495 0.233022 394.501L0.668375 394.513C10.1118 394.642 19.2792 396.525 27.9132 400.1L29.1641 400.621L27.8702 401.026C18.85 403.865 9.48019 405.324 0.00613806 405.361V414.633C29.4339 414.817 53.3981 438.775 53.6005 468.227H62.866C62.8967 460.752 63.8287 453.271 65.6316 445.986L63.8533 441.743C62.7004 438.996 61.3146 436.242 59.7325 433.55C58.8618 435.985 58.0768 438.431 57.4023 440.841L57.0528 442.092L56.4825 440.927C50.3075 428.289 39.9443 417.926 27.3 411.745L26.1349 411.174L27.3859 410.825C31.7028 409.623 35.8603 408.176 39.7542 406.532L40.3797 406.256C41.1768 405.913 41.974 405.551 42.6915 405.214L43.1637 404.993L44.7641 404.221C45.0523 404.086 45.3283 403.945 45.5981 403.81L46.0151 403.589C46.2297 403.479 46.4443 403.374 46.6589 403.264L47.1065 403.037L47.4438 402.859C48.2839 402.424 49.0198 402.025 49.6943 401.651L50.099 401.424C53.073 399.75 56.0349 397.892 58.8802 395.893L59.1868 395.679L59.475 395.918C64.1353 399.763 68.44 404.073 72.2849 408.728L72.524 409.016L72.3094 409.322C70.3104 412.174 68.4462 415.129 66.7783 418.11L66.4104 418.766L65.9565 418.171C62.2405 413.296 57.9603 408.807 53.2325 404.828L52.1287 405.447C49.541 406.894 46.8735 408.249 44.1938 409.47C51.0617 414.657 56.924 420.918 61.6212 428.087C63.4976 430.95 65.1594 433.906 66.5881 436.911C67.0787 437.941 67.5447 438.983 67.974 440.001C71.6348 448.715 73.5604 457.98 73.6891 467.534C73.6891 467.712 73.683 467.871 73.6769 468.031C73.6769 468.092 73.6768 468.16 73.6707 468.221H82.9792C82.9792 468.154 82.9791 468.086 82.973 468.019L82.9608 467.553C83.0957 457.98 85.015 448.715 88.6759 440.001C90.3867 435.923 92.5146 431.925 95.0042 428.117C99.7136 420.924 105.576 414.657 112.456 409.463C109.782 408.243 107.115 406.888 104.521 405.435L103.417 404.815C98.6528 408.832 94.3971 413.302 90.6934 418.159L90.2396 418.754L89.8716 418.097C88.9641 416.491 87.9585 414.829 86.7259 412.916C85.0335 415.111 83.4085 417.435 81.8938 419.821L80.9862 421.249C82.2617 423.42 83.341 425.425 84.316 427.43L84.4325 427.663L84.3037 427.89C82.1329 431.754 80.2749 435.764 78.7787 439.805L78.3188 441.062L77.8528 439.805C76.3627 435.764 74.5046 431.754 72.3278 427.89L72.199 427.663L72.3155 427.43C75.5226 420.704 82.6419 410.071 87.6518 404.846C96.4881 395.623 105.435 389.448 111.432 386.205C108.826 384.616 106.336 382.93 104.037 381.188L103.025 380.422C100.983 381.679 99.3211 382.758 97.7697 383.85L97.4631 384.064L97.1749 383.825C93.6428 380.913 90.2702 377.681 87.1367 374.21C85.2726 376.792 83.3593 379.226 81.4461 381.452L81.3358 381.575C83.9358 384.365 86.7013 387.032 89.565 389.497L90.0004 389.871L89.565 390.246C85.6957 393.588 82.0348 397.242 78.6928 401.118L78.3188 401.553L77.9447 401.118C74.5844 397.218 70.8867 393.526 66.9683 390.154L66.8886 390.086C64.3929 387.94 61.7622 385.898 59.0702 383.997L58.9476 383.911C56.0655 381.888 53.0853 380.005 50.0929 378.331L49.2099 378.037L50.0377 377.509C54.9127 373.793 59.4014 369.513 63.3811 364.785L62.7617 363.681C61.3023 361.075 59.9533 358.408 58.733 355.747C53.5453 362.608 47.2905 368.471 40.1344 373.168L39.9136 373.315L39.6683 373.211C35.7806 371.573 31.6354 370.139 27.3613 368.943L26.1103 368.593L27.2754 368.023C39.9136 361.848 50.283 351.479 56.4641 338.834L57.0344 337.663L57.3839 338.914C58.5858 343.225 60.0268 347.388 61.6763 351.282C63.099 354.655 64.7853 358.089 66.6801 361.48C68.3971 364.546 70.2797 367.532 72.3033 370.427L72.5179 370.733L72.2787 371.021C69.3721 374.541 66.1406 377.914 62.6575 381.06C65.2391 382.924 67.6735 384.837 69.8933 386.744L70.016 386.855C72.8429 384.224 75.541 381.422 78.0367 378.521L78.1042 378.441C80.2504 375.946 82.2924 373.321 84.1872 370.635L84.2792 370.5C86.3702 367.52 88.2589 364.509 89.9575 361.48C91.8216 358.15 93.4711 354.796 94.8754 351.497L94.9551 351.307C96.623 347.346 98.0641 343.2 99.2598 338.914L99.6093 337.663L100.18 338.834C106.355 351.479 116.718 361.842 129.362 368.023L130.527 368.593L129.276 368.943C124.996 370.132 120.857 371.573 116.969 373.211L116.724 373.315L116.503 373.168C109.341 368.471 103.086 362.614 97.8985 355.753C96.6721 358.432 95.3169 361.1 93.8759 363.688L93.2565 364.791C97.3282 369.617 101.848 373.91 106.747 377.626C109.727 379.882 112.928 381.986 116.27 383.868C120.158 386.057 124.187 387.921 128.246 389.424L129.503 389.884L128.246 390.35C124.211 391.84 120.201 393.698 116.331 395.875L116.105 396.004L115.872 395.893C113.811 394.888 111.757 393.778 109.598 392.508L108.305 393.348C105.907 394.906 103.577 396.574 101.382 398.309C103.356 399.585 105.061 400.615 106.704 401.535C110.034 403.393 113.388 405.048 116.687 406.453L116.816 406.508L116.957 406.563C120.839 408.2 124.984 409.635 129.27 410.831L130.521 411.18L129.356 411.751C116.718 417.926 106.349 428.295 100.174 440.933L99.6033 442.098L99.2537 440.847C98.5853 438.45 97.8004 435.997 96.9235 433.556C95.3414 436.248 93.9617 439.002 92.8027 441.755L91.0244 445.992C92.8334 453.308 93.7593 460.777 93.79 468.233H103.062C103.264 438.793 127.216 414.847 156.662 414.639V405.367L156.705 405.349Z" fill="#FF7300"/>
<path d="M240.972 352.306C239.365 355.599 237.483 358.917 235.385 362.161L234.968 362.798L234.551 362.161C232.46 358.929 230.578 355.612 228.965 352.306L228.849 352.073L228.977 351.847C231.148 347.983 233.006 343.967 234.502 339.926L234.968 338.669L235.428 339.926C236.925 343.967 238.776 347.983 240.953 351.847L241.082 352.073L240.966 352.306H240.972ZM313.306 405.349C303.844 405.312 294.48 403.853 285.46 401.013L284.166 400.609L285.423 400.088C294.063 396.513 303.218 394.63 312.65 394.501C312.821 394.501 312.975 394.507 313.134 394.513C313.189 394.513 313.25 394.513 313.312 394.52V385.211C313.25 385.211 313.189 385.211 313.134 385.217C312.975 385.217 312.815 385.23 312.662 385.23C303.218 385.101 294.063 383.218 285.423 379.643L284.166 379.122L285.46 378.717C294.48 375.878 303.844 374.425 313.306 374.388V365.116C283.841 364.914 259.908 340.968 259.711 311.522H250.44C250.403 320.99 248.943 330.366 246.104 339.38L245.7 340.674L245.178 339.423C241.591 330.771 239.715 321.585 239.592 312.117L239.604 311.669C239.604 311.62 239.604 311.571 239.604 311.522H230.302C230.302 311.522 230.302 311.577 230.302 311.602C230.308 311.81 230.314 311.957 230.314 312.105C230.192 321.591 228.309 330.777 224.728 339.429L224.207 340.68L223.802 339.386C220.963 330.372 219.503 321.002 219.467 311.528H210.195C209.999 340.981 186.059 364.92 156.601 365.122V374.394C166.179 374.431 175.665 375.921 184.79 378.828C189.082 380.195 193.301 381.881 197.33 383.844C200.647 385.456 203.983 387.345 207.245 389.461L207.889 389.878L207.245 390.295C204.001 392.392 200.69 394.268 197.391 395.881L197.158 395.997L196.931 395.869C193.056 393.692 189.045 391.834 185.017 390.344L183.76 389.878L185.017 389.418C187.328 388.559 189.708 387.547 192.105 386.395C189.26 385.15 186.341 384.046 183.435 383.12L178.958 381.691C171.925 383.954 164.64 385.15 157.275 385.248L156.926 385.26C156.809 385.26 156.711 385.266 156.613 385.266V394.495C156.686 394.495 156.76 394.495 156.834 394.501L157.269 394.513C166.712 394.642 175.88 396.525 184.514 400.1L185.765 400.621L184.471 401.026C175.451 403.865 166.081 405.324 156.607 405.361V414.633C186.035 414.817 209.999 438.775 210.201 468.227H219.473C219.503 460.752 220.435 453.271 222.238 445.986L220.46 441.743C219.307 438.996 217.921 436.242 216.339 433.55C215.468 435.985 214.684 438.431 214.009 440.841L213.66 442.092L213.089 440.927C206.914 428.289 196.551 417.926 183.907 411.745L182.742 411.174L183.993 410.825C188.31 409.623 192.467 408.176 196.361 406.532L196.986 406.256C197.784 405.913 198.575 405.551 199.298 405.214L199.77 404.993L201.371 404.221C201.659 404.086 201.935 403.945 202.205 403.81L202.628 403.589C202.842 403.479 203.057 403.374 203.272 403.264L203.719 403.037L204.057 402.859C204.897 402.424 205.626 402.025 206.307 401.651L206.712 401.424C209.686 399.75 212.648 397.892 215.493 395.893L215.8 395.679L216.088 395.918C220.748 399.763 225.053 404.073 228.898 408.728L229.137 409.016L228.922 409.322C226.923 412.174 225.059 415.129 223.391 418.11L223.023 418.766L222.569 418.171C218.853 413.296 214.573 408.807 209.851 404.828L208.748 405.447C206.16 406.894 203.493 408.249 200.813 409.47C207.681 414.657 213.543 420.918 218.246 428.087C220.117 430.95 221.784 433.906 223.213 436.911C223.704 437.941 224.17 438.983 224.599 440.001C228.26 448.715 230.185 457.98 230.314 467.534C230.314 467.712 230.308 467.871 230.302 468.031C230.302 468.092 230.302 468.16 230.296 468.221H239.604C239.604 468.154 239.604 468.086 239.598 468.019L239.586 467.553C239.721 457.98 241.64 448.715 245.301 440.001C247.012 435.923 249.14 431.925 251.635 428.117C256.345 420.924 262.207 414.657 269.087 409.463C266.414 408.243 263.746 406.888 261.152 405.435L260.049 404.815C255.284 408.832 251.028 413.302 247.325 418.159L246.871 418.754L246.503 418.097C245.601 416.491 244.59 414.829 243.357 412.916C241.665 415.111 240.04 417.435 238.525 419.821L237.618 421.249C238.893 423.42 239.972 425.425 240.947 427.43L241.064 427.663L240.935 427.89C238.764 431.754 236.906 435.764 235.41 439.805L234.944 441.062L234.478 439.805C232.988 435.764 231.13 431.754 228.953 427.89L228.824 427.663L228.941 427.43C232.148 420.704 239.267 410.071 244.277 404.846C253.113 395.623 262.06 389.448 268.057 386.205C265.451 384.616 262.961 382.93 260.662 381.188L259.65 380.422C257.608 381.679 255.952 382.758 254.395 383.85L254.088 384.064L253.8 383.825C250.268 380.913 246.895 377.681 243.762 374.21C241.898 376.792 239.984 379.226 238.071 381.452L237.967 381.575C240.567 384.365 243.333 387.032 246.19 389.497L246.625 389.871L246.19 390.246C242.321 393.588 238.66 397.242 235.318 401.118L234.944 401.553L234.57 401.118C231.21 397.218 227.512 393.526 223.593 390.154L223.514 390.086C221.018 387.94 218.387 385.898 215.695 383.997L215.573 383.911C212.691 381.888 209.71 380.005 206.718 378.331L205.835 378.037L206.657 377.509C211.532 373.793 216.02 369.513 220 364.785L219.381 363.681C217.921 361.075 216.572 358.408 215.352 355.747C210.164 362.608 203.909 368.471 196.753 373.168L196.533 373.315L196.287 373.211C192.4 371.573 188.254 370.139 183.98 368.943L182.729 368.593L183.894 368.023C196.533 361.848 206.902 351.479 213.083 338.834L213.653 337.663L214.003 338.914C215.205 343.225 216.646 347.388 218.295 351.282C219.718 354.655 221.404 358.089 223.299 361.48C225.016 364.546 226.899 367.532 228.922 370.427L229.137 370.733L228.898 371.021C225.991 374.541 222.759 377.914 219.276 381.06C221.858 382.924 224.293 384.837 226.512 386.744L226.635 386.855C229.462 384.224 232.16 381.422 234.656 378.521L234.723 378.441C236.869 375.946 238.911 373.321 240.806 370.635L240.898 370.5C242.989 367.52 244.878 364.509 246.576 361.48C248.441 358.15 250.09 354.796 251.494 351.497L251.574 351.307C253.242 347.346 254.683 343.2 255.873 338.914L256.222 337.663L256.793 338.834C262.968 351.479 273.331 361.842 285.975 368.023L287.14 368.593L285.889 368.943C281.609 370.132 277.47 371.573 273.582 373.211L273.337 373.315L273.116 373.168C265.954 368.471 259.699 362.614 254.511 355.753C253.285 358.432 251.93 361.1 250.489 363.688L249.869 364.791C253.941 369.617 258.46 373.91 263.36 377.626C266.34 379.882 269.541 381.986 272.883 383.868C276.771 386.057 280.8 387.921 284.859 389.424L286.116 389.884L284.859 390.35C280.824 391.84 276.814 393.698 272.938 395.875L272.711 396.004L272.478 395.893C270.418 394.888 268.364 393.778 266.205 392.508L264.911 393.348C262.514 394.906 260.184 396.574 257.988 398.309C259.963 399.585 261.668 400.615 263.311 401.535C266.641 403.393 269.995 405.048 273.294 406.453L273.423 406.508L273.564 406.563C277.445 408.2 281.591 409.635 285.877 410.831L287.128 411.18L285.963 411.751C273.325 417.926 262.955 428.295 256.78 440.933L256.21 442.098L255.86 440.847C255.192 438.45 254.407 435.997 253.53 433.556C251.948 436.248 250.562 439.002 249.409 441.755L247.631 445.992C249.44 453.308 250.366 460.777 250.397 468.233H259.668C259.871 438.793 283.823 414.847 313.269 414.639V405.367L313.306 405.349Z" fill="#FF7300"/>
<path d="M84.365 508.067C82.7584 511.36 80.8759 514.677 78.7787 517.921L78.3618 518.559L77.9447 517.921C75.8537 514.69 73.9712 511.372 72.3584 508.067L72.2419 507.834L72.3707 507.607C74.5415 503.744 76.3995 499.727 77.8957 495.686L78.3618 494.429L78.8278 495.686C80.324 499.733 82.1759 503.738 84.3527 507.607L84.4816 507.834L84.365 508.067ZM156.705 561.109C147.243 561.073 137.88 559.613 128.865 556.774L127.572 556.369L128.829 555.848C137.469 552.273 146.624 550.391 156.049 550.262C156.221 550.262 156.374 550.262 156.533 550.274C156.589 550.274 156.65 550.274 156.711 550.28V540.972C156.65 540.972 156.589 540.972 156.533 540.978C156.374 540.978 156.215 540.99 156.061 540.99C146.618 540.861 137.456 538.979 128.823 535.404L127.566 534.882L128.859 534.478C137.88 531.639 147.243 530.185 156.705 530.149V520.877C127.241 520.674 103.307 496.729 103.111 467.283H93.8391C93.8023 476.75 92.3428 486.126 89.5037 495.141L89.099 496.434L88.5777 495.183C84.9905 486.531 83.1141 477.345 82.9914 467.877L83.0037 467.43C83.0037 467.381 83.0037 467.332 83.0037 467.283H73.7013C73.7013 467.283 73.7013 467.332 73.7013 467.362C73.7075 467.571 73.7136 467.718 73.7136 467.859C73.591 477.345 71.7146 486.531 68.1273 495.183L67.6061 496.434L67.2014 495.141C64.3622 486.126 62.9028 476.757 62.866 467.283H53.5943C53.3981 496.735 29.4585 520.674 0 520.877V530.149C9.5783 530.185 19.0646 531.675 28.1891 534.582C32.4816 535.949 36.7005 537.636 40.7292 539.598C44.0467 541.211 47.3825 543.106 50.6448 545.215L51.2887 545.632L50.6448 546.049C47.4009 548.146 44.0896 550.023 40.7906 551.635L40.5575 551.752L40.3306 551.623C36.4552 549.446 32.4448 547.588 28.416 546.098L27.159 545.638L28.416 545.172C30.7278 544.314 33.1071 543.302 35.5047 542.149C32.6594 540.904 29.7406 539.8 26.834 538.874L22.3575 537.446C15.324 539.708 8.03912 540.904 0.668375 541.002L0.31888 541.015C0.20237 541.015 0.104257 541.021 0.0122761 541.021V550.249C0.085861 550.249 0.159437 550.249 0.233022 550.256L0.668375 550.268C10.1118 550.397 19.2792 552.279 27.9132 555.854L29.1641 556.375L27.8702 556.78C18.85 559.619 9.48019 561.079 0.00613806 561.115V570.387C29.4339 570.577 53.3981 594.529 53.6005 623.981H62.866C62.8967 616.506 63.8287 609.025 65.6316 601.74L63.8533 597.497C62.7004 594.75 61.3146 591.997 59.7325 589.305C58.8618 591.739 58.0768 594.186 57.4023 596.596L57.0528 597.847L56.4825 596.681C50.3075 584.043 39.9443 573.68 27.3 567.499L26.1349 566.929L27.3859 566.579C31.7028 565.377 35.8603 563.936 39.7542 562.287L40.3797 562.011C41.1768 561.667 41.974 561.306 42.6915 560.968L43.1637 560.748L44.7641 559.981C45.0523 559.846 45.3283 559.705 45.5981 559.57L46.0151 559.349C46.2297 559.239 46.4443 559.135 46.6589 559.024L47.1065 558.798L47.4438 558.62C48.2839 558.184 49.0198 557.786 49.6943 557.412L50.099 557.185C53.073 555.511 56.0349 553.653 58.8802 551.654L59.1868 551.439L59.475 551.678C64.1353 555.523 68.44 559.834 72.2849 564.488L72.524 564.776L72.3094 565.083C70.3104 567.934 68.4462 570.89 66.7783 573.87L66.4104 574.526L65.9565 573.932C62.2405 569.057 57.9603 564.568 53.2325 560.588L52.1287 561.207C49.541 562.655 46.8735 564.01 44.1938 565.23C51.0617 570.418 56.924 576.679 61.6212 583.847C63.4976 586.711 65.1594 589.666 66.5881 592.671C67.0787 593.701 67.5447 594.744 67.974 595.762C71.6348 604.475 73.5604 613.741 73.6891 623.295C73.6891 623.466 73.683 623.632 73.6769 623.791C73.6769 623.853 73.6768 623.92 73.6707 623.981H82.9792C82.9792 623.914 82.9791 623.847 82.973 623.779L82.9608 623.313C83.0957 613.741 85.015 604.475 88.6759 595.762C90.3867 591.684 92.5146 587.686 95.0042 583.878C99.7136 576.691 105.576 570.418 112.456 565.224C109.782 564.004 107.115 562.649 104.521 561.195L103.417 560.576C98.6528 564.592 94.3971 569.063 90.6934 573.919L90.2396 574.514L89.8716 573.858C88.9641 572.245 87.9585 570.59 86.7259 568.676C85.0335 570.872 83.4085 573.196 81.8938 575.581L80.9862 577.01C82.2617 579.181 83.341 581.186 84.316 583.191L84.4325 583.424L84.3037 583.651C82.1329 587.514 80.2749 591.524 78.7787 595.565L78.3188 596.823L77.8528 595.565C76.3627 591.524 74.5046 587.514 72.3278 583.651L72.199 583.424L72.3155 583.191C75.5226 576.464 82.6419 565.831 87.6518 560.607C96.4881 551.384 105.435 545.209 111.432 541.965C108.826 540.377 106.336 538.691 104.037 536.949L103.025 536.182C100.983 537.44 99.3211 538.519 97.7697 539.61L97.4631 539.825L97.1749 539.586C93.6428 536.673 90.2702 533.441 87.1367 529.971C85.2726 532.552 83.3593 534.987 81.4461 537.213L81.3358 537.335C83.9358 540.125 86.7013 542.793 89.565 545.258L90.0004 545.632L89.565 546.006C85.6957 549.342 82.0348 553.003 78.6928 556.878L78.3188 557.314L77.9447 556.878C74.5844 552.978 70.8867 549.287 66.9683 545.914L66.8886 545.847C64.3929 543.707 61.7622 541.658 59.0702 539.758L58.9476 539.666C56.0655 537.642 53.0853 535.759 50.0929 534.085L49.2099 533.791L50.0377 533.264C54.9127 529.548 59.4014 525.267 63.3811 520.54L62.7617 519.436C61.3023 516.83 59.9533 514.162 58.733 511.501C53.5453 518.363 47.2905 524.225 40.1344 528.922L39.9136 529.069L39.6683 528.965C35.7806 527.328 31.6354 525.893 27.3613 524.697L26.1103 524.348L27.2754 523.777C39.9136 517.602 50.283 507.233 56.4641 494.589L57.0344 493.424L57.3839 494.675C58.5858 498.991 60.0268 503.149 61.6763 507.049C63.099 510.422 64.7853 513.856 66.6801 517.247C68.3971 520.313 70.2797 523.299 72.3033 526.193L72.5179 526.5L72.2787 526.788C69.3721 530.308 66.1406 533.681 62.6575 536.826C65.2391 538.691 67.6735 540.604 69.8933 542.517L70.016 542.627C72.8429 539.997 75.541 537.194 78.0367 534.294L78.1042 534.214C80.2504 531.718 82.2924 529.094 84.1872 526.408L84.2792 526.273C86.3702 523.293 88.2589 520.282 89.9575 517.253C91.8216 513.923 93.4711 510.569 94.8754 507.27L94.9551 507.08C96.623 503.118 98.0641 498.973 99.2598 494.687L99.6093 493.436L100.18 494.601C106.355 507.245 116.718 517.608 129.362 523.79L130.527 524.36L129.276 524.709C124.996 525.905 120.857 527.34 116.969 528.977L116.724 529.082L116.503 528.934C109.341 524.237 103.086 518.381 97.8985 511.519C96.6721 514.199 95.3169 516.866 93.8759 519.454L93.2565 520.558C97.3282 525.384 101.848 529.676 106.747 533.392C109.727 535.655 112.928 537.752 116.27 539.635C120.158 541.824 124.187 543.694 128.246 545.191L129.503 545.657L128.246 546.116C124.211 547.607 120.201 549.465 116.331 551.641L116.105 551.77L115.872 551.654C113.811 550.648 111.757 549.538 109.598 548.269L108.305 549.109C105.907 550.666 103.577 552.334 101.382 554.07C103.356 555.345 105.061 556.375 106.704 557.295C110.034 559.153 113.388 560.809 116.687 562.213L116.816 562.268L116.957 562.33C120.839 563.967 124.984 565.402 129.27 566.598L130.521 566.947L129.356 567.517C116.718 573.692 106.349 584.062 100.174 596.7L99.6033 597.865L99.2537 596.614C98.5853 594.216 97.8004 591.764 96.9235 589.323C95.3414 592.015 93.9617 594.768 92.8027 597.522L91.0244 601.759C92.8334 609.074 93.7593 616.543 93.79 624H103.062C103.264 594.56 127.216 570.614 156.662 570.406V561.134L156.705 561.109Z" fill="#FF7300"/>
<path d="M240.972 508.067C239.365 511.36 237.483 514.677 235.385 517.921L234.968 518.559L234.551 517.921C232.46 514.69 230.578 511.372 228.965 508.067L228.849 507.834L228.977 507.607C231.148 503.744 233.006 499.727 234.502 495.686L234.968 494.429L235.428 495.686C236.925 499.733 238.776 503.738 240.953 507.607L241.082 507.834L240.966 508.067H240.972ZM313.306 561.109C303.844 561.073 294.48 559.613 285.46 556.774L284.166 556.369L285.423 555.848C294.063 552.273 303.218 550.391 312.65 550.262C312.821 550.262 312.975 550.262 313.134 550.274C313.189 550.274 313.25 550.274 313.312 550.28V540.972C313.25 540.972 313.189 540.972 313.134 540.978C312.975 540.978 312.815 540.99 312.662 540.99C303.218 540.861 294.063 538.979 285.423 535.404L284.166 534.882L285.46 534.478C294.48 531.639 303.844 530.185 313.306 530.149V520.877C283.841 520.674 259.908 496.729 259.711 467.283H250.44C250.403 476.75 248.943 486.126 246.104 495.141L245.7 496.434L245.178 495.183C241.591 486.531 239.715 477.345 239.592 467.877L239.604 467.43C239.604 467.381 239.604 467.332 239.604 467.283H230.302C230.302 467.283 230.302 467.332 230.302 467.362C230.308 467.571 230.314 467.718 230.314 467.859C230.192 477.345 228.309 486.531 224.728 495.183L224.207 496.434L223.802 495.141C220.963 486.126 219.503 476.757 219.467 467.283H210.195C209.999 496.735 186.059 520.674 156.601 520.877V530.149C166.179 530.185 175.665 531.675 184.79 534.582C189.082 535.949 193.301 537.636 197.33 539.598C200.647 541.211 203.983 543.106 207.245 545.215L207.889 545.632L207.245 546.049C204.001 548.146 200.69 550.023 197.391 551.635L197.158 551.752L196.931 551.623C193.056 549.446 189.045 547.588 185.017 546.098L183.76 545.638L185.017 545.172C187.328 544.314 189.708 543.302 192.105 542.149C189.26 540.904 186.341 539.8 183.435 538.874L178.958 537.446C171.925 539.708 164.64 540.904 157.275 541.002L156.926 541.015C156.809 541.015 156.711 541.021 156.613 541.021V550.249C156.686 550.249 156.76 550.249 156.834 550.256L157.269 550.268C166.712 550.397 175.88 552.279 184.514 555.854L185.765 556.375L184.471 556.78C175.451 559.619 166.081 561.079 156.607 561.115V570.387C186.035 570.577 209.999 594.529 210.201 623.981H219.473C219.503 616.506 220.435 609.025 222.238 601.74L220.46 597.497C219.307 594.75 217.921 591.997 216.339 589.305C215.468 591.739 214.684 594.186 214.009 596.596L213.66 597.847L213.089 596.681C206.914 584.043 196.551 573.68 183.907 567.499L182.742 566.929L183.993 566.579C188.31 565.377 192.467 563.936 196.361 562.287L196.986 562.011C197.784 561.667 198.575 561.306 199.298 560.968L199.77 560.748L201.371 559.981C201.659 559.846 201.935 559.705 202.205 559.57L202.628 559.349C202.842 559.239 203.057 559.135 203.272 559.024L203.719 558.798L204.057 558.62C204.897 558.184 205.626 557.786 206.307 557.412L206.712 557.185C209.686 555.511 212.648 553.653 215.493 551.654L215.8 551.439L216.088 551.678C220.748 555.523 225.053 559.834 228.898 564.488L229.137 564.776L228.922 565.083C226.923 567.934 225.059 570.89 223.391 573.87L223.023 574.526L222.569 573.932C218.853 569.057 214.573 564.568 209.851 560.588L208.748 561.207C206.16 562.655 203.493 564.01 200.813 565.23C207.681 570.418 213.543 576.679 218.246 583.847C220.117 586.711 221.784 589.666 223.213 592.671C223.704 593.701 224.17 594.744 224.599 595.762C228.26 604.475 230.185 613.741 230.314 623.295C230.314 623.466 230.308 623.632 230.302 623.791C230.302 623.853 230.302 623.92 230.296 623.981H239.604C239.604 623.914 239.604 623.847 239.598 623.779L239.586 623.313C239.721 613.741 241.64 604.475 245.301 595.762C247.012 591.684 249.14 587.686 251.635 583.878C256.345 576.691 262.207 570.418 269.087 565.224C266.414 564.004 263.746 562.649 261.152 561.195L260.049 560.576C255.284 564.592 251.028 569.063 247.325 573.919L246.871 574.514L246.503 573.858C245.601 572.245 244.59 570.59 243.357 568.676C241.665 570.872 240.04 573.196 238.525 575.581L237.618 577.01C238.893 579.181 239.972 581.186 240.947 583.191L241.064 583.424L240.935 583.651C238.764 587.514 236.906 591.524 235.41 595.565L234.944 596.823L234.478 595.565C232.988 591.524 231.13 587.514 228.953 583.651L228.824 583.424L228.941 583.191C232.148 576.464 239.267 565.831 244.277 560.607C253.113 551.384 262.06 545.209 268.057 541.965C265.451 540.377 262.961 538.691 260.662 536.949L259.65 536.182C257.608 537.44 255.952 538.519 254.395 539.61L254.088 539.825L253.8 539.586C250.268 536.673 246.895 533.441 243.762 529.971C241.898 532.552 239.984 534.987 238.071 537.213L237.967 537.335C240.567 540.125 243.333 542.793 246.19 545.258L246.625 545.632L246.19 546.006C242.321 549.342 238.66 553.003 235.318 556.878L234.944 557.314L234.57 556.878C231.21 552.978 227.512 549.287 223.593 545.914L223.514 545.847C221.018 543.707 218.387 541.658 215.695 539.758L215.573 539.666C212.691 537.642 209.71 535.759 206.718 534.085L205.835 533.791L206.657 533.264C211.532 529.548 216.02 525.267 220 520.54L219.381 519.436C217.921 516.83 216.572 514.162 215.352 511.501C210.164 518.363 203.909 524.225 196.753 528.922L196.533 529.069L196.287 528.965C192.4 527.328 188.254 525.893 183.98 524.697L182.729 524.348L183.894 523.777C196.533 517.602 206.902 507.233 213.083 494.589L213.653 493.424L214.003 494.675C215.205 498.991 216.646 503.149 218.295 507.049C219.718 510.422 221.404 513.856 223.299 517.247C225.016 520.313 226.899 523.299 228.922 526.193L229.137 526.5L228.898 526.788C225.991 530.308 222.759 533.681 219.276 536.826C221.858 538.691 224.293 540.604 226.512 542.517L226.635 542.627C229.462 539.997 232.16 537.194 234.656 534.294L234.723 534.214C236.869 531.718 238.911 529.094 240.806 526.408L240.898 526.273C242.989 523.293 244.878 520.282 246.576 517.253C248.441 513.923 250.09 510.569 251.494 507.27L251.574 507.08C253.242 503.118 254.683 498.973 255.873 494.687L256.222 493.436L256.793 494.601C262.968 507.245 273.331 517.608 285.975 523.79L287.14 524.36L285.889 524.709C281.609 525.905 277.47 527.34 273.582 528.977L273.337 529.082L273.116 528.934C265.954 524.237 259.699 518.381 254.511 511.519C253.285 514.199 251.93 516.866 250.489 519.454L249.869 520.558C253.941 525.384 258.46 529.676 263.36 533.392C266.34 535.655 269.541 537.752 272.883 539.635C276.771 541.824 280.8 543.694 284.859 545.191L286.116 545.657L284.859 546.116C280.824 547.607 276.814 549.465 272.938 551.641L272.711 551.77L272.478 551.654C270.418 550.648 268.364 549.538 266.205 548.269L264.911 549.109C262.514 550.666 260.184 552.334 257.988 554.07C259.963 555.345 261.668 556.375 263.311 557.295C266.641 559.153 269.995 560.809 273.294 562.213L273.423 562.268L273.564 562.33C277.445 563.967 281.591 565.402 285.877 566.598L287.128 566.947L285.963 567.517C273.325 573.692 262.955 584.062 256.78 596.7L256.21 597.865L255.86 596.614C255.192 594.216 254.407 591.764 253.53 589.323C251.948 592.015 250.562 594.768 249.409 597.522L247.631 601.759C249.44 609.074 250.366 616.543 250.397 624H259.668C259.871 594.56 283.823 570.614 313.269 570.406V561.134L313.306 561.109Z" fill="#FF7300"/>
</svg>
