<svg width="122" height="123" viewBox="0 0 122 123" fill="none" xmlns="http://www.w3.org/2000/svg">
<path d="M65.6818 32.0022C64.4333 34.5886 62.9625 37.1923 61.3292 39.7355L61.0043 40.2356L60.6793 39.7355C59.046 37.2009 57.5838 34.5972 56.3268 32.0022L56.2413 31.8212L56.3439 31.6488C58.037 28.6141 59.4822 25.4673 60.6451 22.2947L61.0043 21.3118L61.3634 22.2947C62.5264 25.4673 63.9715 28.6141 65.6647 31.6488L65.7587 31.8212L65.6732 32.0022H65.6818ZM122 73.6431C114.637 73.6086 107.343 72.4706 100.323 70.2377L99.3137 69.9187L100.288 69.5135C107.018 66.7029 114.141 65.2287 121.487 65.1339C121.624 65.1339 121.743 65.1339 121.863 65.1425C121.906 65.1425 121.957 65.1425 122 65.1425V57.8403C121.949 57.8403 121.906 57.8403 121.863 57.8403C121.743 57.8403 121.615 57.8403 121.495 57.8489C114.141 57.7454 107.01 56.2712 100.288 53.4606L99.3137 53.0554L100.323 52.7365C107.343 50.5122 114.637 49.3655 122 49.3397V42.0633C99.0571 41.8995 80.4326 23.1137 80.2701 0H73.0529C73.0273 7.43155 71.89 14.7855 69.6752 21.8636L69.3588 22.8809L68.9569 21.8981C66.1692 15.1045 64.6984 7.8971 64.6043 0.465547V0.112074C64.6043 0.112074 64.6129 0.0344852 64.6214 0H57.3786C57.3786 0 57.3786 0.0431062 57.3786 0.0603488C57.3786 0.224153 57.3871 0.336229 57.3871 0.456927C57.2931 7.8971 55.8308 15.1131 53.0346 21.9067L52.6326 22.8895L52.3163 21.8722C50.11 14.7941 48.9727 7.44017 48.9471 0.00861985H41.7299C41.5759 23.1223 22.9343 41.9167 0 42.0719V49.3483C7.45665 49.3741 14.8449 50.5466 21.9424 52.8313C25.2859 53.9089 28.5696 55.228 31.7079 56.7712C34.2903 58.0385 36.8899 59.5214 39.421 61.1767L39.9256 61.5043L39.421 61.8319C36.8984 63.4786 34.316 64.9528 31.7506 66.2202L31.571 66.3064L31.4 66.2029C28.3814 64.4959 25.2603 63.0389 22.122 61.8664L21.1471 61.5043L22.122 61.1422C23.9177 60.4697 25.7733 59.6766 27.6375 58.7714C25.4227 57.7971 23.1481 56.9264 20.882 56.2022L17.4017 55.0814C11.9289 56.8574 6.25093 57.7971 0.521624 57.8747H0.247982C0.153919 57.8834 0.0769594 57.892 0.00854977 57.892V65.1339C0.0684082 65.1339 0.119716 65.1339 0.179574 65.1339H0.521624C7.87566 65.2459 15.0159 66.7202 21.7286 69.5307L22.7034 69.9359L21.6944 70.2549C14.6739 72.4878 7.37969 73.6258 0 73.6603V80.9367C22.9087 81.0833 41.5674 99.8863 41.7213 123H48.9385C48.9642 117.129 49.691 111.266 51.0934 105.542L49.7081 102.214C48.8103 100.059 47.7328 97.8948 46.5014 95.7826C45.8173 97.6965 45.2102 99.619 44.6886 101.507L44.4149 102.49L43.9703 101.576C39.1645 91.653 31.0922 83.5231 21.2497 78.6693L20.3433 78.221L21.3181 77.9451C24.6788 76.9968 27.9197 75.8674 30.9468 74.5742L31.4342 74.3587C32.0585 74.0914 32.6741 73.8069 33.2385 73.5396L33.6062 73.3672L34.8547 72.7637C35.0856 72.6516 35.2994 72.5482 35.5046 72.4447L35.8295 72.2723C36.0006 72.1861 36.163 72.0999 36.3255 72.0137L36.6761 71.8326L36.9412 71.6947C37.5911 71.3498 38.164 71.0395 38.6942 70.7463L39.0106 70.5653C41.328 69.2548 43.6282 67.7979 45.8515 66.2202L46.091 66.0477L46.3133 66.2374C49.939 69.2549 53.2911 72.6344 56.284 76.2898L56.4721 76.514L56.3011 76.7554C54.7448 78.9969 53.2996 81.316 51.9913 83.6524L51.7091 84.1697L51.3585 83.7041C48.4682 79.8763 45.1332 76.3502 41.4562 73.2293L40.5926 73.7121C38.5745 74.8501 36.5051 75.9105 34.4186 76.8761C39.7631 80.9539 44.3294 85.8681 47.9893 91.4892C49.4431 93.7393 50.7428 96.0584 51.8545 98.4121C52.2393 99.2225 52.5984 100.041 52.9319 100.835C55.7795 107.671 57.276 114.948 57.3786 122.448C57.3786 122.586 57.3786 122.707 57.37 122.836C57.37 122.888 57.37 122.931 57.37 122.983H64.6129C64.6129 122.931 64.6129 122.879 64.6129 122.828V122.457C64.7069 114.948 66.2034 107.671 69.051 100.835C70.3849 97.6361 72.0439 94.498 73.985 91.5064C77.6535 85.8595 82.2198 80.9453 87.5729 76.8674C85.4949 75.9105 83.417 74.8414 81.3989 73.7034L80.5438 73.2206C76.8326 76.376 73.5232 79.8849 70.6415 83.6955L70.2909 84.1611L70.0087 83.6438C69.3075 82.3765 68.5208 81.0746 67.563 79.5745C66.2462 81.2988 64.9806 83.1179 63.8005 84.9973L63.0908 86.1181C64.0827 87.8251 64.9293 89.3942 65.6818 90.9633L65.7673 91.1443L65.6647 91.3254C63.9715 94.3601 62.5264 97.5068 61.3634 100.679L61.0043 101.662L60.6451 100.679C59.4822 97.5068 58.037 94.3601 56.3439 91.3254L56.2413 91.1443L56.3268 90.9633C58.8237 85.687 64.3649 77.333 68.2643 73.2379C75.148 65.996 82.1086 61.1508 86.7776 58.6075C84.751 57.3661 82.8098 56.0384 81.0226 54.6676L80.2359 54.0641C78.6454 55.047 77.3542 55.9005 76.1399 56.754L75.9005 56.9264L75.6781 56.7367C72.9332 54.4521 70.2994 51.9174 67.8623 49.1845C66.4086 51.2105 64.9207 53.1244 63.4328 54.8659L63.3473 54.9607C65.3739 57.1506 67.5288 59.2455 69.7522 61.1767L70.0942 61.4698L69.7522 61.7629C66.7336 64.3838 63.886 67.2547 61.2865 70.298L60.9957 70.6343L60.705 70.298C58.0883 67.2375 55.2066 64.3407 52.1538 61.694L52.0939 61.6422C50.1528 59.9611 48.1091 58.3489 46.0055 56.8574L45.9114 56.7885C43.671 55.2021 41.3451 53.7279 39.0191 52.4088L38.3265 52.1761L38.9678 51.7622C42.7646 48.8482 46.262 45.4859 49.3575 41.7788L48.8787 40.908C47.7499 38.8648 46.6896 36.7698 45.7404 34.6748C41.7042 40.0632 36.83 44.6583 31.2632 48.3482L31.0922 48.4603L30.904 48.3827C27.8769 47.0981 24.6531 45.9687 21.3267 45.0376L20.3519 44.7618L21.2583 44.3134C31.1007 39.4683 39.1731 31.3298 43.9788 21.3981L44.4235 20.4842L44.6971 21.467C45.6292 24.8552 46.758 28.1227 48.0407 31.1746C49.1523 33.8213 50.4606 36.5112 51.94 39.1752C53.274 41.5805 54.7448 43.9255 56.3182 46.1929L56.4892 46.4343L56.3011 46.6584C54.0436 49.4172 51.521 52.0726 48.8103 54.5383C50.8198 56.0039 52.7182 57.504 54.4455 59.0041L54.5396 59.0903C56.7372 57.0299 58.8408 54.8228 60.7819 52.5468L60.8333 52.4778C62.5007 50.5208 64.0913 48.4603 65.5706 46.3481L65.6476 46.2446C67.2723 43.9082 68.7431 41.546 70.0686 39.1665C71.5223 36.5543 72.8049 33.9248 73.8995 31.3298L73.9593 31.1832C75.2591 28.0709 76.3793 24.8207 77.3114 21.4584L77.5851 20.4756L78.0297 21.3894C82.8355 31.3125 90.9078 39.451 100.75 44.2962L101.657 44.7445L100.682 45.0204C97.3469 45.9601 94.1231 47.0809 91.1045 48.3655L90.9164 48.443L90.7454 48.331C85.17 44.6411 80.3043 40.0459 76.2596 34.6576C75.3019 36.7612 74.2501 38.8562 73.1213 40.8908L72.6425 41.7615C75.815 45.5463 79.3295 48.9172 83.1433 51.8398C85.4607 53.6158 87.9577 55.2625 90.5572 56.7367C93.5844 58.4524 96.7226 59.918 99.878 61.0991L100.853 61.4612L99.878 61.8233C96.7312 62.9958 93.61 64.4528 90.6 66.1598L90.4204 66.2633L90.2408 66.177C88.6418 65.3925 87.0427 64.5218 85.3581 63.5217L84.3491 64.1855C82.4763 65.4098 80.672 66.7202 78.9618 68.0824C80.501 69.0824 81.8264 69.8928 83.1006 70.6084C85.6916 72.0654 88.3083 73.3672 90.8736 74.4707L90.9762 74.5138L91.0874 74.5569C94.1145 75.8415 97.3383 76.9709 100.673 77.902L101.648 78.1779L100.742 78.6262C90.8993 83.4714 82.8355 91.6099 78.0212 101.533L77.5765 102.447L77.3029 101.464C76.7812 99.5846 76.1741 97.662 75.49 95.7395C74.2586 97.8517 73.1812 100.016 72.2833 102.171L70.898 105.499C72.309 111.241 73.0273 117.103 73.0529 122.957H80.2701C80.4326 99.8518 99.0742 81.0574 122 80.8936V73.6172V73.6431Z" fill="white"/>
</svg>
