<svg width="260" height="124" viewBox="0 0 260 124" fill="none" xmlns="http://www.w3.org/2000/svg">
<path d="M150.26 22.4678V59.5953L161.488 59.5794V22.4678H150.26Z" fill="white"/>
<path d="M172.997 22.1138C170.496 21.1781 167.901 21.7067 165.966 23.3509C163.09 25.7985 162.751 30.0753 165.173 32.9142C167.975 36.1919 172.907 36.2659 175.783 33.0041C177.194 31.4023 177.696 29.4304 177.358 27.3211C176.967 24.8892 175.117 22.9015 172.991 22.1138" fill="white"/>
<path d="M129.182 50.0478C126.898 51.0258 124.35 51.0205 122.098 50.1852C118.197 48.7314 115.902 44.9621 115.95 40.865C115.987 37.9046 117.229 35.2349 119.37 33.4533C121.728 31.4973 124.789 30.8365 127.765 31.5396C132.021 32.5493 134.844 36.3926 134.944 40.7276C135.04 44.7242 132.957 48.4248 129.177 50.0425M125.138 21.5956C113.751 21.7859 104.7 30.9052 105.509 42.4774C105.884 47.8169 108.448 52.6488 112.619 56.0004C122.146 63.6501 136.89 61.2923 143.028 50.4178C144.555 47.7058 145.317 44.83 145.433 41.7215C145.867 30.2708 136.462 21.4053 125.138 21.5956Z" fill="white"/>
<path d="M62.3601 50.772C58.3899 50.9677 54.8162 48.816 53.2196 45.1366C51.0257 40.0668 53.1668 33.8921 58.374 31.9255C60.8481 30.9898 63.613 31.0321 65.9814 32.174C69.2908 33.7705 71.2521 37.0429 71.3525 40.6536C71.5005 45.9771 67.8422 50.5077 62.3601 50.7773M71.0935 22.4732L71.03 26.8293C69.2062 24.5032 65.9919 22.6529 63.1954 22.0185C57.5599 20.7445 51.7658 22.3674 47.5049 26.2583C42.2659 31.0426 40.3733 37.8623 41.5205 44.8247C42.176 48.8055 44.0581 52.3792 46.8811 55.2075C50.1429 58.4798 54.3827 60.3354 59.0031 60.4729C63.6712 60.6103 67.948 58.7547 71.0247 55.2392L71.0935 59.59L82.3009 59.5794V22.4679L71.0882 22.4732H71.0935Z" fill="white"/>
<path d="M89.4855 0V59.6006L100.725 59.5741L100.719 0H89.4855Z" fill="white"/>
<path d="M42.8369 22.4255H31.6083L21.4158 52.6381L11.2286 22.4255H0L12.5185 59.5529L21.4158 59.5423L30.3184 59.5529L42.8369 22.4255Z" fill="white"/>
<path d="M233.074 82.8405C233.808 80.3664 235.526 78.3363 237.853 77.242C239.349 76.6235 240.845 76.3697 242.462 76.5336C245.878 76.7662 248.738 79.2403 249.309 82.8299L233.074 82.8405ZM256.72 75.5186C254.51 71.9713 251.196 69.3333 247.157 68.1756C244.138 67.3139 240.993 67.1553 237.921 67.7209C229.267 69.3122 222.897 76.7239 222.289 85.4044C221.665 94.3546 226.999 102.496 235.579 105.298C240.29 106.836 245.571 106.556 250.144 104.526C253.659 102.966 256.493 100.466 258.549 97.1829L250.63 91.7324C249.916 92.7369 249.303 93.6356 248.473 94.3916C245.106 98.0499 238.535 98.0181 235.098 94.3916C233.888 93.1175 233.084 91.5527 232.709 89.8557H259.934C260.268 84.9022 259.353 79.7425 256.72 75.5186Z" fill="white"/>
<path d="M95.433 95.7553C93.0117 96.8814 90.2257 96.8549 87.815 95.8769C84.162 94.3914 82.0051 90.8177 81.9575 86.9215C81.9152 82.8932 84.1303 79.256 87.9049 77.7652C90.2574 76.8348 92.9218 76.8348 95.2479 77.8392C98.7053 79.33 100.809 82.6817 100.942 86.4193C101.084 90.3525 99.0912 94.0584 95.4277 95.7553M104.885 71.2522C101.766 68.7569 97.9811 67.3983 93.9633 67.4089C91.2513 67.3454 88.7402 68.0115 86.3877 69.2962C84.8017 70.1367 83.5065 71.268 82.3593 72.632L82.3065 68.2706L71.099 68.2812V123.938H82.3276L82.3382 101.021C88.8882 108.718 100.772 107.56 107.116 100.307C110.537 96.5748 112.154 91.7323 112.133 86.6678C112.107 80.6464 109.601 75.0215 104.891 71.2575" fill="white"/>
<path d="M208.591 67.9798C202.089 66.3198 196.644 68.223 191.986 72.9809C188.761 68.0644 183.3 66.5894 177.723 67.8001C174.879 68.5666 172.426 70.2107 170.639 72.5104L170.618 68.2706H159.4V105.393H170.629V84.8228C170.639 80.9107 172.764 77.4163 176.957 77.448C180.837 77.4797 182.629 80.0067 182.899 83.702L182.909 105.398H194.133L194.143 84.6166C194.238 80.8684 196.247 77.6013 200.154 77.4639C204.198 77.3211 206.218 79.9803 206.408 83.8077L206.419 105.403H217.647V80.6094C217.552 74.5774 214.438 69.7402 208.597 67.9904" fill="white"/>
<path d="M133.913 98.4619L123.726 68.2704H112.503L125.016 105.398L131.577 105.387L125.355 123.832L136.578 123.848L155.329 68.2704H144.101L133.913 98.4619Z" fill="white"/>
</svg>
