<svg width="188" height="152" viewBox="0 0 188 152" fill="none" xmlns="http://www.w3.org/2000/svg">
<path d="M101.232 79.177V104.19L108.797 104.18V79.177H101.232Z" fill="white"/>
<path d="M116.548 78.9393C114.862 78.3113 113.115 78.666 111.813 79.7756C109.877 81.4253 109.646 84.305 111.279 86.2183C113.167 88.4244 116.489 88.4765 118.428 86.2769C119.382 85.1966 119.717 83.869 119.489 82.4503C119.225 80.8103 117.976 79.473 116.548 78.9393Z" fill="white"/>
<path d="M87.0316 97.7599C85.4925 98.4172 83.7745 98.4172 82.2614 97.851C79.6323 96.8716 78.0867 94.3336 78.1192 91.5743C78.1452 89.5796 78.9815 87.7802 80.4262 86.5828C82.0141 85.265 84.0771 84.8192 86.0815 85.2943C88.9482 85.9743 90.8517 88.5644 90.9168 91.4832C90.9786 94.1741 89.5794 96.6699 87.0316 97.7599ZM84.3049 78.5913C76.6322 78.7182 70.5344 84.8615 71.081 92.6611C71.3316 96.2566 73.0594 99.5138 75.8708 101.769C82.2874 106.923 92.2216 105.335 96.3573 98.0072C97.3887 96.1818 97.8996 94.2425 97.9777 92.1502C98.2705 84.4352 91.9352 78.4644 84.3049 78.5913Z" fill="white"/>
<path d="M42.011 98.2479C39.3363 98.3781 36.9284 96.9268 35.8546 94.4506C34.3773 91.0373 35.8188 86.8756 39.3265 85.548C40.9925 84.9167 42.857 84.946 44.4514 85.7139C46.6803 86.7877 48.0046 88.9939 48.073 91.4245C48.1738 95.0103 45.7074 98.0657 42.0142 98.2447M47.894 79.1801L47.8517 82.1151C46.6217 80.5468 44.4579 79.3005 42.5739 78.8743C38.7799 78.0185 34.8719 79.1085 32.0053 81.7312C28.478 84.9558 27.2025 89.547 27.9737 94.2391C28.4162 96.9203 29.682 99.3282 31.5823 101.235C33.7819 103.438 36.6355 104.691 39.7495 104.782C42.896 104.876 45.7757 103.627 47.8484 101.258L47.894 104.19L55.4463 104.183V79.1769L47.8907 79.1801H47.894Z" fill="white"/>
<path d="M60.2847 64.0398V104.193L67.8565 104.177V64.0398H60.2847Z" fill="white"/>
<path d="M28.8587 79.1509H21.2935L14.4277 99.504L7.56529 79.1509H0L8.43408 104.164L14.4277 104.154L20.4247 104.164L28.8587 79.1509Z" fill="white"/>
<path d="M169.407 123.82C169.905 122.154 171.06 120.784 172.628 120.046C173.637 119.629 174.643 119.46 175.736 119.571C178.036 119.727 179.966 121.393 180.347 123.811L169.41 123.82H169.407ZM185.338 118.887C183.848 116.499 181.619 114.719 178.892 113.941C176.859 113.359 174.74 113.255 172.668 113.636C166.84 114.706 162.548 119.701 162.138 125.548C161.718 131.578 165.31 137.064 171.093 138.951C174.268 139.989 177.822 139.797 180.903 138.434C183.272 137.382 185.179 135.697 186.568 133.484L181.235 129.811C180.753 130.488 180.34 131.096 179.784 131.6C177.516 134.067 173.087 134.044 170.774 131.6C169.96 130.741 169.417 129.69 169.163 128.545H187.502C187.726 125.206 187.112 121.731 185.335 118.884" fill="white"/>
<path d="M76.6778 132.518C75.0443 133.276 73.1668 133.26 71.5464 132.599C69.0865 131.6 67.632 129.192 67.6027 126.567C67.5734 123.853 69.0669 121.403 71.6082 120.397C73.1929 119.769 74.989 119.772 76.5541 120.449C78.8807 121.451 80.2994 123.713 80.3905 126.231C80.4881 128.88 79.1442 131.376 76.6778 132.521M83.0457 116.011C80.9436 114.332 78.3926 113.414 75.6886 113.421C73.8599 113.379 72.1712 113.828 70.5833 114.693C69.516 115.259 68.6439 116.021 67.8695 116.942L67.8337 114.003L60.2847 114.01V151.508H67.8467L67.8532 136.068C72.2655 141.255 80.2733 140.474 84.5457 135.586C86.8494 133.071 87.9395 129.811 87.9265 126.397C87.9102 122.343 86.2214 118.552 83.0489 116.014" fill="white"/>
<path d="M152.916 113.808C148.537 112.692 144.866 113.974 141.73 117.176C139.556 113.863 135.879 112.871 132.121 113.684C130.204 114.202 128.551 115.311 127.351 116.857L127.338 114H119.779V139.009H127.344V125.151C127.351 122.515 128.782 120.16 131.607 120.186C134.223 120.208 135.43 121.91 135.609 124.399L135.615 139.016H143.178L143.184 125.014C143.249 122.489 144.599 120.287 147.235 120.195C149.962 120.101 151.319 121.891 151.449 124.468L151.459 139.016H159.021V122.314C158.959 118.25 156.86 114.992 152.923 113.811" fill="white"/>
<path d="M102.602 134.343L95.7423 114.003H88.177L96.6111 139.016L101.027 139.009L96.8356 151.436L104.401 151.446L117.033 114.003H109.467L102.602 134.343Z" fill="white"/>
<path d="M151.446 20.6036C150.635 22.2696 149.685 23.9454 148.625 25.5821L148.416 25.9042L148.205 25.5821C147.147 23.9486 146.197 22.2729 145.38 20.6036L145.322 20.4865L145.387 20.3726C146.484 18.4203 147.424 16.3931 148.179 14.3497L148.413 13.7151L148.647 14.3497C149.402 16.3931 150.339 18.4203 151.439 20.3726L151.504 20.4865L151.446 20.6036ZM187.997 47.4059C183.217 47.3864 178.486 46.651 173.93 45.2161L173.276 45.0111L173.911 44.7475C178.274 42.9416 182.904 41.9914 187.665 41.9264C187.749 41.9264 187.831 41.9296 187.909 41.9329C187.938 41.9329 187.967 41.9329 188 41.9361V37.2343C187.967 37.2343 187.938 37.2343 187.909 37.2375C187.827 37.2375 187.749 37.244 187.671 37.244C182.901 37.1789 178.274 36.2288 173.907 34.4229L173.273 34.1593L173.927 33.9543C178.482 32.5194 183.217 31.784 187.997 31.7645V27.0789C173.11 26.9747 161.019 14.88 160.915 0H156.232C156.213 4.78647 155.477 9.52088 154.042 14.0763L153.837 14.7304L153.574 14.0958C151.761 9.72588 150.811 5.08258 150.749 0.299358L150.756 0.0715856C150.756 0.0455545 150.756 0.0227772 150.759 0H146.057C146.057 0 146.057 0.0260311 146.057 0.0390467C146.061 0.143171 146.064 0.218011 146.064 0.29285C146.002 5.08583 145.052 9.72588 143.239 14.0991L142.976 14.7336L142.771 14.0796C141.336 9.52414 140.6 4.78973 140.581 0.00325389H135.899C135.798 14.8833 123.703 26.9813 108.82 27.0821V31.7645C113.658 31.7807 118.455 32.5356 123.062 34.0064C125.229 34.6962 127.36 35.552 129.397 36.5412C131.073 37.3579 132.759 38.3113 134.405 39.3786L134.727 39.5868L134.405 39.7951C132.768 40.8526 131.093 41.8027 129.427 42.6162L129.309 42.6748L129.196 42.6097C127.237 41.5099 125.213 40.5695 123.173 39.8178L122.538 39.5836L123.173 39.3493C124.341 38.9165 125.545 38.4057 126.755 37.82C125.317 37.192 123.843 36.6323 122.375 36.1637L120.114 35.4414C116.561 36.5835 112.881 37.1887 109.158 37.2375L108.982 37.244C108.924 37.244 108.872 37.2473 108.826 37.2473V41.9101C108.865 41.9101 108.901 41.9101 108.937 41.9134L109.158 41.9199C113.932 41.9849 118.562 42.9351 122.925 44.741L123.56 45.0045L122.906 45.2095C118.35 46.6445 113.613 47.3799 108.826 47.3994V52.085C123.697 52.1794 135.804 64.2838 135.905 79.1639H140.587C140.604 75.3861 141.072 71.6083 141.983 67.9282L141.085 65.7839C140.503 64.3977 139.803 63.0051 139.003 61.6417C138.56 62.8717 138.167 64.1081 137.825 65.3251L137.649 65.9563L137.36 65.3674C134.239 58.98 129.004 53.7445 122.616 50.6208L122.027 50.3312L122.662 50.1555C124.842 49.547 126.944 48.8181 128.913 47.9884L129.228 47.8484C129.632 47.6727 130.032 47.4905 130.396 47.3213L130.634 47.2107L131.441 46.8202C131.587 46.7519 131.727 46.6803 131.864 46.6152L132.075 46.5046C132.183 46.4493 132.293 46.3972 132.401 46.3419L132.625 46.2248L132.798 46.1369C133.221 45.9156 133.592 45.7171 133.933 45.5284L134.138 45.4113C135.642 44.5685 137.135 43.6282 138.577 42.6162L138.733 42.5056L138.879 42.626C141.232 44.5685 143.409 46.7454 145.351 49.0979L145.472 49.2444L145.361 49.4006C144.352 50.8388 143.412 52.3323 142.566 53.8389L142.38 54.1708L142.149 53.8681C140.272 51.4049 138.108 49.137 135.723 47.1261L135.166 47.4385C133.858 48.1706 132.511 48.8539 131.158 49.4721C134.63 52.0948 137.591 55.2576 139.963 58.8791C140.91 60.3271 141.752 61.8206 142.471 63.337C142.719 63.8576 142.956 64.3847 143.171 64.8988C145.019 69.3013 145.992 73.9804 146.061 78.8125C146.061 78.9003 146.061 78.9817 146.054 79.063C146.054 79.0956 146.054 79.1281 146.051 79.1574H150.753C150.753 79.1248 150.753 79.089 150.749 79.0565L150.743 78.8222C150.811 73.9869 151.784 69.3046 153.632 64.9021C154.498 62.8391 155.572 60.8217 156.831 58.8987C159.209 55.2641 162.174 52.098 165.649 49.4721C164.299 48.8539 162.951 48.1706 161.64 47.4385L161.084 47.1261C158.676 49.1565 156.525 51.4147 154.654 53.8681L154.423 54.1708L154.238 53.8389C153.779 53.0254 153.271 52.1891 152.646 51.2195C151.791 52.3291 150.971 53.5037 150.206 54.7076L149.747 55.43C150.391 56.5298 150.938 57.5418 151.429 58.5505L151.488 58.6676L151.423 58.7815C150.326 60.7338 149.386 62.761 148.631 64.8045L148.397 65.439L148.163 64.8045C147.408 62.761 146.47 60.7371 145.374 58.7848L145.309 58.6709L145.367 58.5537C146.988 55.1567 150.587 49.7813 153.115 47.1424C157.583 42.4828 162.099 39.3623 165.132 37.7223C163.814 36.9186 162.558 36.0661 161.396 35.1876L160.885 34.8003C159.854 35.4349 159.014 35.9815 158.23 36.5314L158.074 36.6421L157.927 36.5217C156.144 35.0509 154.439 33.4174 152.855 31.6636C151.911 32.9684 150.945 34.1984 149.981 35.321L149.926 35.3828C151.241 36.795 152.637 38.1421 154.081 39.3851L154.299 39.5738L154.081 39.7625C152.126 41.448 150.278 43.2963 148.589 45.2551L148.4 45.4731L148.211 45.2551C146.513 43.2832 144.645 41.4188 142.663 39.7137L142.621 39.6779C141.359 38.5944 140.031 37.5596 138.671 36.5998L138.609 36.5542C137.151 35.5325 135.648 34.5823 134.135 33.7331L133.689 33.5834L134.106 33.3166C136.569 31.4391 138.837 29.2785 140.848 26.8869L140.535 26.3305C139.8 25.0126 139.117 23.6655 138.502 22.3217C135.879 25.7903 132.72 28.7514 129.104 31.1235L128.994 31.195L128.87 31.143C126.905 30.3132 124.813 29.5909 122.652 28.9889L122.018 28.8132L122.606 28.5236C128.994 25.4031 134.229 20.1644 137.353 13.7737L137.643 13.1848L137.818 13.8193C138.427 15.9994 139.156 18.1014 139.985 20.07C140.705 21.775 141.554 23.5094 142.514 25.2242C143.383 26.773 144.333 28.2828 145.358 29.7438L145.465 29.9L145.345 30.0464C143.877 31.823 142.244 33.5313 140.483 35.1192C141.788 36.0629 143.018 37.026 144.141 37.9924L144.203 38.0477C145.631 36.7169 146.994 35.3014 148.254 33.8372L148.286 33.7949C149.37 32.5324 150.404 31.2048 151.361 29.8512L151.407 29.7829C152.464 28.2763 153.421 26.7567 154.277 25.2274C155.217 23.5419 156.05 21.8499 156.763 20.1806L156.802 20.083C157.648 18.0819 158.37 15.9864 158.975 13.8225L159.151 13.188L159.441 13.777C162.561 20.1644 167.8 25.4031 174.187 28.5268L174.776 28.8164L174.145 28.9922C171.984 29.5941 169.892 30.3197 167.927 31.1462L167.803 31.1983L167.692 31.1267C164.074 28.7546 160.915 25.7936 158.295 22.3249C157.677 23.6786 156.99 25.0257 156.261 26.3337L155.949 26.8901C158.006 29.3273 160.29 31.4977 162.766 33.3751C164.273 34.5173 165.89 35.578 167.578 36.5314C169.544 37.6377 171.578 38.5814 173.631 39.3363L174.265 39.5706L173.631 39.8048C171.591 40.5565 169.563 41.4969 167.608 42.5967L167.494 42.6617L167.377 42.6032C166.336 42.0956 165.298 41.5359 164.207 40.8916L163.553 41.3179C162.34 42.1053 161.165 42.9481 160.055 43.8266C161.054 44.4709 161.913 44.9915 162.743 45.4568C164.425 46.3972 166.121 47.2335 167.787 47.9428L167.852 47.9721L167.923 48.0014C169.885 48.8279 171.978 49.5535 174.145 50.1555L174.776 50.3312L174.187 50.6208C167.8 53.7412 162.564 58.98 159.441 65.3674L159.154 65.9563L158.978 65.3251C158.64 64.1146 158.246 62.8749 157.804 61.6384C157.007 62.9953 156.307 64.388 155.721 65.7806L154.823 67.9217C155.738 71.6181 156.206 75.3894 156.222 79.1606H160.905C161.009 64.2871 173.11 52.1891 187.987 52.0818V47.3962L187.997 47.4059Z" fill="white"/>
</svg>
