<svg width="316" height="70" viewBox="0 0 316 70" fill="none" xmlns="http://www.w3.org/2000/svg">
<path d="M299.994 32.5487C300.434 31.0804 301.453 29.8724 302.833 29.2213C303.722 28.8533 304.611 28.7036 305.575 28.8013C307.606 28.9413 309.306 30.4096 309.641 32.5422L299.994 32.5487ZM314.046 28.1957C312.731 26.0891 310.765 24.5198 308.362 23.8328C306.568 23.3184 304.699 23.2272 302.872 23.5626C297.731 24.5068 293.942 28.912 293.583 34.0692C293.212 39.3893 296.383 44.2275 301.482 45.8912C304.282 46.8061 307.421 46.6368 310.136 45.4354C312.223 44.5107 313.91 43.0228 315.134 41.0693L310.429 37.8297C310.003 38.4256 309.641 38.9628 309.15 39.4088C307.147 41.5837 303.24 41.5642 301.202 39.4088C300.483 38.6502 300.004 37.7223 299.783 36.713H315.961C316.159 33.7697 315.616 30.7027 314.05 28.1924" fill="white"/>
<path d="M176.415 23.9143V45.9792L183.086 45.9694V23.9143H176.415Z" fill="white"/>
<path d="M189.927 23.7026C188.439 23.1491 186.899 23.4617 185.75 24.4384C184.044 25.8938 183.838 28.4366 185.281 30.1199C186.944 32.0669 189.875 32.1125 191.587 30.172C192.427 29.218 192.724 28.0459 192.525 26.7957C192.294 25.3501 191.19 24.1714 189.93 23.6993" fill="white"/>
<path d="M163.89 40.3042C162.532 40.8837 161.018 40.8837 159.68 40.3856C157.362 39.5228 155.998 37.2828 156.027 34.8474C156.05 33.0892 156.789 31.5004 158.062 30.4455C159.462 29.2831 161.282 28.8892 163.05 29.3092C165.58 29.9083 167.256 32.1939 167.318 34.7692C167.374 37.1428 166.14 39.3437 163.89 40.3075M161.484 23.3966C154.718 23.5105 149.336 28.9282 149.818 35.8079C150.039 38.9791 151.563 41.8507 154.044 43.8433C159.703 48.3885 168.468 46.9885 172.117 40.5256C173.026 38.914 173.478 37.2046 173.547 35.3586C173.804 28.5538 168.214 23.2859 161.484 23.3998" fill="white"/>
<path d="M124.178 40.7373C121.818 40.8512 119.692 39.5717 118.748 37.387C117.442 34.3753 118.715 30.706 121.811 29.5339C123.283 28.9771 124.927 29.0032 126.33 29.6804C128.297 30.6279 129.463 32.5716 129.524 34.7205C129.612 37.8852 127.437 40.5778 124.182 40.7373M129.368 23.9143L129.332 26.5027C128.248 25.119 126.337 24.0217 124.676 23.6441C121.329 22.8887 117.885 23.8524 115.352 26.1641C112.239 29.0097 111.116 33.06 111.796 37.1982C112.187 39.5652 113.304 41.6847 114.981 43.368C116.918 45.3118 119.438 46.4155 122.186 46.4969C124.96 46.5815 127.503 45.4778 129.332 43.3876L129.371 45.9727L136.033 45.9662V23.9078L129.368 23.911V23.9143Z" fill="white"/>
<path d="M140.295 10.5619V45.9791L146.976 45.9661V10.5619H140.295Z" fill="white"/>
<path d="M112.574 23.8882H105.9L99.8439 41.8442L93.7912 23.8882H87.1167L94.5564 45.9531L99.8439 45.9466L105.135 45.9531L112.574 23.8882Z" fill="white"/>
<path d="M218.194 40.2229C216.755 40.8903 215.098 40.8773 213.669 40.2945C211.497 39.4122 210.214 37.2893 210.188 34.9712C210.162 32.5781 211.481 30.4162 213.721 29.5274C215.118 28.9739 216.703 28.9772 218.084 29.573C220.138 30.4586 221.388 32.4511 221.47 34.6749C221.554 37.0126 220.372 39.2136 218.194 40.2229ZM223.814 25.6594C221.961 24.178 219.712 23.3706 217.322 23.3738C215.71 23.338 214.219 23.7352 212.819 24.4971C211.875 24.9985 211.106 25.6692 210.426 26.4799L210.393 23.8883L203.735 23.8948V56.971H210.406L210.413 43.3517C214.304 47.9262 221.369 47.2392 225.136 42.9252C227.167 40.708 228.128 37.8298 228.118 34.8214C228.105 31.2432 226.614 27.8995 223.814 25.6627" fill="white"/>
<path d="M285.447 23.7189C281.582 22.7323 278.346 23.8654 275.578 26.6915C273.661 23.771 270.418 22.8951 267.1 23.6114C265.41 24.0672 263.952 25.0472 262.894 26.4115L262.881 23.8914H256.213V45.9531H262.884V33.7274C262.89 31.4027 264.15 29.3254 266.644 29.345C268.953 29.3645 270.017 30.8655 270.177 33.0599L270.184 45.9531H276.852L276.858 33.6004C276.917 31.3734 278.108 29.4296 280.433 29.3482C282.836 29.2636 284.037 30.8427 284.151 33.1185L284.158 45.9531H290.829V31.2203C290.774 27.6357 288.921 24.7607 285.45 23.7189" fill="white"/>
<path d="M241.063 41.8312L235.011 23.8882H228.339L235.779 45.9531L239.676 45.9499L235.978 56.9091L242.649 56.9156L253.79 23.8882H247.119L241.063 41.8312Z" fill="white"/>
<path d="M37.5986 18.1807C36.8823 19.6491 36.0423 21.1272 35.1079 22.5728L34.9223 22.8593L34.7367 22.5728C33.8023 21.1305 32.9655 19.6523 32.246 18.1807L32.1939 18.0765L32.2492 17.9756C33.2162 16.2532 34.0465 14.4658 34.7107 12.662L34.9158 12.102L35.1209 12.662C35.7851 14.4658 36.6153 16.2532 37.5823 17.9756L37.6377 18.0765L37.5888 18.1807H37.5986ZM69.8413 41.8214C65.625 41.8052 61.451 41.154 57.4333 39.8907L56.857 39.7084L57.417 39.4772C61.2686 37.8851 65.3482 37.0451 69.5515 36.9897C69.6264 36.9897 69.698 36.9897 69.7664 36.9963C69.7925 36.9963 69.8185 36.9963 69.8446 36.9963V32.8483C69.8153 32.8483 69.7892 32.8483 69.7664 32.8483C69.6948 32.8483 69.6264 32.8548 69.558 32.8548C65.3482 32.7962 61.2686 31.9595 57.417 30.3641L56.857 30.1329L57.4333 29.9506C61.4542 28.6873 65.6282 28.0362 69.8446 28.0199V23.8882C56.7105 23.797 46.0443 13.1276 45.9564 0H41.8247C41.8084 4.22284 41.1605 8.39685 39.894 12.4178L39.7116 12.9941L39.4805 12.4341C37.8818 8.57917 37.0451 4.48331 36.9897 0.263724V0.0683729C36.9963 0.0455819 36.9963 0.0260468 36.9963 0.00325585H32.8516C32.8516 0.00325585 32.8516 0.0260468 32.8516 0.0390702C32.8548 0.13349 32.8581 0.198607 32.8581 0.260468C32.8027 4.48657 31.966 8.58243 30.3673 12.4374L30.1362 12.9974L29.9538 12.4211C28.6873 8.40336 28.0394 4.2261 28.0231 0.00325585H23.8914C23.8035 13.1309 13.1341 23.8003 0.00325585 23.8915V28.0231C4.27168 28.0394 8.50103 28.7036 12.5676 29.9994C14.4788 30.6083 16.3607 31.3604 18.1546 32.2362C19.6328 32.9557 21.1207 33.799 22.5728 34.74L22.8593 34.9255L22.5728 35.1111C21.1272 36.0455 19.6491 36.8823 18.1807 37.6018L18.0765 37.6507L17.9756 37.5953C16.25 36.6251 14.4625 35.7981 12.662 35.1339L12.102 34.9288L12.662 34.7237C13.6941 34.3427 14.7555 33.8902 15.8202 33.3758C14.5504 32.819 13.2513 32.3306 11.9555 31.9171L9.95965 31.279C6.82752 32.2883 3.57818 32.819 0.293027 32.8646H0.136746C0.0846522 32.8711 0.0390702 32.8711 0 32.8744V36.9865C0.0325585 36.9865 0.0651171 36.9865 0.0976756 36.9865L0.293027 36.993C4.50284 37.0516 8.58894 37.8884 12.4374 39.4837L12.9974 39.7149L12.4211 39.8972C8.4001 41.1638 4.22284 41.8117 0.00325585 41.8279V45.9596C13.1211 46.0443 23.8003 56.7202 23.8882 69.8478H28.0199C28.0329 66.5138 28.4496 63.1831 29.2538 59.937L28.4594 58.0453C27.945 56.8212 27.3296 55.5937 26.6231 54.3923C26.2324 55.4765 25.884 56.5672 25.5845 57.6416L25.4282 58.1984L25.1743 57.6774C22.4231 52.0448 17.803 47.4248 12.1671 44.6703L11.6462 44.4163L12.2029 44.2601C14.1271 43.7228 15.9797 43.0814 17.7151 42.3489L17.9951 42.2252C18.35 42.0721 18.7049 41.9093 19.0272 41.7596L19.2388 41.6619L19.9519 41.32C20.0821 41.2582 20.2026 41.1963 20.323 41.1377L20.5119 41.04C20.6063 40.9912 20.704 40.9456 20.7984 40.8968L20.997 40.7958L21.15 40.7177C21.5244 40.5224 21.85 40.3465 22.1528 40.1805L22.3352 40.0796C23.6635 39.334 24.9789 38.5037 26.2519 37.6149L26.3887 37.5172L26.5189 37.6246C28.5962 39.3372 30.5171 41.2582 32.2264 43.3321L32.3339 43.4624L32.2362 43.5991C31.3441 44.8689 30.5139 46.1875 29.7683 47.5159L29.6055 47.8089L29.4036 47.542C27.7464 45.3671 25.8417 43.368 23.7352 41.5935L23.2435 41.8703C22.0877 42.5149 20.8993 43.1173 19.7077 43.6642C22.7682 45.9792 25.3826 48.7694 27.4761 51.9634C28.3096 53.2397 29.052 54.5583 29.6901 55.8965C29.9083 56.3556 30.1166 56.8211 30.3087 57.2737C31.9399 61.1579 32.7962 65.2864 32.8581 69.545C32.8581 69.6232 32.8548 69.6948 32.8516 69.7664C32.8516 69.7957 32.8516 69.8218 32.8516 69.8511H36.9995C36.9995 69.8218 36.9995 69.7925 36.9963 69.7599L36.9897 69.5515C37.0484 65.2864 37.9079 61.1579 39.5391 57.2737C40.3009 55.4569 41.2517 53.6727 42.3619 51.9797C44.4619 48.7759 47.0731 45.9824 50.1401 43.6642C48.9485 43.1205 47.7601 42.5149 46.6043 41.8703L46.1126 41.5935C43.9898 43.3842 42.0917 45.3768 40.441 47.542L40.2391 47.8089L40.0763 47.5159C39.6726 46.7964 39.2233 46.0606 38.673 45.2043C37.9177 46.1843 37.1949 47.2196 36.5209 48.281L36.1172 48.9192C36.687 49.8894 37.1656 50.7815 37.6018 51.6736L37.6539 51.7778L37.5986 51.8788C36.6316 53.6011 35.8014 55.3886 35.1372 57.1891L34.932 57.7491L34.7237 57.1891C34.0595 55.3886 33.2292 53.6011 32.2622 51.8788L32.2069 51.7778L32.2557 51.6736C33.6851 48.675 36.8595 43.9345 39.0898 41.6065C43.0294 37.4977 47.0145 34.7432 49.6876 33.2976C48.5252 32.5911 47.4182 31.839 46.3927 31.0608L45.9401 30.719C45.0284 31.279 44.2894 31.7608 43.5991 32.246L43.4624 32.3436L43.3322 32.2362C41.7596 30.9371 40.2554 29.498 38.8586 27.9482C38.0284 29.1008 37.1753 30.185 36.3223 31.1748L36.2735 31.2301C37.4325 32.4739 38.6665 33.6623 39.9396 34.7627L40.1316 34.9288L39.9396 35.0948C38.2139 36.5828 36.5828 38.2139 35.0948 39.9396L34.9288 40.1316L34.7627 39.9396C33.2651 38.2009 31.6176 36.5567 29.8692 35.0525L29.8334 35.0232C28.7199 34.0692 27.5478 33.1544 26.3496 32.3078L26.2943 32.2688C25.0082 31.3669 23.6798 30.5301 22.3482 29.7813L21.9542 29.6511L22.3221 29.4166C24.4938 27.7594 26.4961 25.8515 28.2706 23.7449L27.9938 23.2533C27.3459 22.091 26.7403 20.9026 26.1998 19.7174C23.8882 22.7779 21.1012 25.3891 17.9104 27.4827L17.8128 27.5478L17.7053 27.5022C15.9732 26.7729 14.1271 26.1315 12.2192 25.6008L11.6592 25.4445L12.1801 25.1905C17.816 22.4361 22.4361 17.816 25.1873 12.1801L25.4412 11.6592L25.5975 12.216C26.1315 14.1402 26.7761 15.9928 27.512 17.7314C28.1469 19.2356 28.8957 20.7626 29.7422 22.2765C30.5073 23.644 31.3441 24.9757 32.2492 26.2617L32.3436 26.3985L32.2362 26.5287C30.9436 28.098 29.5013 29.6022 27.9482 31.0022C29.1008 31.8325 30.185 32.6855 31.1748 33.5385L31.2301 33.5874C32.4902 32.4153 33.6916 31.165 34.8051 29.8725L34.8376 29.8366C35.7916 28.7231 36.7032 27.5543 37.5498 26.3561L37.5921 26.2975C38.5233 24.9691 39.3665 23.6277 40.1219 22.2765C40.9521 20.7919 41.6879 19.2974 42.3131 17.8258L42.3489 17.7411C43.0945 15.9765 43.7326 14.1304 44.2666 12.2192L44.4229 11.6625L44.6768 12.1834C47.4313 17.8193 52.0481 22.4393 57.684 25.1938L58.2049 25.4477L57.6481 25.604C55.7402 26.1347 53.8941 26.7761 52.162 27.5054L52.0546 27.551L51.9569 27.4859C48.7662 25.3924 45.9759 22.7812 43.6642 19.724C43.1173 20.9189 42.5149 22.1072 41.8703 23.2598L41.5935 23.7515C43.407 25.9003 45.4224 27.8148 47.6071 29.472C48.9355 30.4813 50.3648 31.4157 51.8527 32.2557C53.5848 33.2292 55.3821 34.0627 57.1891 34.7302L57.7491 34.9353L57.1891 35.1404C55.3886 35.8046 53.6011 36.6349 51.8788 37.6018L51.7778 37.6572L51.6736 37.6051C50.7555 37.1558 49.8406 36.6642 48.8769 36.0976L48.2973 36.4721C47.2294 37.1656 46.1908 37.9112 45.214 38.6828C46.0964 39.2493 46.855 39.7084 47.5843 40.1186C49.069 40.9489 50.5634 41.6847 52.035 42.3098L52.0937 42.3359L52.1555 42.3619C53.8876 43.0912 55.7337 43.7294 57.6416 44.2633L58.1984 44.4196L57.6774 44.6736C52.0448 47.428 47.4248 52.0448 44.6703 57.6807L44.4163 58.2016L44.2601 57.6449C43.9605 56.577 43.6154 55.483 43.2215 54.3955C42.5182 55.5937 41.8996 56.8211 41.3851 58.0486L40.5907 59.937C41.3982 63.1961 41.8117 66.5268 41.8247 69.8511H45.9564C46.0475 56.73 56.7235 46.0573 69.8446 45.9629V41.8312L69.8413 41.8214Z" fill="white"/>
</svg>
